<?xml version="1.0" encoding="UTF-8"?>
<svg width="512px" height="512px" viewBox="0 0 512 512" version="1.1" xmlns="http://www.w3.org/2000/svg" xmlns:xlink="http://www.w3.org/1999/xlink">
    <!-- Generator: Sketch 57.1 (83088) - https://sketch.com -->
    <title>Artboard</title>
    <desc>Created with Sketch.</desc>
    <g id="Artboard" stroke="none" stroke-width="1" fill="none" fill-rule="evenodd">
        <g id="Group-2">
            <g id="Group" transform="translate(-0.000000, 173.000000)">
                <path d="M26.028697,316.30314 C25.0523772,306.817551 20.9998705,268.132409 19.9135453,222.596948 C19.835767,219.336717 15.6220822,214.035309 7.68711758,189.799671 C-0.247847032,165.564033 -0.247847032,144.664583 0.117834514,140.680488 C0.314681095,138.535848 1.25901426,128.027749 7.68711758,120.643395 C13.5615017,113.895132 26.9777695,107.756916 27.0336965,107.279471 C31.3585909,70.3581914 34.9940477,50.6093202 38.8414264,40.5876759 C43.9322407,27.3271333 78.3894426,0.00693148816 116.762725,0.00693148816 C118.357471,0.0047179728 152.520331,-0.982174703 178.356615,21.4878072 C183.457344,25.923943 187.899486,30.4534386 190.585871,36.1656104 C192.192984,39.5828818 194.913264,51.1750055 197.518407,66.0826066 C197.715962,67.2130893 210.456389,69.3424636 215.476517,72.6502717 C237.707567,87.2985117 234.5289,124.257863 234.5289,131.719355 C234.5289,145.491908 233.020725,162.582174 226.247461,184.54608 C219.474197,206.509986 215.977187,215.266403 212.284663,227.127017 C211.444886,229.824431 210.433948,231.264922 210.418719,232.243993 C209.978109,260.569797 208.335672,292.837796 203.901439,319.043556 C202.408142,327.86875 188.65733,332.387282 169.489335,335.26625 C149.309096,338.297254 124.683606,338.753991 118.497445,338.753991 C112.393999,338.753991 82.0591111,337.974879 66.0386342,335.26625 C59.4406308,334.150706 45.8728627,331.134238 38.8414264,327.86875 C28.7999763,323.205375 26.1984269,317.952177 26.028697,316.30314 Z" id="Path" fill="#FFD001"></path>
                <path d="M81.9637511,161.964025 C103.52187,154.793766 138.08682,157.458435 150.227972,163.903011 C162.369123,170.347587 179.744253,181.873971 176.353225,219.991588 C172.962197,258.109204 147.354448,277.415204 117.343044,278.60619 C87.3316389,279.797175 55.9081579,259.418544 51.3680759,223.532757 C46.827994,187.64697 60.4056322,169.134284 81.9637511,161.964025 Z" id="Path-2" fill="#4ABFAD"></path>
                <path d="M140.666891,86.6936761 C124.402912,86.5054815 119.381086,104.156158 93.8064245,105.800385 C93.8064245,105.800385 75.3930642,106.721548 84.9909911,121.569115 C94.5889181,136.416683 128.780914,144.350573 140.686701,123.262867 C152.592489,102.175162 156.940776,86.8917757 140.666891,86.6936761 Z" id="Path" fill="#EF4364" fill-rule="nonzero"></path>
                <path d="M133.35927,57.0112655 C127.76997,57.5511571 122.713741,60.5587417 119.571536,65.21259 L119.571536,65.21259 C119.015877,65.6905831 118.618629,66.3261801 118.432463,67.0351066 C117.620963,69.360033 117.620963,71.8912917 118.432463,74.2162181 C119.373436,76.5141738 120.720514,77.0589477 121.582247,75.6128205 C124.182458,70.8603981 128.96146,67.6983106 134.352238,67.1633933 C139.743015,66.6284761 145.050242,68.789725 148.533701,72.9384755 C149.662869,74.1865032 151.009947,73.3742947 151.336811,70.9574792 C151.663675,68.5406638 151.118901,65.1531602 149.950114,63.9051325 C145.944506,58.9453539 139.700246,56.3507243 133.35927,57.0112655 Z" id="Path" fill="#000000" fill-rule="nonzero"></path>
                <path d="M101.777116,78.1265341 C102.906284,79.3745617 104.253361,78.5623533 104.590131,76.1455378 C104.9269,73.7287224 104.292981,70.3511237 103.173718,69.0931911 C99.3927627,64.4487372 93.6395699,61.8639197 87.6562378,62.1214352 C81.6729056,62.3789506 76.1630707,65.4485153 72.7951406,70.4006486 L72.7951406,70.4006486 C72.2973317,70.9203383 71.9187617,71.5422747 71.6857827,72.2231652 C70.8742832,74.5480916 70.8742832,77.0793503 71.6857827,79.4042767 C72.6762808,81.7022324 73.9837384,82.2569113 74.8355667,80.8008791 C77.4366519,76.0524562 82.2133754,72.8934557 87.6010599,72.3586487 C92.9887444,71.8238418 98.2932869,73.9821285 101.777116,78.1265341 L101.777116,78.1265341 Z" id="Path" fill="#000000" fill-rule="nonzero"></path>
            </g>
            <g id="chat" transform="translate(250.000000, 0.000000)" fill="#00A887" fill-rule="nonzero">
                <path d="M229.25,0 L32.75,0 C14.688375,0 0,14.688375 0,32.75 L0,180.125 C0,198.186625 14.688375,212.875 32.75,212.875 L49.125,212.875 L49.125,253.8125 C49.125,256.98925 50.959,259.887625 53.841,261.230375 C54.938125,261.738 56.1335,262 57.3125,262 C59.195625,262 61.062375,261.345 62.5525,260.1005 L119.226375,212.875 L229.25,212.875 C247.311625,212.875 262,198.186625 262,180.125 L262,32.75 C262,14.688375 247.311625,0 229.25,0 Z" id="Path"></path>
            </g>
            <text id="I-can-find-my-items" font-family="VarelaRound-Regular, Varela Round" font-size="36" font-weight="normal" fill="#FFFFFF">
                <tspan x="271.344" y="52">I can find my </tspan>
                <tspan x="334.416" y="95">items </tspan>
                <tspan x="291.846" y="138">anytime in </tspan>
                <tspan x="267.816" y="181">my collection</tspan>
            </text>
        </g>
    </g>
</svg>