<?xml version="1.0" encoding="UTF-8"?>
<svg width="442px" height="512px" viewBox="0 0 442 512" version="1.1" xmlns="http://www.w3.org/2000/svg" xmlns:xlink="http://www.w3.org/1999/xlink">
    <!-- Generator: Sketch 57.1 (83088) - https://sketch.com -->
    <title>fireworks</title>
    <desc>Created with Sketch.</desc>
    <g id="Page-1" stroke="none" stroke-width="1" fill="none" fill-rule="evenodd">
        <g id="fireworks">
            <path d="M101.921875,496.347656 C100.066406,496.347656 98.210938,495.652344 96.773438,494.257812 C93.84375,491.414062 93.773438,486.734375 96.621094,483.804688 L105.808594,474.339844 C108.652344,471.410156 113.332031,471.339844 116.261719,474.183594 C119.191406,477.027344 119.261719,481.707031 116.417969,484.636719 L107.226562,494.101562 C105.777344,495.597656 103.851562,496.347656 101.921875,496.347656 Z" id="Path" fill="#FE5723" fill-rule="nonzero"></path>
            <path d="M201.648438,133.261719 C199.796875,133.261719 197.9375,132.566406 196.503906,131.171875 C193.574219,128.328125 193.503906,123.648438 196.347656,120.722656 L205.539062,111.253906 C208.382812,108.324219 213.058594,108.253906 215.988281,111.097656 C218.917969,113.941406 218.988281,118.621094 216.144531,121.550781 L206.953125,131.019531 C205.503906,132.511719 203.578125,133.261719 201.648438,133.261719 Z" id="Path" fill="#EF4364" fill-rule="nonzero"></path>
            <path d="M413.804688,100.390625 C411.949219,100.390625 410.09375,99.699219 408.65625,98.304688 C405.726562,95.460938 405.65625,90.78125 408.5,87.851562 L417.691406,78.382812 C420.535156,75.457031 425.214844,75.386719 428.144531,78.230469 C431.074219,81.070312 431.144531,85.753906 428.300781,88.679688 L419.109375,98.148438 C417.660156,99.640625 415.734375,100.390625 413.804688,100.390625 Z" id="Path" fill="#0378D6" fill-rule="nonzero"></path>
            <path d="M413.804688,463.773438 C411.949219,463.773438 410.09375,463.078125 408.65625,461.6875 C405.726562,458.84375 405.65625,454.164062 408.5,451.234375 L417.691406,441.765625 C420.535156,438.839844 425.214844,438.765625 428.144531,441.609375 C431.074219,444.453125 431.144531,449.132812 428.300781,452.0625 L419.109375,461.53125 C417.660156,463.023438 415.734375,463.773438 413.804688,463.773438 Z" id="Path" fill="#FE5723" fill-rule="nonzero"></path>
            <path d="M63.070312,112.910156 C61.21875,112.910156 59.359375,112.21875 57.925781,110.824219 C54.996094,107.980469 54.925781,103.300781 57.769531,100.371094 L66.960938,90.902344 C69.804688,87.976562 74.484375,87.90625 77.414062,90.75 C80.339844,93.59375 80.410156,98.273438 77.566406,101.199219 L68.375,110.667969 C66.925781,112.160156 65,112.910156 63.070312,112.910156 Z" id="Path" fill="#FE5723" fill-rule="nonzero"></path>
            <path d="M12.308594,278.824219 C10.457031,278.824219 8.597656,278.132812 7.164062,276.738281 C4.234375,273.894531 4.164062,269.214844 7.007812,266.285156 L16.195312,256.816406 C19.039062,253.886719 23.71875,253.816406 26.648438,256.660156 C29.578125,259.503906 29.648438,264.183594 26.804688,267.113281 L17.613281,276.582031 C16.167969,278.074219 14.238281,278.824219 12.308594,278.824219 Z" id="Path" fill="#00A887" fill-rule="nonzero"></path>
            <path d="M192.296875,291.488281 C186.074219,294.859375 178.800781,289.414062 179.988281,282.273438 L184.570312,254.75 C185.042969,251.914062 184.132812,249.023438 182.132812,247.015625 L162.71875,227.519531 C157.683594,222.464844 160.460938,213.65625 167.421875,212.613281 L194.246094,208.597656 C197.011719,208.183594 199.398438,206.398438 200.632812,203.816406 L212.632812,178.773438 C215.746094,172.28125 224.734375,172.28125 227.847656,178.773438 L239.84375,203.816406 C241.082031,206.398438 243.46875,208.183594 246.230469,208.597656 L273.058594,212.613281 C280.015625,213.65625 282.792969,222.464844 277.757812,227.519531 L258.347656,247.015625 C256.347656,249.023438 255.433594,251.914062 255.90625,254.75 L260.488281,282.273438 C261.679688,289.414062 254.40625,294.859375 248.183594,291.488281 L224.1875,278.492188 C221.714844,277.152344 218.761719,277.152344 216.292969,278.492188 L192.296875,291.488281 Z" id="Path" fill="#FFCF01" fill-rule="nonzero"></path>
            <g id="Group-2" transform="translate(203.000000, 223.000000)">
                <path d="M30.205778,13.8139877 C23.2643234,12.496715 19.7772325,19.6623514 8.72141433,18.4192604 C8.72141433,18.4192604 0.776868879,17.4161695 3.75341433,24.4928968 C6.72941433,31.5696241 20.7475962,37.540715 27.4359598,29.4478059 C34.1248689,21.3548968 37.147778,15.1312604 30.205778,13.8139877" id="Fill-25-Copy-2" fill="#EE4364"></path>
                <path d="M29.8885962,1.73162408 C27.4831416,1.54616953 25.1213234,2.3998059 23.3682325,4.19216953 L23.368778,4.19216953 C23.1085962,4.32253317 22.9029598,4.6018059 22.7551416,4.88544226 C22.2669598,5.58853317 22.0416871,6.90798772 22.2080507,7.95635135 C22.4371416,9.00962408 22.9711416,9.34616953 23.4478689,8.79253317 C24.8295052,6.97235135 27.2033234,5.96871499 29.5482325,6.14926044 C31.8936871,6.33035135 34.0853234,7.68526044 35.1718689,9.6958059 C35.560778,10.3159877 36.2000507,10.0705332 36.5251416,9.05926044 C36.8513234,8.04307862 36.8415052,6.56107862 36.4553234,5.94089681 C35.0944143,3.46344226 32.602778,1.94053317 29.8885962,1.73162408" id="Fill-27-Copy-2" fill="#000000"></path>
                <path d="M13.0181234,7.98907862 C13.4070325,8.60926044 14.0463052,8.36326044 14.3713962,7.35253317 C14.697578,6.3358059 14.6877598,4.8538059 14.301578,4.23416953 C12.9406689,1.75671499 10.4490325,0.233805897 7.7348507,0.0248968064 C5.32939615,-0.160557739 2.96757797,0.693078625 1.21448706,2.48489681 L1.21448706,2.48489681 C1.02030524,2.62071499 0.749214334,2.89507862 0.601396152,3.17871499 C0.113214334,3.8818059 -0.112058393,5.20071499 0.054305243,6.24962408 C0.283396152,7.30289681 0.817396152,7.63944226 1.29412342,7.0858059 C2.67575979,5.26507862 5.04957797,4.26198772 7.39448706,4.44253317 C9.73994161,4.62307862 11.931578,5.97853317 13.0181234,7.98907862" id="Fill-29-Copy-2" fill="#000000"></path>
            </g>
            <path d="M220.238281,512 C216.15625,512 212.847656,508.691406 212.847656,504.609375 L212.847656,389.015625 C212.847656,384.933594 216.15625,381.621094 220.238281,381.621094 C224.320312,381.621094 227.628906,384.933594 227.628906,389.015625 L227.628906,504.609375 C227.628906,508.691406 224.320312,512 220.238281,512 Z" id="Path" fill="#0378D6" fill-rule="nonzero"></path>
            <path d="M220.296875,357.421875 L220.183594,357.421875 C216.101562,357.421875 212.789062,354.109375 212.789062,350.027344 C212.789062,345.945312 216.097656,342.636719 220.183594,342.636719 L220.296875,342.636719 C224.378906,342.636719 227.6875,345.945312 227.6875,350.027344 C227.6875,354.109375 224.378906,357.421875 220.296875,357.421875 Z" id="Path" fill="#0378D6" fill-rule="nonzero"></path>
            <path d="M220.296875,331.996094 C220.285156,331.996094 220.273438,331.996094 220.265625,331.996094 L220.148438,331.996094 C216.066406,331.980469 212.773438,328.65625 212.789007,324.574219 C212.808594,320.5 216.113281,317.214844 220.179688,317.214844 L220.214844,317.214844 L220.328125,317.214844 C224.410156,317.230469 227.703125,320.554688 227.687555,324.636719 C227.671875,328.707031 224.363281,331.996094 220.296875,331.996094 Z" id="Path" fill="#FE5723" fill-rule="nonzero"></path>
            <path d="M87.234375,230.894531 C85.304688,230.894531 83.378906,230.144531 81.929688,228.652344 L2.589844,146.914062 C-0.253906,143.984375 -0.1875,139.304688 2.742188,136.464844 C5.671875,133.621094 10.351562,133.691406 13.195312,136.617188 L92.539062,218.355469 C95.382812,221.28125 95.3125,225.964844 92.382812,228.804688 C90.945312,230.199219 89.089844,230.894531 87.234375,230.894531 Z" id="Path" fill="#EF4364" fill-rule="nonzero"></path>
            <path d="M113.953125,258.503906 C112.089844,258.503906 110.226562,257.804688 108.789062,256.398438 C105.867188,253.546875 105.8125,248.867188 108.664062,245.945312 L108.746094,245.863281 C111.597656,242.945312 116.277344,242.886719 119.199219,245.742188 C122.121094,248.59375 122.175781,253.273438 119.320312,256.195312 L119.242188,256.277344 C117.792969,257.757812 115.875,258.503906 113.953125,258.503906 L113.953125,258.503906 Z" id="Path" fill="#FE5723" fill-rule="nonzero"></path>
            <path d="M131.402344,276.480469 C129.546875,276.480469 127.691406,275.785156 126.253906,274.390625 C123.328125,271.546875 123.257812,266.867188 126.101562,263.941406 L126.179688,263.855469 C129.027344,260.925781 133.707031,260.859375 136.632812,263.703125 C139.5625,266.546875 139.632812,271.226562 136.789062,274.15625 L136.707031,274.238281 C135.257812,275.730469 133.332031,276.480469 131.402344,276.480469 L131.402344,276.480469 Z" id="Path" fill="#0378D6" fill-rule="nonzero"></path>
            <path d="M353.242188,227.988281 C351.386719,227.988281 349.53125,227.296875 348.097656,225.902344 C345.167969,223.058594 345.097656,218.378906 347.941406,215.449219 L427.28125,133.714844 C430.125,130.785156 434.804688,130.714844 437.734375,133.558594 C440.664062,136.402344 440.734375,141.082031 437.890625,144.011719 L358.546875,225.746094 C357.097656,227.238281 355.171875,227.988281 353.242188,227.988281 Z" id="Path" fill="#FE5723" fill-rule="nonzero"></path>
            <path d="M326.523438,255.601562 C324.609375,255.601562 322.699219,254.863281 321.253906,253.390625 L321.171875,253.308594 C318.308594,250.394531 318.351562,245.714844 321.261719,242.855469 C324.175781,239.992188 328.855469,240.035156 331.714844,242.945312 L331.796875,243.027344 C334.65625,245.941406 334.617188,250.621094 331.703125,253.480469 C330.265625,254.894531 328.394531,255.601562 326.523438,255.601562 Z" id="Path" fill="#FF4E61" fill-rule="nonzero"></path>
            <path d="M309.074219,273.578125 C307.144531,273.578125 305.21875,272.828125 303.769531,271.335938 L303.6875,271.253906 C300.847656,268.324219 300.914062,263.644531 303.84375,260.800781 C306.773438,257.957031 311.453125,258.027344 314.296875,260.953125 L314.378906,261.035156 C317.21875,263.964844 317.152344,268.644531 314.222656,271.488281 C312.785156,272.882812 310.929688,273.578125 309.074219,273.578125 Z" id="Path" fill="#FE5723" fill-rule="nonzero"></path>
            <path d="M300.652344,116.691406 C299.410156,116.691406 298.152344,116.378906 297,115.71875 C293.453125,113.695312 292.21875,109.179688 294.242188,105.636719 L351.105469,5.984375 C353.128906,2.441406 357.640625,1.207031 361.1875,3.230469 C364.734375,5.253906 365.96875,9.769531 363.945312,13.3125 L307.082031,112.964844 C305.71875,115.351562 303.222656,116.691406 300.652344,116.691406 Z" id="Path" fill="#00A887" fill-rule="nonzero"></path>
            <path d="M281.523438,150.328125 C280.230469,150.328125 278.925781,149.992188 277.734375,149.28125 L277.636719,149.222656 C274.136719,147.128906 272.992188,142.589844 275.089844,139.085938 C277.183594,135.578125 281.722656,134.441406 285.226562,136.535156 L285.324219,136.59375 C288.828125,138.6875 289.96875,143.226562 287.875,146.730469 C286.488281,149.046875 284.039062,150.328125 281.523438,150.328125 Z" id="Path" fill="#FE5723" fill-rule="nonzero"></path>
            <path d="M269.015625,172.246094 C267.714844,172.246094 266.398438,171.902344 265.207031,171.183594 L265.109375,171.125 C261.613281,169.015625 260.488281,164.472656 262.59375,160.976562 C264.703125,157.480469 269.246094,156.359375 272.742188,158.464844 L272.839844,158.523438 C276.335938,160.632812 277.460938,165.175781 275.351562,168.671875 C273.964844,170.972656 271.519531,172.246094 269.015625,172.246094 L269.015625,172.246094 Z" id="Path" fill="#00A887" fill-rule="nonzero"></path>
            <path d="M139.964844,116.691406 C137.394531,116.691406 134.898438,115.351562 133.535156,112.960938 L76.671875,13.3125 C74.648438,9.765625 75.882812,5.253906 79.425781,3.230469 C82.972656,1.207031 87.488281,2.4375 89.511719,5.984375 L146.375,105.632812 C148.398438,109.179688 147.164062,113.695312 143.621094,115.71875 C142.464844,116.378906 141.207031,116.691406 139.964844,116.691406 Z" id="Path" fill="#0378D6" fill-rule="nonzero"></path>
            <path d="M159.09375,150.328125 C156.585938,150.328125 154.136719,149.050781 152.75,146.746094 C150.648438,143.246094 151.78125,138.703125 155.277344,136.601562 L155.378906,136.542969 C158.878906,134.441406 163.417969,135.570312 165.519531,139.070312 C167.625,142.570312 166.492188,147.109375 162.992188,149.214844 L162.894531,149.273438 C161.703125,149.988281 160.390625,150.328125 159.09375,150.328125 Z" id="Path" fill="#EF4364" fill-rule="nonzero"></path>
            <path d="M171.601562,172.246094 C169.101562,172.246094 166.664062,170.980469 165.273438,168.683594 C163.15625,165.191406 164.273438,160.648438 167.761719,158.53125 L167.859375,158.472656 C171.355469,156.359375 175.898438,157.472656 178.015625,160.964844 C180.128906,164.457031 179.015625,169 175.523438,171.117188 L175.425781,171.175781 C174.226562,171.902344 172.90625,172.246094 171.601562,172.246094 Z" id="Path" fill="#FE5723" fill-rule="nonzero"></path>
            <path d="M402.144531,357.28125 L386.621094,368.882812 C382.597656,371.894531 376.96875,368.839844 377.097656,363.71875 L377.601562,343.96875 C377.652344,341.933594 376.730469,340.003906 375.132812,338.804688 L359.625,327.183594 C355.601562,324.167969 356.679688,317.710938 361.449219,316.253906 L379.839844,310.644531 C381.730469,310.066406 383.230469,308.5625 383.839844,306.628906 L389.777344,287.84375 C391.316406,282.96875 397.613281,282.03125 400.429688,286.253906 L411.292969,302.539062 C412.414062,304.214844 414.261719,305.21875 416.234375,305.21875 L435.414062,305.230469 C440.390625,305.234375 443.203125,311.113281 440.171875,315.179688 L428.496094,330.851562 C427.292969,332.46875 426.9375,334.589844 427.546875,336.523438 L433.464844,355.320312 C434.996094,360.195312 430.4375,364.765625 425.75,363.054688 L407.671875,356.457031 C405.8125,355.777344 403.746094,356.085938 402.144531,357.28125 L402.144531,357.28125 Z" id="Path" fill="#FFCF01" fill-rule="nonzero"></path>
            <g id="Group-2-Copy-2" transform="translate(401.323529, 331.000000) rotate(-12.000000) translate(-401.323529, -331.000000) translate(385.000000, 316.000000)">
                <path d="M26.652157,12.1888127 C20.5273442,11.0265132 17.4504993,17.3491335 7.69536559,16.2522886 C7.69536559,16.2522886 0.685472541,15.3672084 3.31183618,21.6113795 C5.93771853,27.8555507 18.3067025,33.1241603 24.2081998,25.9833581 C30.1101784,18.842556 32.7774512,13.3511122 26.652157,12.1888127" id="Fill-25-Copy-2" fill="#EE4364"></path>
                <path d="M26.3722907,1.5279036 C24.2498308,1.36426724 22.1658736,2.11747579 20.6190287,3.69897312 L20.61951,3.69897312 C20.3899378,3.81399986 20.2084939,4.06041697 20.0780661,4.31068435 C19.6473175,4.93105868 19.4485474,6.09528328 19.5953389,7.02031002 C19.7974779,7.94966831 20.2686544,8.24662018 20.6892961,7.7581175 C21.908387,6.15207472 24.0029324,5.26651322 26.0719699,5.42581804 C28.1414886,5.58560413 30.0752854,6.78111216 31.034002,8.55512285 C31.377157,9.1023421 31.9412212,8.88576456 32.2280661,7.9934651 C32.5158736,7.09683408 32.5072105,5.78918702 32.1664618,5.24196777 C30.9656597,3.05597847 28.767157,1.71223515 26.3722907,1.5279036" id="Fill-27-Copy-2" fill="#000000"></path>
                <path d="M11.4865795,7.04918702 C11.8297346,7.59640627 12.3937987,7.37934745 12.6806437,6.48752927 C12.9684512,5.59041697 12.959788,4.28276991 12.6190394,3.73603194 C11.4182372,1.55004264 9.21973457,0.206299321 6.82486826,0.0219677704 C4.70240837,-0.141668593 2.61845115,0.611539963 1.07160623,2.19255601 L1.07160623,2.19255601 C0.900269332,2.31239558 0.661071471,2.55448114 0.530643664,2.80474852 C0.0998950005,3.42512285 -0.0988750529,4.58886617 0.0479163909,5.51437419 C0.250055428,6.44373248 0.721231899,6.74068435 1.14187361,6.25218167 C2.36096452,4.64565761 4.45550997,3.7605774 6.52454741,3.91988221 C8.59406612,4.07918702 10.5278629,5.27517633 11.4865795,7.04918702" id="Fill-29-Copy-2" fill="#000000"></path>
            </g>
            <path d="M261.507812,512 C257.425781,512 254.117188,508.691406 254.117188,504.609375 C254.117188,447.378906 276.949219,408.6875 296.101562,386.304688 C316.929688,361.972656 337.714844,351.28125 338.589844,350.835938 C342.230469,348.988281 346.679688,350.445312 348.523438,354.089844 C350.367188,357.726562 348.917969,362.167969 345.28125,364.019531 C344.96875,364.179688 325.78125,374.183594 306.914062,396.414062 C281.6875,426.132812 268.898438,462.535156 268.898438,504.609375 C268.898438,508.691406 265.589844,512 261.507812,512 L261.507812,512 Z" id="Path" fill="#EF4364" fill-rule="nonzero"></path>
            <path d="M102.855469,397.351562 L114.621094,412.957031 C117.675781,417.003906 123.90625,415.6875 125.167969,410.730469 L130.03125,391.617188 C130.53125,389.652344 131.941406,388.0625 133.800781,387.371094 L151.839844,380.664062 C156.519531,378.925781 157.230469,372.414062 153.046875,369.648438 L136.90625,358.976562 C135.246094,357.875 134.214844,356.003906 134.148438,353.972656 L133.53125,334.222656 C133.375,329.101562 127.582031,326.390625 123.734375,329.636719 L108.894531,342.152344 C107.363281,343.441406 105.316406,343.875 103.421875,343.308594 L85,337.808594 C80.222656,336.382812 75.929688,341.21875 77.738281,345.992188 L84.707031,364.402344 C85.425781,366.296875 85.191406,368.4375 84.082031,370.121094 L73.3125,386.46875 C70.519531,390.710938 73.65625,396.40625 78.625,396.113281 L97.769531,394.972656 C99.742188,394.855469 101.644531,395.746094 102.855469,397.351562 L102.855469,397.351562 Z" id="Path" fill="#FFCF01" fill-rule="nonzero"></path>
            <g id="Group-2-Copy" transform="translate(111.058824, 372.000000) rotate(19.000000) translate(-111.058824, -372.000000) translate(98.000000, 360.000000)">
                <path d="M21.3217256,9.75105015 C16.4218754,8.82121058 13.9603994,13.8793068 6.15629247,13.0018309 C6.15629247,13.0018309 0.548378033,12.2937667 2.64946894,17.2891036 C4.75017482,22.2844405 14.645362,26.4993282 19.3665599,20.7866865 C24.0881427,15.0740448 26.2219609,10.6808897 21.3217256,9.75105015" id="Fill-25-Copy-2" fill="#EE4364"></path>
                <path d="M21.0978326,1.22232288 C19.3998647,1.09141379 17.7326989,1.69398063 16.495223,2.95917849 L16.495608,2.95917849 C16.3119502,3.05119988 16.1667951,3.24833357 16.0624529,3.44854748 C15.717854,3.94484694 15.5588379,4.87622662 15.6762711,5.61624801 C15.8379823,6.35973464 16.2149235,6.59729614 16.5514369,6.206494 C17.5267096,4.92165978 19.2023459,4.21321058 20.8575759,4.34065443 C22.5131909,4.46848331 24.0602283,5.42488972 24.8272016,6.84409828 C25.1017256,7.28187368 25.552977,7.10861165 25.7824529,6.39477208 C26.0126989,5.67746726 26.0057684,4.63134962 25.7331695,4.19357422 C24.7725278,2.44478277 23.0137256,1.36978812 21.0978326,1.22232288" id="Fill-27-Copy-2" fill="#000000"></path>
                <path d="M9.18926359,5.63934962 C9.46378766,6.07712502 9.915039,5.90347796 10.1445149,5.19002341 C10.3747609,4.47233357 10.3678304,3.42621593 10.0952315,2.98882555 C9.1345898,1.24003411 7.37578766,0.165039457 5.45989461,0.0175742163 C3.7619267,-0.113334875 2.09476092,0.48923197 0.857284984,1.7540448 L0.857284984,1.7540448 C0.720215466,1.84991646 0.528857177,2.04358491 0.424514931,2.24379882 C0.0799160004,2.74009828 -0.0791000424,3.67109293 0.0383331127,4.41149935 C0.200044343,5.15498598 0.576985519,5.39254748 0.913498888,5.00174534 C1.88877162,3.71652609 3.56440798,3.00846192 5.21963793,3.13590577 C6.8752529,3.26334962 8.42229033,4.22014106 9.18926359,5.63934962" id="Fill-29-Copy-2" fill="#000000"></path>
            </g>
            <path d="M179.023438,512 C174.941406,512 171.632812,508.691406 171.632812,504.609375 C171.632812,474.550781 164.953125,447.050781 151.78125,422.875 C149.828125,419.289062 151.152344,414.800781 154.738281,412.847656 C158.324219,410.894531 162.8125,412.21875 164.765625,415.800781 C179.128906,442.175781 186.414062,472.054688 186.414062,504.609375 C186.414062,508.691406 183.105469,512 179.023438,512 Z" id="Path" fill="#FFAA00" fill-rule="nonzero"></path>
            <path d="M268.925781,55.898438 C268.925781,44.613281 260.042969,35.464844 249.089844,35.464844 C238.132812,35.464844 229.253906,44.613281 229.253906,55.898438 C229.253906,67.183594 238.132812,76.335938 249.089844,76.335938 C260.042969,76.335938 268.925781,67.183594 268.925781,55.898438 Z" id="Path" fill="#FFD02F" fill-rule="nonzero"></path>
            <path d="M373.078125,446.8125 C373.078125,435.527344 364.199219,426.378906 353.246094,426.378906 C342.289062,426.378906 333.410156,435.527344 333.410156,446.8125 C333.410156,458.097656 342.289062,467.246094 353.246094,467.246094 C364.199219,467.246094 373.078125,458.097656 373.078125,446.8125 Z" id="Path" fill="#0378D6" fill-rule="nonzero"></path>
            <path d="M44.128906,450.855469 C44.128906,441.804688 37.007812,434.46875 28.21875,434.46875 C19.433594,434.46875 12.3125,441.804688 12.3125,450.855469 C12.3125,459.910156 19.433594,467.246094 28.21875,467.246094 C37.007812,467.246094 44.128906,459.910156 44.128906,450.855469 L44.128906,450.855469 Z" id="Path" fill="#00A887" fill-rule="nonzero"></path>
            <path d="M88.171875,288.351562 C88.171875,279.300781 81.050781,271.964844 72.261719,271.964844 C63.476562,271.964844 56.355469,279.300781 56.355469,288.351562 C56.355469,297.402344 63.476562,304.742188 72.261719,304.742188 C81.050781,304.742188 88.171875,297.402344 88.171875,288.351562 Z" id="Path" fill="#0378D6" fill-rule="nonzero"></path>
            <g id="Group" transform="translate(132.000000, 0.000000)" fill="#EF4364" fill-rule="nonzero">
                <path d="M78.839844,16.390625 C78.839844,7.335938 71.71875,0 62.933594,0 C54.144531,0 47.023438,7.335938 47.023438,16.390625 C47.023438,25.441406 54.144531,32.777344 62.933594,32.777344 C71.71875,32.777344 78.839844,25.441406 78.839844,16.390625 Z" id="Path"></path>
                <path d="M233.226562,152.882812 C233.226562,143.832031 226.101562,136.492188 217.316406,136.492188 C208.53125,136.492188 201.40625,143.832031 201.40625,152.882812 C201.40625,161.933594 208.53125,169.269531 217.316406,169.269531 C226.101562,169.269531 233.226562,161.933594 233.226562,152.882812 L233.226562,152.882812 Z" id="Path"></path>
                <path d="M7.957031,32.746094 C6.101562,32.746094 4.246094,32.054688 2.808594,30.65625 C-0.121094,27.8125 -0.191406,23.136719 2.652344,20.207031 L11.84375,10.738281 C14.6875,7.808594 19.367188,7.738281 22.292969,10.582031 C25.222656,13.425781 25.292969,18.105469 22.449219,21.035156 L13.261719,30.503906 C11.8125,31.996094 9.882812,32.746094 7.957031,32.746094 Z" id="Path"></path>
            </g>
        </g>
    </g>
</svg>