<svg width="42" height="32" xmlns="http://www.w3.org/2000/svg"><g fill="none" fill-rule="evenodd"><rect width="42" height="32" rx="16" fill="#000" fill-opacity=".1"/><path d="M21 7c-4.97 0-9 4.03-9 9s4.03 9 9 9 9-4.03 9-9-4.03-9-9-9zm.975 14.098c0 .313-.257.57-.57.57H19.95a.573.573 0 0 1-.57-.57v-.938c0-.313.257-.571.57-.571h1.454c.313 0 .57.258.57.57v.94zm2.301-5.595a4.204 4.204 0 0 1-1.454 1.27c-.331.22-.552.442-.662.7a2.509 2.509 0 0 0-.166.644c-.019.202-.203.35-.405.35h-1.785a.401.401 0 0 1-.405-.424c.037-.497.165-.883.368-1.178.258-.35.718-.773 1.38-1.233.35-.221.608-.479.81-.792.203-.312.295-.68.295-1.104 0-.423-.11-.773-.35-1.03-.24-.258-.552-.387-.976-.387-.35 0-.625.11-.865.313a.957.957 0 0 0-.294.515.597.597 0 0 1-.59.424l-1.656-.037a.358.358 0 0 1-.35-.387c.056-.883.406-1.546 1.013-2.024.7-.534 1.601-.81 2.742-.81 1.215 0 2.172.313 2.872.92.699.607 1.049 1.436 1.049 2.485 0 .662-.203 1.251-.57 1.785z" fill="#FFF" fill-rule="nonzero"/></g></svg>