<svg width="42" height="32" xmlns="http://www.w3.org/2000/svg"><g fill="none" fill-rule="evenodd"><rect width="42" height="32" rx="16" fill="#000" fill-opacity=".1"/><path d="M11.354 17.34l6.194 6.273c.258.258.594.387.93.387.335 0 .618-.155.825-.387.232-.232.36-.543.36-.904a1.29 1.29 0 0 0-.36-.903l-4.078-4.08h13.602a1.25 1.25 0 0 0 1.264-1.265c0-.723-.542-1.264-1.264-1.264H15.2l4.103-4.003c.232-.232.36-.542.36-.903s-.102-.672-.36-.904A1.315 1.315 0 0 0 18.399 9a1.11 1.11 0 0 0-.851.387l-6.194 6.196c-.027.026-.052.077-.078.103 0 .026-.026.026-.051.077-.258.336-.284.801-.13 1.163.052.155.156.31.259.413z" fill="#FFF"/></g></svg>