<?xml version="1.0" encoding="UTF-8"?>
<svg width="512px" height="512px" viewBox="0 0 512 512" version="1.1" xmlns="http://www.w3.org/2000/svg" xmlns:xlink="http://www.w3.org/1999/xlink">
    <!-- Generator: Sketch 57.1 (83088) - https://sketch.com -->
    <title>start-up</title>
    <desc>Created with Sketch.</desc>
    <defs>
        <path d="M128.658204,22.5932619 L128.021484,21.9565429 C98.7480475,-7.3168941 51.2285165,-7.3208011 21.9550785,21.9565429 C-7.3183595,51.2299799 -7.3183595,98.7495119 21.9550785,128.019043 L22.5917975,128.655762 C51.8652345,157.081543 98.9589845,157.081543 128.021485,128.019043 C157.083985,98.9604489 157.083985,51.8627929 128.658204,22.5932619 L128.658204,22.5932619 Z" id="path-1"></path>
    </defs>
    <g id="Page-1" stroke="none" stroke-width="1" fill="none" fill-rule="evenodd">
        <g id="start-up" transform="translate(0.000000, -1.000000)">
            <path d="M140.582031,190.78125 C109.03125,186.492188 72.226562,200.132812 46.820312,225.542969 L4.394531,267.96875 C-0.402344,272.765625 -1.386719,280.191406 2.011719,286.074219 C5.328125,291.878906 12.273438,294.835938 18.882812,293.066406 C45.804688,285.847656 81.4375,283.445312 90.199219,290.136719 L140.582031,190.78125 Z" id="Path" fill="#FE9371" fill-rule="nonzero"></path>
            <path d="M321.304688,372.636719 L221.804688,420.636719 C227.347656,428.1875 226.910156,452.070312 220.449219,495.804688 C219.484375,502.273438 222.828125,508.535156 228.539062,511.390625 C234.316406,514.3125 241.308594,513.183594 245.886719,508.605469 L288.3125,466.179688 C312.28125,442.210938 325.238281,405.492188 321.304688,372.636719 L321.304688,372.636719 Z" id="Path" fill="#FE5723" fill-rule="nonzero"></path>
            <path d="M236.761719,425.753906 C201.761719,444.632812 197.308594,445.695312 192.003906,449.300781 C186.0625,453.117188 178.425781,452.269531 173.335938,447.179688 L67.269531,341.113281 C62.390625,336.234375 61.332031,328.382812 65.148438,322.445312 C68.753906,317.140625 69.179688,313.746094 88.269531,277.261719 L130.273438,276.835938 L236.339844,382.902344 L236.761719,425.753906 Z" id="Path" fill="#DD73A3" fill-rule="nonzero"></path>
            <path d="M236.761719,425.753906 C201.761719,444.632812 197.308594,445.695312 192.003906,449.300781 C186.0625,453.117188 178.425781,452.269531 173.335938,447.179688 L120.300781,394.144531 L183.941406,330.507812 L236.335938,382.902344 L236.761719,425.753906 Z" id="Path" fill="#CD347A" fill-rule="nonzero"></path>
            <path d="M236.761719,425.753906 L88.269531,277.261719 C161.878906,138.316406 250.339844,51.550781 353.011719,17.613281 L425.136719,89.3125 L495.5625,159.742188 C461.625,261.988281 375.074219,351.082031 236.761719,425.753906 Z" id="Path" fill="#FFECE6" fill-rule="nonzero"></path>
            <path d="M236.761719,425.753906 L162.726562,351.71875 L425.136719,89.3125 L495.5625,159.738281 C461.625,261.988281 375.074219,351.082031 236.761719,425.753906 L236.761719,425.753906 Z" id="Path" fill="#FFDDD3" fill-rule="nonzero"></path>
            <g id="Group-2" transform="translate(250.000000, 113.000000)">
                <mask id="mask-2" fill="white">
                    <use xlink:href="#path-1"></use>
                </mask>
                <use id="Mask" fill="#78D4C7" fill-rule="nonzero" xlink:href="#path-1"></use>
                <path d="M128.429687,128.425781 C99.367187,157.488281 52.273437,157.488281 23,129.0625 L129.066406,23 C157.492187,52.269531 157.492187,99.367187 128.429687,128.425781 Z" id="Path" fill="#3DC0AE" fill-rule="nonzero" mask="url(#mask-2)"></path>
                <g id="Group" mask="url(#mask-2)">
                    <g transform="translate(26.000000, 19.000000)">
                        <path d="M7.70409091,0.323665751 L7.95136364,0.302802115 C3.45022727,0.998256661 3.55271368e-14,4.8781203 3.55271368e-14,9.57398393 L3.55271368e-14,21.5273021 C3.55271368e-14,26.2548476 3.49659091,30.1555748 8.04254545,30.812393 C8.33463636,30.8394385 8.62595455,30.8664839 8.91340909,30.8958476 C48.0010455,34.9557567 42.8175909,65.8215748 42.8175909,65.8215748 L12.9122727,65.6229839 C12.6101364,65.5998021 12.308,65.5766203 11.9996818,65.5766203 C11.7632273,65.5766203 11.5329545,65.5990294 11.2995909,65.6121658 C5.00495455,65.976893 0.00927272727,71.1812112 0.00927272727,77.5670294 C0.0072046029,87.9133386 0.00565350963,95.6730705 0.00461944744,100.846225 C0.00359290357,105.981767 0.00205308775,113.685081 3.55271368e-14,123.956166 C3.55271368e-14,130.578438 5.36813636,135.946575 11.9904091,135.946575 L85.5532727,135.946575 C92.1755455,135.946575 97.5436818,130.578438 97.5436818,123.956166 L97.5436818,108.912711 L97.5436818,97.3206336 L97.5436818,90.0983476 L97.5436818,66.1855294 C97.5436818,0.969665751 31.6694545,-1.09506152 8.19477273,0.238665751 L7.70409091,0.323665751 Z" id="Fill-23-Copy" fill="#FFCF01"></path>
                        <path d="M67.5825727,95.8088794 C57.7488455,93.942743 52.8088,104.094061 37.1463909,102.333016 C37.1463909,102.333016 25.8916182,100.91197 30.1083909,110.937334 C34.3243909,120.962698 54.1834818,129.421743 63.6586636,117.956788 C73.1346182,106.491834 77.4170727,97.6750158 67.5825727,95.8088794" id="Fill-25-Copy" fill="#EE4364"></path>
                        <path d="M67.1332318,78.6921976 C63.7255045,78.4294703 60.3795955,79.6387885 57.89605,82.1779703 L57.8968227,82.1779703 C57.5282318,82.3626521 57.2369136,82.7582885 57.0275045,83.1601067 C56.3359136,84.1561521 56.0167773,86.0253794 56.2524591,87.5105612 C56.5770045,89.0026976 57.3335045,89.4794703 58.0088682,88.6951521 C59.9661864,86.1165612 63.3290955,84.694743 66.65105,84.9505158 C69.9737773,85.2070612 73.0785955,87.1265158 74.6178682,89.9747885 C75.1688227,90.8533794 76.0744591,90.5056521 76.5350045,89.0730158 C76.9970955,87.6334248 76.9831864,85.5339248 76.4360955,84.6553339 C74.5081409,81.1456067 70.9783227,78.9881521 67.1332318,78.6921976" id="Fill-27-Copy" fill="#000000"></path>
                        <path d="M43.2333955,87.5569248 C43.78435,88.4355158 44.6899864,88.0870158 45.1505318,86.6551521 C45.6126227,85.2147885 45.5987136,83.1152885 45.0516227,82.2374703 C43.1236682,78.727743 39.59385,76.5702885 35.7487591,76.2743339 C32.3410318,76.0116067 28.9951227,77.2209248 26.5115773,79.7593339 L26.5115773,79.7593339 C26.2364864,79.951743 25.8524409,80.3404248 25.6430318,80.742243 C24.9514409,81.7382885 24.6323045,83.606743 24.8679864,85.0926976 C25.1925318,86.5848339 25.9490318,87.0616067 26.6243955,86.2772885 C28.5817136,83.6979248 31.9446227,82.2768794 35.2665773,82.5326521 C38.5893045,82.7884248 41.6941227,84.7086521 43.2333955,87.5569248" id="Fill-29-Copy" fill="#000000"></path>
                    </g>
                </g>
            </g>
            <path d="M495.5625,159.738281 C463.109375,157.40625 428.320312,142.132812 400.105469,114.34375 L399.46875,113.707031 C371.042969,85.28125 355.132812,50.277344 353.011719,17.609375 C362.769531,14.214844 372.738281,11.457031 382.710938,9.125 C418.984375,0.851562 456.957031,-1.058594 496.414062,3.1875 C500.230469,3.609375 503.835938,5.519531 505.957031,8.488281 C508.078125,10.609375 509.566406,13.367188 509.777344,16.550781 C514.234375,55.792969 511.898438,93.765625 503.625,130.039062 C501.292969,140.011719 498.746094,149.769531 495.5625,159.738281 L495.5625,159.738281 Z" id="Path" fill="#FE9371" fill-rule="nonzero"></path>
            <path d="M495.5625,159.738281 C463.109375,157.40625 428.320312,142.132812 400.105469,114.34375 L505.957031,8.488281 C508.078125,10.609375 509.5625,13.367188 509.777344,16.550781 C514.230469,55.796875 511.898438,93.765625 503.625,130.039062 C501.292969,140.011719 498.746094,149.769531 495.5625,159.738281 L495.5625,159.738281 Z" id="Path" fill="#FE5723" fill-rule="nonzero"></path>
            <path d="M234.214844,293.808594 C234.003906,290.199219 232.519531,287.019531 229.972656,284.472656 C227.425781,281.078125 223.398438,278.746094 219.15625,278.746094 C164,278.320312 151.695312,297.835938 148.515625,301.019531 C56.664062,392.871094 55.601562,438.058594 55.601562,442.722656 C55.8125,446.753906 57.296875,450.363281 60.054688,453.117188 C60.265625,453.328125 60.480469,453.542969 60.90625,453.542969 C63.027344,455.664062 65.996094,456.9375 69.175781,457.148438 C76.8125,457.996094 119.875,456.9375 212.152344,364.660156 C232.945312,343.871094 234.429688,324.566406 234.214844,293.808594 Z" id="Path" fill="#FE9371" fill-rule="nonzero"></path>
            <path d="M234.214844,293.808594 C234.429688,324.566406 232.945312,343.871094 212.152344,364.660156 C119.875,456.9375 76.8125,457.996094 69.179688,457.148438 C65.996094,456.9375 63.027344,455.664062 60.90625,453.542969 L229.976562,284.472656 C232.519531,287.019531 234.003906,290.199219 234.214844,293.808594 Z" id="Path" fill="#FE5723" fill-rule="nonzero"></path>
        </g>
    </g>
</svg>