<svg width="199" height="69" xmlns="http://www.w3.org/2000/svg"><defs><rect id="b" width="197" height="50" rx="25"/><filter x="-.8%" y="-3%" width="102.5%" height="112%" filterUnits="objectBoundingBox" id="a"><feOffset dx="2" dy="3" in="SourceAlpha" result="shadowOffsetOuter1"/><feColorMatrix values="0 0 0 0 0 0 0 0 0 0 0 0 0 0 0 0 0 0 0.206889719 0" in="shadowOffsetOuter1"/></filter><linearGradient x1="0%" y1="0%" y2="100%" id="c"><stop stop-color="#23BCBA" offset="0%"/><stop stop-color="#45E994" offset="100%"/></linearGradient></defs><g fill="none" fill-rule="evenodd"><g transform="translate(0 16)"><use fill="#000" filter="url(#a)" href="#b"/><use fill="#3DC0AE" href="#b"/><rect fill="url(#c)" width="197" height="45" rx="22.5"/></g><text font-family="ArialRoundedMTBold, Arial Rounded MT Bold" font-size="20" fill="#FFF" transform="translate(0 -4)"><tspan x="26.624" y="47">Next Hunt</tspan></text><path fill="#411C00" d="M150.451 25.589l2.508-2.912 1.531.298 1.585.705 3.386-.732 1.166 1.154 5.522-1.84.923 1.04 1.978.385.266 2.38.884.558.666 2.932 5.784-12.272-26.603-5.17z"/><path fill="#FDBB11" d="M169.316 26.067l-.266-2.38-1.978-.385-.923-1.04-5.522 1.84-1.166-1.154-3.387.732-1.584-.705-1.531-.298-2.508 2.912-6.188 5.947 14.96 3.879 15.901 2.208-4.258-8.066-.666-2.932z"/><path fill="#7A441B" d="M156.759 45.309l-.603.147-.332.686.066.454-.475.857.325.372.752-.803.5-.079.47-.483-.051-.76zM160.544 43.264l-.428-1.375-.966-.65-1.622.677-.694 1.23 2.579 2.12.691-.764z"/><path fill="#7A441B" d="M140.441 50.744l15.012 4.065 15.34 1.923 4.444-13.705-13.868-1.77.544.584.098 1.708-.718 1.648-.741 1.004.385.317-2.628 3.13-.9.72-1.166.203-1.563-.304-1.581-1.4-.492-1.386.44-2.265 2.667-2.99.221.181.06-.094 1.16-1.727-15.691-4.49z"/><path fill="#562C05" d="M176.65 17.285l-5.784 12.272 4.258 8.066-15.901-2.208-14.96-3.879 6.188-5.947-.404-13.475-2.233-.434 1.414 13.67-7.892 5.352-.652 5.17.78.223 15.691 4.49.02-.029 1.85-.435 1.574.306.77.83 13.868 1.77 1.277.163 1.075-5.53-4.937-7.756 6.614-12.11z"/><path d="M156.834 43.146l.694-1.23 1.622-.678.966.651.428 1.375-.44 1.238-.691.763-2.579-2.119zm.159 3.797l-.501.08-.752.802-.325-.372.475-.857-.066-.454.332-.686.603-.147.652.391.05.76-.468.483zm-1.058-4.536l-.221-.181-2.667 2.99-.44 2.265.492 1.387 1.581 1.4 1.563.303 1.165-.204.902-.718 2.627-3.131-.385-.317.742-1.004.717-1.648-.098-1.708-.544-.584-.77-.83-1.574-.306-1.85.435-.02.03-1.16 1.727-.06.094z" fill="#FDBB11"/><path fill="#7A441B" d="M168.517 10.077L157.33 8.366l-8.219.388-1.297 2.926 2.233.434 26.603 5.171 2.616.509-.286-3.3z"/><path fill="#FFF" d="M185.186 36.368l-1.852-.36.359-1.846-1.026-.2-.36 1.846-1.852-.36-.198 1.023 1.852.36-.359 1.846 1.027.199.358-1.846 1.853.36z"/><path fill="#FFD34D" d="M179.908 7.523l-1.853-.36.36-1.846-1.027-.2-.359 1.846-1.852-.36-.2 1.023 1.853.36-.359 1.846 1.027.2.359-1.847 1.852.36z"/><path fill="#FFF" d="M142.56 20.896l-1.976-.384.372-1.914-1.096-.213-.372 1.914-1.976-.384-.207 1.06 1.977.385-.372 1.914 1.095.213.372-1.914 1.977.384z"/><path d="M136.857 23.231c-.105.54-.637.89-1.189.783a1.006 1.006 0 0 1-.809-1.17c.105-.54.637-.89 1.189-.783.552.107.914.631.809 1.17M155.41 4.627c-.142.727-.862 1.2-1.609 1.054-.747-.145-1.238-.852-1.096-1.58.141-.727.861-1.2 1.608-1.054.747.145 1.238.852 1.096 1.58" fill="#FFD34D"/><path d="M160.208 2.962c-.655-.128-1.086-.748-.961-1.386.124-.639.755-1.052 1.41-.925.656.127 1.087.748.963 1.386-.125.638-.756 1.052-1.412.925z" fill="#FFC600"/><path d="M178.982 28.382c-.145.748-.887 1.234-1.656 1.084-.77-.15-1.276-.877-1.13-1.626.145-.748.887-1.233 1.657-1.084.77.15 1.275.878 1.13 1.626" fill="#FFD34D"/><path d="M183.852 24.535c-.123.632-.748 1.041-1.398.915-.649-.126-1.076-.74-.953-1.372.123-.631.748-1.04 1.398-.915.649.126 1.076.74.953 1.372" fill="#FFC600"/></g></svg>