<?xml version="1.0" encoding="UTF-8"?>
<svg width="512px" height="512px" viewBox="0 0 512 512" version="1.1" xmlns="http://www.w3.org/2000/svg" xmlns:xlink="http://www.w3.org/1999/xlink">
    <!-- Generator: Sketch 57.1 (83088) - https://sketch.com -->
    <title>Artboard</title>
    <desc>Created with Sketch.</desc>
    <g id="Artboard" stroke="none" stroke-width="1" fill="none" fill-rule="evenodd">
        <g id="Group" transform="translate(79.000000, 0.000000)">
            <path d="M39.3117784,477.720377 C37.8372187,463.394059 31.7166186,404.966943 30.075915,336.193621 C29.9584445,331.269614 23.5944132,323.262767 11.6100419,286.65909 C-0.374329441,250.055413 -0.374329441,218.490462 0.177968351,212.473186 C0.475270562,209.234083 1.90152006,193.363444 11.6100419,182.210673 C20.4822681,172.018606 40.7451858,162.747908 40.8296537,162.026812 C47.3616476,106.263699 52.8523671,76.4364954 58.6631573,61.3005607 C66.3519387,41.2728385 118.393494,0.0104687963 176.349603,0.0104687963 C178.758187,0.00712566984 230.35519,-1.4834025 269.376363,32.4535613 C277.080118,39.1535659 283.789195,45.994574 287.846508,54.6218069 C290.27377,59.7829955 294.382275,77.2908637 298.316886,99.8061787 C298.615258,101.513574 317.857437,104.729621 325.43946,109.725484 C359.015558,131.84908 354.214741,187.669692 354.214741,198.938967 C354.214741,219.739991 351.936906,245.551838 341.70708,278.724463 C331.477253,311.897088 326.195634,325.122119 320.618724,343.035494 C319.350389,347.109465 317.823544,349.285074 317.800542,350.763789 C317.135079,393.544944 314.654467,442.280094 307.957335,481.859294 C305.701972,495.188201 284.933784,502.01265 255.983893,506.360826 C225.505183,510.938626 188.312703,511.628446 178.969592,511.628446 C169.751408,511.628446 123.935885,510.451735 99.7397661,506.360826 C89.7746401,504.675993 69.2829076,500.120146 58.6631573,495.188201 C43.4973094,488.144991 39.5681255,480.210958 39.3117784,477.720377 Z" id="Path" fill="#FFD001"></path>
            <path d="M123.79186,244.618232 C156.351615,233.788814 208.555905,237.813329 226.892984,247.54673 C245.230062,257.280132 271.472146,274.688712 266.350593,332.258681 C261.229041,389.828651 222.553031,418.986975 177.226072,420.78575 C131.899112,422.584524 84.4394597,391.806179 77.5824627,337.606996 C70.7254658,283.407813 91.2321052,255.44765 123.79186,244.618232 Z" id="Path-2" fill="#4ABFAD"></path>
            <path d="M212.45265,130.935582 C187.888764,130.651347 180.304178,157.309596 141.67814,159.792912 C141.67814,159.792912 113.867991,161.184168 128.363975,183.608812 C142.859959,206.033456 194.500967,218.016204 212.482569,186.166926 C230.464172,154.317649 237.031496,131.234776 212.45265,130.935582 Z" id="Path" fill="#EF4364" fill-rule="nonzero"></path>
            <path d="M201.41577,86.1055101 C192.974114,86.9209217 185.337567,91.4633503 180.591818,98.4921714 L180.591818,98.4921714 C179.752592,99.214096 179.152619,100.174054 178.871448,101.244763 C177.645821,104.756156 177.645821,108.579178 178.871448,112.090571 C180.292623,115.56123 182.327147,116.384015 183.628644,114.199894 C187.555807,107.022194 194.773651,102.246416 202.915474,101.438517 C211.057297,100.630619 219.072932,103.894806 224.334086,110.160765 C226.039496,112.045692 228.07402,110.818994 228.567691,107.168818 C229.061362,103.518643 228.238577,98.402413 226.473328,96.5174863 C220.42356,89.0266111 210.992703,85.1078786 201.41577,86.1055101 Z" id="Path" fill="#000000" fill-rule="nonzero"></path>
            <path d="M153.71647,117.996417 C155.42188,119.881344 157.456404,118.654646 157.965035,115.00447 C158.473666,111.354295 157.516243,106.253025 155.825793,104.353138 C150.115323,97.3385058 141.426135,93.4345926 132.389362,93.8235245 C123.352589,94.2124564 115.03095,98.8484951 109.944283,106.327823 L109.944283,106.327823 C109.19243,107.112723 108.620667,108.052049 108.268793,109.080415 C107.043165,112.591808 107.043165,116.41483 108.268793,119.926223 C109.764766,123.396882 111.739451,124.234627 113.025989,122.035546 C116.954471,114.863887 124.168874,110.092771 132.306026,109.285039 C140.443177,108.477307 148.454758,111.73702 153.71647,117.996417 L153.71647,117.996417 Z" id="Path" fill="#000000" fill-rule="nonzero"></path>
        </g>
    </g>
</svg>