<?xml version="1.0" encoding="UTF-8"?>
<svg width="512px" height="512px" viewBox="0 0 512 512" version="1.1" xmlns="http://www.w3.org/2000/svg" xmlns:xlink="http://www.w3.org/1999/xlink">
    <!-- Generator: Sketch 57.1 (83088) - https://sketch.com -->
    <title>Artboard</title>
    <desc>Created with Sketch.</desc>
    <g id="Artboard" stroke="none" stroke-width="1" fill="none" fill-rule="evenodd">
        <g id="Group" transform="translate(334.000000, 127.000000)">
            <path d="M19.7344819,239.815255 C18.9942541,232.623455 15.9217177,203.293088 15.0980858,168.768934 C15.0391157,166.297087 11.844377,162.277656 5.82823193,143.902638 C-0.187913086,125.527621 -0.187913086,109.682041 0.0893399729,106.661373 C0.23858545,105.035346 0.954561579,97.0682974 5.82823193,91.4696151 C10.2820825,86.3532054 20.4540514,81.6993223 20.4964542,81.3373327 C23.77551,53.3442937 26.5318469,38.3710608 29.448859,30.7728335 C33.3086212,20.7189326 59.4334414,0.00525532753 88.5273625,0.00525532753 C89.7364696,0.00357708068 115.638125,-0.744666893 135.226723,16.2916624 C139.094002,19.6550594 142.461953,23.0892401 144.498721,27.4201043 C145.717205,30.0110169 147.779671,38.799953 149.754843,50.1026235 C149.904625,50.9597348 159.564184,52.5741874 163.370354,55.0821071 C180.225529,66.1881347 177.815522,94.2100384 177.815522,99.8672057 C177.815522,110.309304 176.672051,123.26683 171.536686,139.919462 C166.401321,156.572094 163.749953,163.211049 160.950348,172.203549 C160.313645,174.248679 159.54717,175.340833 159.535623,176.083147 C159.201561,197.559253 157.956296,222.02426 154.594341,241.892988 C153.462151,248.584089 143.036536,252.009957 128.503714,254.192738 C113.203425,256.49079 94.5328294,256.837079 89.8425952,256.837079 C85.215074,256.837079 62.215717,256.246371 50.0692844,254.192738 C45.066799,253.346953 34.7799653,251.059922 29.448859,248.584089 C21.8356152,245.048403 19.863168,241.065525 19.7344819,239.815255 Z" id="Path" fill="#FFD001"></path>
            <path d="M62.1434168,122.798161 C78.4883882,117.361801 104.694901,119.382105 113.9001,124.268265 C123.105299,129.154425 136.278805,137.893518 133.707789,166.793598 C131.136774,195.693677 111.721447,210.331133 88.9673491,211.234117 C66.2132511,212.1371 42.3885426,196.686395 38.9463355,169.478447 C35.5041284,142.2705 45.7984453,128.23452 62.1434168,122.798161 Z" id="Path-2" fill="#4ABFAD"></path>
            <path d="M106.651064,65.7295594 C94.3200122,65.5868736 90.5125559,78.9692939 71.1223151,80.2159167 C71.1223151,80.2159167 57.1616421,80.9143258 64.4386148,92.1714795 C71.7155874,103.428633 97.639333,109.443964 106.666083,93.4556512 C115.692834,77.4673388 118.989625,65.8797549 106.651064,65.7295594 Z" id="Path" fill="#EF4364" fill-rule="nonzero"></path>
            <path d="M101.110559,43.2248986 C96.872854,43.6342346 93.0393135,45.9145302 90.6569512,49.4429929 L90.6569512,49.4429929 C90.2356606,49.8053985 89.9344743,50.2872964 89.793327,50.8247916 C89.1780629,52.5875082 89.1780629,54.5066623 89.793327,56.269379 C90.5067557,58.0116469 91.5280852,58.4246846 92.1814357,57.3282573 C94.1528684,53.7250577 97.7762202,51.3276207 101.863409,50.9220562 C105.950598,50.5164917 109.97444,52.1551111 112.615535,55.3006179 C113.47165,56.2468496 114.492979,55.631048 114.740802,53.7986628 C114.988624,51.9662775 114.575587,49.3979342 113.689433,48.4517025 C110.652455,44.691289 105.918171,42.7240884 101.110559,43.2248986 Z" id="Path" fill="#000000" fill-rule="nonzero"></path>
            <path d="M77.1655476,59.234109 C78.021662,60.1803407 79.0429915,59.5645391 79.2983239,57.7321539 C79.5536563,55.8997686 79.0730306,53.3389351 78.224426,52.3851936 C75.3577745,48.8638536 70.995809,46.9040923 66.459356,47.0993358 C61.922903,47.2945793 57.745447,49.6218671 55.191944,53.376484 L55.191944,53.376484 C54.8145144,53.7705032 54.5274895,54.242044 54.3508491,54.7582827 C53.735585,56.5209994 53.735585,58.4401534 54.3508491,60.2028701 C55.1018267,61.945138 56.0931171,62.3656855 56.7389578,61.2617484 C58.7110529,57.6615811 62.3326773,55.2664847 66.4175212,54.8610039 C70.502365,54.455523 74.5241721,56.0918965 77.1655476,59.234109 L77.1655476,59.234109 Z" id="Path" fill="#000000" fill-rule="nonzero"></path>
        </g>
        <g id="Group-3" transform="translate(157.000000, 119.000000)" stroke="#00A887" stroke-linecap="round" stroke-width="8">
            <g id="Group-2">
                <path d="M0,31 C40.1289062,-13.6132813 125.105469,-7.65625 153,42" id="Path-3"></path>
            </g>
            <path d="M130.273438,39.5172191 L152.123719,42.8259036 C152.669779,42.9085908 153.179479,42.5329532 153.262166,41.9868934 C153.26967,41.9373402 153.273438,41.887293 153.273438,41.8371749 L153.273438,19 L153.273438,19" id="Path-4"></path>
        </g>
        <path d="M4.80485282,353.923333 L11.1686981,353.923333 L11.1686981,379.881667 C11.1686981,382.156667 13.3180943,384 15.9735509,384 C18.623566,384 20.7729622,382.156667 20.7729622,379.881667 L20.7729622,353.923333 L41.4452566,353.923333 L41.4452566,379.881667 C41.4452566,382.156667 43.591932,384 46.2446679,384 C48.8974037,384 51.0467999,382.156667 51.0467999,379.881667 L51.0467999,353.923333 L57.4160867,353.923333 C60.0688226,353.923333 62.2182188,352.08 62.2182188,349.805 L62.2182188,302.186333 C62.2182188,299.909 60.0688226,298.065667 57.4160867,298.065667 L35.9139622,298.065667 L35.9139622,231.467667 C35.9139622,219.92 46.8677207,210.521333 60.340898,210.521333 C73.8059131,210.521333 84.7623923,219.917667 84.7623923,231.467667 L84.7623923,322.773333 C84.7623923,338.864 100.028547,351.954 118.790872,351.954 C137.553196,351.954 152.819351,338.864 152.819351,322.773333 L152.819351,256.173 L167.013528,256.173 C169.666264,256.173 171.81566,254.329667 171.81566,252.054667 L171.81566,205.689 C171.81566,203.414 169.666264,201.570667 167.013528,201.570667 L164.507713,201.570667 L164.507713,178.118333 C164.499551,175.843333 162.352875,174 159.700139,174 L136.317973,174 C133.665238,174 131.515841,175.843333 131.515841,178.118333 L131.515841,201.570667 L129.010026,201.570667 C126.35729,201.570667 124.205173,203.414 124.205173,205.689 L124.205173,252.057 C124.205173,254.332 126.35729,256.175333 129.010026,256.175333 L143.204204,256.175333 L143.204204,322.773333 C143.204204,334.323333 132.250445,343.719667 118.779989,343.719667 C105.309532,343.719667 94.3557735,334.325667 94.3557735,322.773333 L94.3557735,231.467667 C94.3557735,215.377 79.0923395,202.287 60.330015,202.287 C41.5676905,202.287 26.3015358,215.377 26.3015358,231.467667 L26.3015358,298.065667 L4.80213207,298.065667 C2.14939622,298.065667 0,299.909 0,302.186333 L0,349.807333 C0.00544150943,352.08 2.15483773,353.923333 4.80485282,353.923333 Z M154.898007,182.234333 L154.898007,201.570667 L141.120105,201.570667 L141.120105,182.234333 L154.898007,182.234333 Z M133.812158,247.938667 L133.812158,209.805 L162.203234,209.805 L162.203234,247.938667 L133.812158,247.938667 Z M9.60698489,306.3 L52.6112339,306.3 L52.6112339,345.686667 L9.60698489,345.686667 L9.60698489,306.3 Z" id="Shape" fill="#525350" fill-rule="nonzero"></path>
    </g>
</svg>