<svg width="36" height="49" xmlns="http://www.w3.org/2000/svg"><g fill="none" fill-rule="evenodd"><path d="M31.732 13.626c18.842 47.136-47.152 47.136-28.31 0 7.25-18.168 21.01-18.168 28.31 0" fill-opacity=".3" fill="#4A4A4A"/><g fill="#FFF"><path d="M24.996 18.383a7.476 7.476 0 0 1-1.382 4.562 7.728 7.728 0 0 1-3.89 2.853s-.227.08-.227.211v1.772-.002c0 1.227-1.015 2.221-2.267 2.221-1.253 0-2.268-.995-2.268-2.22v-1.772c.021-2.014 1.352-3.79 3.306-4.416 1.336-.45 2.217-1.696 2.176-3.077-.092-1.704-1.518-3.046-3.26-3.07a3.223 3.223 0 0 0-2.87 1.792c-.544 1.106-1.9 1.57-3.029 1.038s-1.604-1.86-1.06-2.966a7.618 7.618 0 0 1 2.839-3.134A7.841 7.841 0 0 1 17.17 11h.046a7.916 7.916 0 0 1 5.406 2.161 7.598 7.598 0 0 1 2.375 5.222zM17.5 32a2.5 2.5 0 1 0 0 5.002 2.5 2.5 0 0 0 0-5.002z"/></g></g></svg>