<?xml version="1.0" encoding="UTF-8"?>
<svg width="512px" height="512px" viewBox="0 0 512 512" version="1.1" xmlns="http://www.w3.org/2000/svg" xmlns:xlink="http://www.w3.org/1999/xlink">
    <!-- Generator: Sketch 57.1 (83088) - https://sketch.com -->
    <title>Artboard</title>
    <desc>Created with Sketch.</desc>
    <defs>
        <polygon id="path-1" points="0 0 20.4361739 0 20.4361739 20.866087 0 20.866087"></polygon>
    </defs>
    <g id="Artboard" stroke="none" stroke-width="1" fill="none" fill-rule="evenodd">
        <rect id="Rectangle" fill="#0378D6" x="0" y="0" width="512" height="512"></rect>
        <g id="Group" transform="translate(112.000000, 0.000000)">
            <rect id="Rectangle" fill="#FFFFFF" fill-rule="nonzero" x="0" y="0" width="288" height="512"></rect>
            <rect id="Rectangle" fill="#3DC0AE" fill-rule="nonzero" x="0" y="0" width="288" height="55.6521739"></rect>
            <polygon id="Path" fill="#FFFFFF" fill-rule="nonzero" points="27.826087 39.6521739 19.36 39.6521739 23.2486957 35.7634783 22.2608696 34.7826087 16.6956522 40.3478261 22.2608696 45.9130435 23.2417391 44.9321739 19.36 41.0434783 27.826087 41.0434783"></polygon>
            <path d="M114.29913,39.6630261 C114.29913,39.3550609 114.189913,39.1195826 113.97287,38.9565217 C113.75513,38.7898435 113.364174,38.6159304 112.798609,38.4347826 C112.233739,38.2500174 111.786435,38.0688696 111.456696,37.8913391 C110.557913,37.4057739 110.108522,36.7517913 110.108522,35.9293217 C110.108522,35.5018435 110.228174,35.1213913 110.467478,34.7880348 C110.710261,34.4510609 111.056,34.1883826 111.505391,34 C111.958261,33.8116174 112.465391,33.7174261 113.027478,33.7174261 C113.592348,33.7174261 114.096,33.8206609 114.537739,34.0272 C114.980174,34.2300522 115.322435,34.5181217 115.565217,34.8912696 C115.811478,35.264487 115.934609,35.6884174 115.934609,36.1630609 L114.304,36.1630609 C114.304,35.8006957 114.189913,35.5199304 113.961739,35.3206261 C113.733565,35.1177739 113.41287,35.0162783 113.000348,35.0162783 C112.601739,35.0162783 112.291478,35.1014261 112.070957,35.2717217 C111.849739,35.4384 111.73913,35.6594087 111.73913,35.9347478 C111.73913,36.192 111.867826,36.4075826 112.125217,36.5814957 C112.386087,36.7554087 112.768,36.9184696 113.271652,37.0706783 C114.198957,37.3496348 114.87513,37.6956522 115.298783,38.1086609 C115.72313,38.5217391 115.934609,39.0362435 115.934609,39.6521739 C115.934609,40.3369739 115.675826,40.8749913 115.157565,41.2662957 C114.639304,41.6539826 113.942261,41.8477913 113.065043,41.8477913 C112.456348,41.8477913 111.901913,41.7373217 111.402435,41.516313 C110.902261,41.291687 110.519652,40.9855304 110.255304,40.5978435 C109.994435,40.2101565 109.864348,39.7608348 109.864348,39.2500174 L111.499826,39.2500174 C111.499826,40.1232 112.021565,40.5597913 113.065043,40.5597913 C113.453217,40.5597913 113.75513,40.4818783 113.97287,40.3261217 C114.189913,40.1666783 114.29913,39.9456696 114.29913,39.6630261 Z M119.646609,41.8477913 C118.784696,41.8477913 118.081391,41.5833043 117.538087,41.0543304 C116.998261,40.5253565 116.728348,39.8206609 116.728348,38.9402435 L116.728348,38.7880348 C116.728348,38.1974957 116.842435,37.6702609 117.070609,37.2065391 C117.298783,36.7391304 117.621565,36.3804522 118.038261,36.1304348 C118.458435,35.8768 118.936348,35.7499826 119.472696,35.7499826 C120.27687,35.7499826 120.909217,36.0036174 121.369739,36.510887 C121.833043,37.018087 122.065391,37.7373217 122.065391,38.6684522 L122.065391,39.3097739 L118.320696,39.3097739 C118.371478,39.6938435 118.523826,40.0018087 118.777043,40.2336696 C119.034435,40.4656 119.358609,40.5814957 119.750261,40.5814957 C120.354783,40.5814957 120.827826,40.3622957 121.168696,39.9238957 L121.940174,40.7880348 C121.705043,41.1213913 121.385739,41.3822609 120.983652,41.5706435 C120.581565,41.7554087 120.135652,41.8477913 119.646609,41.8477913 Z M119.46713,37.0217739 C119.155478,37.0217739 118.902261,37.1268174 118.706783,37.3369739 C118.514783,37.5471304 118.391652,37.8477913 118.336696,38.2391652 L120.521739,38.2391652 L120.521739,38.1141565 C120.514783,37.7663304 120.420174,37.4981565 120.239304,37.3097739 C120.057739,37.1177739 119.801043,37.0217739 119.46713,37.0217739 Z M124.619826,41.7391304 L123.043478,41.7391304 L123.043478,33.3913043 L124.619826,33.3913043 L124.619826,41.7391304 Z M128.624696,41.8477913 C127.762783,41.8477913 127.059478,41.5833043 126.516174,41.0543304 C125.976348,40.5253565 125.706435,39.8206609 125.706435,38.9402435 L125.706435,38.7880348 C125.706435,38.1974957 125.820522,37.6702609 126.048696,37.2065391 C126.27687,36.7391304 126.599652,36.3804522 127.016348,36.1304348 C127.436522,35.8768 127.91513,35.7499826 128.450783,35.7499826 C129.255652,35.7499826 129.888,36.0036174 130.347826,36.510887 C130.811826,37.018087 131.043478,37.7373217 131.043478,38.6684522 L131.043478,39.3097739 L127.298783,39.3097739 C127.349565,39.6938435 127.501913,40.0018087 127.75513,40.2336696 C128.012522,40.4656 128.336696,40.5814957 128.728348,40.5814957 C129.333565,40.5814957 129.805913,40.3622957 130.146783,39.9238957 L130.918261,40.7880348 C130.68313,41.1213913 130.363826,41.3822609 129.961739,41.5706435 C129.559652,41.7554087 129.114435,41.8477913 128.624696,41.8477913 Z M128.445913,37.0217739 C128.134261,37.0217739 127.880348,37.1268174 127.68487,37.3369739 C127.49287,37.5471304 127.369739,37.8477913 127.315478,38.2391652 L129.499826,38.2391652 L129.499826,38.1141565 C129.49287,37.7663304 129.398261,37.4981565 129.217391,37.3097739 C129.036522,37.1177739 128.77913,37.0217739 128.445913,37.0217739 Z M134.386087,40.5814957 C134.675478,40.5814957 134.911304,40.5018435 135.092174,40.3424 C135.273739,40.1829565 135.367652,39.9709913 135.375304,39.7065043 L136.848,39.7065043 C136.844522,40.1050435 136.735304,40.4710261 136.521739,40.804313 C136.308174,41.1340522 136.014609,41.3913043 135.641043,41.5760696 C135.271652,41.7572174 134.862609,41.8477913 134.413217,41.8477913 C133.572174,41.8477913 132.909217,41.5814957 132.423652,41.0489043 C131.938087,40.5126957 131.695304,39.7735652 131.695304,38.831513 L131.695304,38.7282783 C131.695304,37.8224696 131.936696,37.0996174 132.418783,36.5597913 C132.900174,36.0198957 133.561739,35.7499826 134.402087,35.7499826 C135.137391,35.7499826 135.726609,35.9601391 136.168348,36.3804522 C136.614261,36.7970783 136.840348,37.3532522 136.848,38.0489043 L135.375304,38.0489043 C135.367652,37.7445565 135.273739,37.4981565 135.092174,37.3097739 C134.911304,37.1177739 134.672,37.0217739 134.374957,37.0217739 C134.009043,37.0217739 133.732174,37.1558261 133.543652,37.4239304 C133.358609,37.6884174 133.266087,38.1195826 133.266087,38.7173565 L133.266087,38.8804174 C133.266087,39.4854957 133.358609,39.9202783 133.543652,40.1847652 C133.728,40.4492522 134.009043,40.5814957 134.386087,40.5814957 Z M139.625043,34.4130783 L139.625043,35.858713 L140.630261,35.858713 L140.630261,37.0108522 L139.625043,37.0108522 L139.625043,39.9456696 C139.625043,40.1630609 139.666783,40.3188174 139.750261,40.4130783 C139.833043,40.5072696 139.993043,40.5543652 140.228174,40.5543652 C140.402087,40.5543652 140.555826,40.5416348 140.690087,40.516313 L140.690087,41.7065043 C140.381913,41.8006957 140.065391,41.8477913 139.73913,41.8477913 C138.637913,41.8477913 138.075826,41.291687 138.054261,40.1793391 L138.054261,37.0108522 L137.195826,37.0108522 L137.195826,35.858713 L138.054261,35.858713 L138.054261,34.4130783 L139.625043,34.4130783 Z M147.68487,41.7391304 C147.612522,41.5978435 147.559652,41.4221217 147.526957,41.2119652 C147.146435,41.6358957 146.651826,41.8477913 146.043826,41.8477913 C145.46713,41.8477913 144.989217,41.6811826 144.608696,41.3478261 C144.231652,41.0144696 144.04313,40.5942261 144.04313,40.0869565 C144.04313,39.4637913 144.273391,38.9855304 144.733913,38.6521739 C145.197217,38.3188174 145.865739,38.1503304 146.739478,38.146713 L147.462261,38.146713 L147.462261,37.8098087 C147.462261,37.5380174 147.391304,37.3206261 147.250087,37.1576348 C147.112348,36.9945739 146.893217,36.9130435 146.592696,36.9130435 C146.327652,36.9130435 146.119652,36.9764174 145.967304,37.1032348 C145.81913,37.2300522 145.744696,37.4039652 145.744696,37.6249739 L144.173913,37.6249739 C144.173913,37.2844522 144.278957,36.9691826 144.489043,36.6793739 C144.69913,36.3894957 144.996174,36.1630609 145.380174,36 C145.764174,35.8333217 146.195478,35.7499826 146.674087,35.7499826 C147.398261,35.7499826 147.97287,35.9329391 148.396522,36.2989217 C148.824348,36.6612174 149.037913,37.1721043 149.037913,37.831513 L149.037913,40.3804522 C149.041391,40.9384348 149.119304,41.360487 149.271652,41.6467478 L149.271652,41.7391304 L147.68487,41.7391304 Z M146.386087,40.6467478 C146.617739,40.6467478 146.831304,40.5960348 147.027478,40.4945391 C147.222957,40.3894957 147.367652,40.2500174 147.462261,40.0761043 L147.462261,39.0651826 L146.87513,39.0651826 C146.089043,39.0651826 145.670261,39.3369739 145.619478,39.8804174 L145.613913,39.9728 C145.613913,40.168487 145.682783,40.3297391 145.820522,40.456487 C145.958261,40.5833043 146.146783,40.6467478 146.386087,40.6467478 Z M156.320696,37.3315478 C156.10713,37.3025391 155.918609,37.2880696 155.75513,37.2880696 C155.161043,37.2880696 154.771478,37.489113 154.58713,37.8913391 L154.58713,41.7391304 L153.016348,41.7391304 L153.016348,35.858713 L154.500174,35.858713 L154.543304,36.5597913 C154.858435,36.0198957 155.295304,35.7499826 155.853217,35.7499826 C156.02713,35.7499826 156.189913,35.7735652 156.342261,35.8206609 L156.320696,37.3315478 Z M156.641391,38.7445565 C156.641391,38.1612522 156.753391,37.6413217 156.978087,37.1847652 C157.202783,36.7282783 157.525565,36.3750261 157.945739,36.1250087 C158.369391,35.8749913 158.860522,35.7499826 159.418435,35.7499826 C160.212174,35.7499826 160.858435,35.9927652 161.358609,36.4782609 C161.862261,36.9637565 162.143304,37.6231652 162.201043,38.456487 L162.212174,38.858713 C162.212174,39.7608348 161.960348,40.4854957 161.456696,41.0326261 C160.953043,41.5760696 160.27687,41.8477913 159.429565,41.8477913 C158.581565,41.8477913 157.904,41.5760696 157.39687,41.0326261 C156.893217,40.489113 156.641391,39.7499826 156.641391,38.8152348 L156.641391,38.7445565 Z M158.212174,38.858713 C158.212174,39.4166957 158.317217,39.8441739 158.527304,40.141287 C158.737391,40.4347826 159.037913,40.5814957 159.429565,40.5814957 C159.810087,40.5814957 160.10713,40.4365913 160.320696,40.146713 C160.534261,39.853287 160.641391,39.3858783 160.641391,38.7445565 C160.641391,38.1974957 160.534261,37.7735652 160.320696,37.4728348 C160.10713,37.1721043 159.805913,37.0217739 159.418435,37.0217739 C159.034435,37.0217739 158.737391,37.1721043 158.527304,37.4728348 C158.317217,37.7699478 158.212174,38.2318609 158.212174,38.858713 Z M162.934957,38.7445565 C162.934957,38.1612522 163.046957,37.6413217 163.271652,37.1847652 C163.496348,36.7282783 163.81913,36.3750261 164.239304,36.1250087 C164.662957,35.8749913 165.154087,35.7499826 165.712,35.7499826 C166.505739,35.7499826 167.152,35.9927652 167.652174,36.4782609 C168.155826,36.9637565 168.43687,37.6231652 168.494609,38.456487 L168.505739,38.858713 C168.505739,39.7608348 168.253913,40.4854957 167.750261,41.0326261 C167.246609,41.5760696 166.570435,41.8477913 165.72313,41.8477913 C164.87513,41.8477913 164.197565,41.5760696 163.690435,41.0326261 C163.186783,40.489113 162.934957,39.7499826 162.934957,38.8152348 L162.934957,38.7445565 Z M164.505739,38.858713 C164.505739,39.4166957 164.610783,39.8441739 164.82087,40.141287 C165.030957,40.4347826 165.331478,40.5814957 165.72313,40.5814957 C166.102957,40.5814957 166.400696,40.4365913 166.614261,40.146713 C166.827826,39.853287 166.934957,39.3858783 166.934957,38.7445565 C166.934957,38.1974957 166.827826,37.7735652 166.614261,37.4728348 C166.400696,37.1721043 166.099478,37.0217739 165.712,37.0217739 C165.328,37.0217739 165.030957,37.1721043 164.82087,37.4728348 C164.610783,37.7699478 164.505739,38.2318609 164.505739,38.858713 Z M170.945391,35.858713 L170.994783,36.516313 C171.411478,36.0054261 171.974957,35.7499826 172.684522,35.7499826 C173.442087,35.7499826 173.961739,36.0489043 174.24487,36.6467478 C174.657391,36.0489043 175.246609,35.7499826 176.01113,35.7499826 C176.648348,35.7499826 177.123478,35.9366261 177.434435,36.3097739 C177.746087,36.6793739 177.901913,37.237287 177.901913,37.9837217 L177.901913,41.7391304 L176.326261,41.7391304 L176.326261,37.9891478 C176.326261,37.6557913 176.26087,37.4130087 176.130783,37.2608696 C176,37.1050435 175.769739,37.0272 175.44,37.0272 C174.969043,37.0272 174.642783,37.2518261 174.461913,37.7010783 L174.467478,41.7391304 L172.896696,41.7391304 L172.896696,37.9945739 C172.896696,37.6539826 172.829913,37.4075826 172.695652,37.2554435 C172.561391,37.1032348 172.333217,37.0272 172.01113,37.0272 C171.565217,37.0272 171.242435,37.2119652 171.043478,37.5814957 L171.043478,41.7391304 L169.472696,41.7391304 L169.472696,35.858713 L170.945391,35.858713 Z" id="Shape" fill="#FFFFFF" fill-rule="nonzero"></path>
            <path d="M0,458.782609 L288.003478,458.782609" id="Path" stroke="#D8D8D8"></path>
            <path d="M240.418783,495.441391 C239.747478,495.248696 239.258435,495.012174 238.950957,494.732522 C238.646957,494.449391 238.494609,494.101565 238.494609,493.689043 C238.494609,493.221565 238.681043,492.835478 239.053217,492.531478 C239.428174,492.224 239.914435,492.070957 240.512,492.070957 C240.919652,492.070957 241.282783,492.149565 241.600696,492.306783 C241.921391,492.464696 242.168348,492.681739 242.342261,492.959304 C242.518957,493.236174 242.607304,493.539478 242.607304,493.868522 L241.820522,493.868522 C241.820522,493.509565 241.706435,493.228522 241.478261,493.024696 C241.250087,492.818087 240.928,492.714435 240.512,492.714435 C240.126609,492.714435 239.824696,492.8 239.607652,492.97113 C239.392696,493.140174 239.285565,493.375304 239.285565,493.676522 C239.285565,493.918609 239.38713,494.123826 239.590957,494.292174 C239.797565,494.457739 240.146783,494.610087 240.638609,494.748522 C241.133217,494.886957 241.519304,495.040696 241.796174,495.209043 C242.075826,495.375304 242.282435,495.569391 242.416,495.792 C242.551652,496.014609 242.619826,496.27687 242.619826,496.578783 C242.619826,497.059478 242.432,497.445565 242.057043,497.736348 C241.682087,498.024348 241.180522,498.168348 240.553043,498.168348 C240.145391,498.168348 239.76487,498.09113 239.411478,497.936 C239.058087,497.778783 238.785391,497.563826 238.592696,497.291826 C238.402087,497.020522 238.306783,496.711652 238.306783,496.366609 L239.093565,496.366609 C239.093565,496.725565 239.225739,497.009391 239.489391,497.218783 C239.75513,497.425391 240.109913,497.528348 240.553043,497.528348 C240.966261,497.528348 241.282783,497.444174 241.502609,497.275826 C241.72313,497.107478 241.833043,496.877913 241.833043,496.58713 C241.833043,496.296348 241.730783,496.072348 241.526957,495.914435 C241.32313,495.753739 240.953739,495.596522 240.418783,495.441391 Z M245.338435,498.168348 C244.740174,498.168348 244.253913,497.97287 243.878957,497.581217 C243.504,497.187478 243.31687,496.661565 243.31687,496.004174 L243.31687,495.865739 C243.31687,495.428174 243.399652,495.037913 243.565217,494.695652 C243.733565,494.350609 243.967304,494.081391 244.266435,493.888696 C244.567652,493.693217 244.893913,493.59513 245.244522,493.59513 C245.817739,493.59513 246.263652,493.783652 246.581565,494.161391 C246.899478,494.53913 247.058087,495.080348 247.058087,495.783652 L247.058087,496.098087 L244.070957,496.098087 C244.081391,496.53287 244.208,496.884174 244.449391,497.153391 C244.694261,497.419826 245.003826,497.552696 245.378783,497.552696 C245.645217,497.552696 245.870609,497.498435 246.055652,497.389913 C246.240696,497.281391 246.402087,497.137391 246.540522,496.957913 L247.001043,497.31687 C246.631652,497.884522 246.077217,498.168348 245.338435,498.168348 Z M245.244522,494.214957 C244.940522,494.214957 244.684522,494.326261 244.478609,494.54887 C244.272,494.768696 244.144,495.078957 244.095304,495.478261 L246.304,495.478261 L246.304,495.421217 C246.282435,495.037913 246.179478,494.741565 245.994435,494.53287 C245.810087,494.320696 245.559652,494.214957 245.244522,494.214957 Z M248.957913,492.608696 L248.957913,493.676522 L249.781565,493.676522 L249.781565,494.259478 L248.957913,494.259478 L248.957913,496.994783 C248.957913,497.171478 248.994783,497.304348 249.067826,497.394087 C249.141565,497.481043 249.266087,497.524174 249.442783,497.524174 C249.529739,497.524174 249.649391,497.508174 249.801739,497.475478 L249.801739,498.086957 C249.603478,498.141217 249.410087,498.168348 249.222957,498.168348 C248.885565,498.168348 248.631652,498.066783 248.460522,497.862957 C248.289391,497.65913 248.203826,497.369739 248.203826,496.994783 L248.203826,494.259478 L247.401043,494.259478 L247.401043,493.676522 L248.203826,493.676522 L248.203826,492.608696 L248.957913,492.608696 Z M251.689043,492.608696 L251.689043,493.676522 L252.512,493.676522 L252.512,494.259478 L251.689043,494.259478 L251.689043,496.994783 C251.689043,497.171478 251.725217,497.304348 251.798957,497.394087 C251.872,497.481043 251.997217,497.524174 252.173913,497.524174 C252.26087,497.524174 252.380522,497.508174 252.53287,497.475478 L252.53287,498.086957 C252.333913,498.141217 252.141217,498.168348 251.954087,498.168348 C251.616696,498.168348 251.362783,498.066783 251.191652,497.862957 C251.020522,497.65913 250.934957,497.369739 250.934957,496.994783 L250.934957,494.259478 L250.131478,494.259478 L250.131478,493.676522 L250.934957,493.676522 L250.934957,492.608696 L251.689043,492.608696 Z M254.216348,498.086957 L253.462261,498.086957 L253.462261,493.676522 L254.216348,493.676522 L254.216348,498.086957 Z M253.401043,492.50713 C253.401043,492.384696 253.437217,492.281043 253.510957,492.19687 C253.586783,492.112696 253.698087,492.070957 253.84487,492.070957 C253.991652,492.070957 254.102957,492.112696 254.179478,492.19687 C254.255304,492.281043 254.293565,492.384696 254.293565,492.50713 C254.293565,492.62887 254.255304,492.73113 254.179478,492.812522 C254.102957,492.893913 253.991652,492.934957 253.84487,492.934957 C253.698087,492.934957 253.586783,492.893913 253.510957,492.812522 C253.437217,492.73113 253.401043,492.62887 253.401043,492.50713 Z M256.139826,493.676522 L256.164174,494.230957 C256.501565,493.807304 256.941913,493.59513 257.485217,493.59513 C258.417391,493.59513 258.886957,494.121043 258.895304,495.17287 L258.895304,498.086957 L258.141217,498.086957 L258.141217,495.168696 C258.138435,494.850783 258.065391,494.615652 257.921391,494.463304 C257.780174,494.310957 257.558261,494.23513 257.257043,494.23513 C257.012174,494.23513 256.797217,494.300522 256.61287,494.430609 C256.427826,494.561391 256.283826,494.732522 256.18087,494.944 L256.18087,498.086957 L255.426783,498.086957 L255.426783,493.676522 L256.139826,493.676522 Z M259.853217,495.84487 C259.853217,495.157565 260.012522,494.611478 260.330435,494.206609 C260.648348,493.798957 261.069217,493.59513 261.593739,493.59513 C262.131478,493.59513 262.551652,493.785043 262.853565,494.165565 L262.889739,493.676522 L263.57913,493.676522 L263.57913,497.981217 C263.57913,498.551652 263.408696,499.001043 263.069217,499.330087 C262.732522,499.65913 262.278261,499.823304 261.707826,499.823304 C261.389913,499.823304 261.078957,499.75513 260.774261,499.619478 C260.470261,499.483826 260.237913,499.297391 260.077217,499.06087 L260.46887,498.608696 C260.792348,499.008 261.187478,499.207652 261.654957,499.207652 C262.021565,499.207652 262.306783,499.104696 262.510609,498.898087 C262.717217,498.691478 262.82087,498.400696 262.82087,498.025739 L262.82087,497.646609 C262.518957,497.994435 262.10713,498.168348 261.585391,498.168348 C261.069217,498.168348 260.65113,497.960348 260.330435,497.545043 C260.012522,497.129043 259.853217,496.562783 259.853217,495.84487 Z M260.611478,495.930435 C260.611478,496.427826 260.713043,496.819478 260.91687,497.104696 C261.120696,497.38713 261.405913,497.528348 261.773217,497.528348 C262.248348,497.528348 262.597565,497.312696 262.82087,496.880696 L262.82087,494.866783 C262.589913,494.445913 262.243478,494.23513 261.781565,494.23513 C261.414261,494.23513 261.127652,494.377739 260.921043,494.662957 C260.714435,494.948174 260.611478,495.37113 260.611478,495.930435 Z M267.288348,496.91687 C267.288348,496.713043 267.210435,496.555826 267.056,496.444522 C266.903652,496.330435 266.635826,496.232348 266.252522,496.150957 C265.872,496.069565 265.569391,495.971478 265.344,495.857391 C265.120696,495.743304 264.95513,495.607652 264.846609,495.449739 C264.740174,495.291826 264.687304,495.104696 264.687304,494.886957 C264.687304,494.525913 264.839652,494.219826 265.144348,493.970087 C265.45113,493.720348 265.842087,493.59513 266.317913,493.59513 C266.818087,493.59513 267.222957,493.724522 267.532522,493.982609 C267.84487,494.240696 268.001391,494.570435 268.001391,494.972522 L267.24313,494.972522 C267.24313,494.766609 267.154783,494.588522 266.978087,494.438957 C266.804174,494.289391 266.584348,494.214957 266.317913,494.214957 C266.043826,494.214957 265.82887,494.274783 265.673739,494.393739 C265.519304,494.513391 265.441391,494.669913 265.441391,494.862609 C265.441391,495.04487 265.513739,495.181913 265.657739,495.274435 C265.801739,495.366957 266.061217,495.455304 266.436174,495.539478 C266.813913,495.623652 267.119304,495.724522 267.353043,495.840696 C267.586783,495.957565 267.759304,496.099478 267.870609,496.265043 C267.985391,496.427826 268.042435,496.627478 268.042435,496.864 C268.042435,497.258435 267.884522,497.574957 267.569391,497.813565 C267.254261,498.050087 266.845217,498.168348 266.342261,498.168348 C265.98887,498.168348 265.676522,498.105739 265.405217,497.981217 C265.133217,497.856 264.919652,497.682087 264.765217,497.459478 C264.61287,497.233391 264.536348,496.990609 264.536348,496.729739 L265.290435,496.729739 C265.304348,496.982261 265.405217,497.183304 265.592348,497.33287 C265.782261,497.479652 266.032696,497.552696 266.342261,497.552696 C266.627478,497.552696 266.855652,497.495652 267.027478,497.381565 C267.201391,497.264696 267.288348,497.110261 267.288348,496.91687 Z" id="Shape" fill="#4ABFAD" fill-rule="nonzero"></path>
            <path d="M258.74087,476.869565 C258.74087,477.136 258.717217,477.386435 258.685913,477.63687 L260.337391,478.928 C260.486261,479.045565 260.525217,479.256348 260.431304,479.42887 L258.866087,482.136348 C258.795826,482.261565 258.662957,482.332522 258.529391,482.332522 C258.482783,482.332522 258.435478,482.324174 258.38887,482.30887 L256.440348,481.526261 C256.033391,481.831652 255.59513,482.097391 255.117217,482.29287 L254.820174,484.367304 C254.796522,484.55513 254.632348,484.695652 254.43687,484.695652 L251.306435,484.695652 C251.110261,484.695652 250.946087,484.55513 250.922435,484.367304 L250.625391,482.29287 C250.148174,482.097391 249.709913,481.839304 249.302957,481.526261 L247.353739,482.30887 C247.314783,482.324174 247.268174,482.332522 247.22087,482.332522 C247.080348,482.332522 246.946783,482.261565 246.876522,482.136348 L245.311304,479.42887 C245.217391,479.256348 245.256348,479.045565 245.405217,478.928 L247.056696,477.63687 C247.025391,477.386435 247.001739,477.127652 247.001739,476.869565 C247.001739,476.611478 247.025391,476.353391 247.056696,476.102957 L245.405217,474.81113 C245.256348,474.694261 245.209739,474.482783 245.311304,474.310261 L246.876522,471.602783 C246.946783,471.477565 247.080348,471.407304 247.213217,471.407304 C247.259826,471.407304 247.30713,471.414957 247.353739,471.430261 L249.302957,472.21287 C249.709913,471.908174 250.148174,471.641739 250.625391,471.446261 L250.922435,469.372522 C250.946087,469.184696 251.110261,469.043478 251.306435,469.043478 L254.43687,469.043478 C254.632348,469.043478 254.796522,469.184696 254.820174,469.372522 L255.117217,471.446261 C255.59513,471.641739 256.033391,471.899826 256.440348,472.21287 L258.38887,471.430261 C258.427826,471.414957 258.47513,471.407304 258.521739,471.407304 C258.662957,471.407304 258.795826,471.477565 258.866087,471.602783 L260.431304,474.310261 C260.525217,474.482783 260.486261,474.694261 260.337391,474.81113 L258.685913,476.102957 C258.717217,476.353391 258.74087,476.603826 258.74087,476.869565 Z M257.175652,476.869565 C257.175652,476.705391 257.168,476.540522 257.136696,476.298435 L257.026783,475.413565 L257.723826,474.866087 L258.560696,474.201043 L258.013217,473.253565 L257.01913,473.65287 L256.189913,473.989565 L255.477565,473.441391 C255.164522,473.206957 254.851478,473.026783 254.514783,472.886261 L253.685565,472.549565 L253.560348,471.665391 L253.411478,470.608696 L252.323478,470.608696 L252.166957,471.665391 L252.041739,472.549565 L251.212522,472.886261 C250.89113,473.01913 250.570435,473.206957 250.233739,473.457391 L249.529739,473.989565 L248.715826,473.660522 L247.721739,473.261913 L247.174261,474.208696 L248.019478,474.866087 L248.715826,475.413565 L248.605913,476.298435 C248.582957,476.53287 248.566957,476.713043 248.566957,476.869565 C248.566957,477.026087 248.582957,477.206261 248.605913,477.448348 L248.715826,478.333217 L248.019478,478.880696 L247.174261,479.538087 L247.721739,480.48487 L248.715826,480.086261 L249.545043,479.749565 L250.257391,480.297043 C250.570435,480.532174 250.883478,480.712348 251.220174,480.85287 L252.049391,481.189565 L252.174609,482.073739 L252.323478,483.130435 L253.41913,483.130435 L253.575652,482.073739 L253.70087,481.189565 L254.530783,480.85287 C254.851478,480.72 255.172174,480.532174 255.50887,480.281739 L256.21287,479.749565 L257.026783,480.077913 L258.02087,480.477217 L258.569043,479.530435 L257.723826,478.873043 L257.026783,478.32487 L257.136696,477.440696 C257.160348,477.206261 257.175652,477.033739 257.175652,476.869565 Z M252.871652,473.73913 C251.141565,473.73913 249.741217,475.140174 249.741217,476.869565 C249.741217,478.598957 251.141565,480 252.871652,480 C254.601043,480 256.002087,478.598957 256.002087,476.869565 C256.002087,475.140174 254.601043,473.73913 252.871652,473.73913 Z M251.306435,476.869565 C251.306435,477.730087 252.010435,478.434783 252.871652,478.434783 C253.732174,478.434783 254.43687,477.730087 254.43687,476.869565 C254.43687,476.008348 253.732174,475.304348 252.871652,475.304348 C252.010435,475.304348 251.306435,476.008348 251.306435,476.869565 Z" id="Shape" fill="#4ABFAD"></path>
            <path d="M181.130435,469.826087 L170.173913,469.826087 C169.312696,469.826087 168.608696,470.530087 168.608696,471.391304 L168.608696,482.347826 C168.608696,483.208348 169.312696,483.913043 170.173913,483.913043 L181.130435,483.913043 C181.990957,483.913043 182.695652,483.208348 182.695652,482.347826 L182.695652,471.391304 C182.695652,470.530087 181.990957,469.826087 181.130435,469.826087 Z M181.130435,482.347826 L170.173913,482.347826 L170.173913,471.391304 L181.130435,471.391304 L181.130435,482.347826 Z M179.236174,473.410087 L180.340174,474.521739 L174.079304,480.782609 L170.94887,477.659826 L172.059826,476.556522 L174.079304,478.567652 L179.236174,473.410087 Z" id="Shape" fill="#4ABFAD"></path>
            <path d="M159.615304,496.203826 C159.542261,496.831304 159.309913,497.31687 158.918261,497.65913 C158.530087,497.998609 158.012522,498.168348 157.365565,498.168348 C156.664348,498.168348 156.101565,497.917217 155.677913,497.414261 C155.257043,496.912 155.046261,496.239304 155.046261,495.39687 L155.046261,494.825739 C155.046261,494.274783 155.144348,493.789217 155.339826,493.37113 C155.538087,492.952348 155.817739,492.631652 156.179478,492.409043 C156.540522,492.183652 156.959304,492.070957 157.434435,492.070957 C158.065391,492.070957 158.570435,492.246957 158.950957,492.600348 C159.331478,492.950957 159.552696,493.437217 159.615304,494.059826 L158.828522,494.059826 C158.761043,493.586783 158.61287,493.244522 158.384696,493.032348 C158.159304,492.82087 157.842087,492.714435 157.434435,492.714435 C156.934957,492.714435 156.541913,492.899478 156.256696,493.26887 C155.974261,493.638261 155.833043,494.164174 155.833043,494.846609 L155.833043,495.421217 C155.833043,496.065391 155.967304,496.577391 156.236522,496.957913 C156.505739,497.338435 156.882087,497.528348 157.365565,497.528348 C157.800348,497.528348 158.13287,497.430957 158.363826,497.234783 C158.597565,497.036522 158.752696,496.69287 158.828522,496.203826 L159.615304,496.203826 Z M160.369391,495.840696 C160.369391,495.408696 160.453565,495.020522 160.622609,494.675478 C160.793739,494.330435 161.029565,494.064 161.331478,493.876174 C161.636174,493.689043 161.982609,493.59513 162.370783,493.59513 C162.97113,493.59513 163.456696,493.80313 163.826087,494.218435 C164.198261,494.634435 164.384696,495.187478 164.384696,495.877565 L164.384696,495.930435 C164.384696,496.360348 164.301913,496.745739 164.135652,497.088 C163.97287,497.428174 163.737739,497.693217 163.430957,497.88313 C163.126261,498.073043 162.775652,498.168348 162.37913,498.168348 C161.781565,498.168348 161.296,497.960348 160.923826,497.545043 C160.554435,497.129043 160.369391,496.578783 160.369391,495.894261 L160.369391,495.840696 Z M161.127652,495.930435 C161.127652,496.420174 161.240348,496.812522 161.465739,497.10887 C161.694609,497.405217 161.998609,497.552696 162.37913,497.552696 C162.762435,497.552696 163.066435,497.403826 163.291826,497.104696 C163.517913,496.802783 163.630609,496.381913 163.630609,495.840696 C163.630609,495.357217 163.51513,494.966261 163.284174,494.66713 C163.056,494.365217 162.751304,494.214957 162.370783,494.214957 C161.998609,494.214957 161.698087,494.362435 161.469913,494.658783 C161.241739,494.95513 161.127652,495.378783 161.127652,495.930435 Z M166.149565,498.086957 L165.395478,498.086957 L165.395478,491.826087 L166.149565,491.826087 L166.149565,498.086957 Z M168.179478,498.086957 L167.425391,498.086957 L167.425391,491.826087 L168.179478,491.826087 L168.179478,498.086957 Z M171.220174,498.168348 C170.622609,498.168348 170.135652,497.97287 169.760696,497.581217 C169.385739,497.187478 169.198609,496.661565 169.198609,496.004174 L169.198609,495.865739 C169.198609,495.428174 169.281391,495.037913 169.446957,494.695652 C169.615304,494.350609 169.849043,494.081391 170.148174,493.888696 C170.449391,493.693217 170.775652,493.59513 171.126261,493.59513 C171.699478,493.59513 172.145391,493.783652 172.463304,494.161391 C172.781217,494.53913 172.940522,495.080348 172.940522,495.783652 L172.940522,496.098087 L169.952696,496.098087 C169.96313,496.53287 170.089739,496.884174 170.331826,497.153391 C170.576,497.419826 170.885565,497.552696 171.261217,497.552696 C171.526957,497.552696 171.753043,497.498435 171.937391,497.389913 C172.122435,497.281391 172.283826,497.137391 172.422261,496.957913 L172.883478,497.31687 C172.513391,497.884522 171.958957,498.168348 171.220174,498.168348 Z M171.126261,494.214957 C170.822261,494.214957 170.566261,494.326261 170.360348,494.54887 C170.153739,494.768696 170.025739,495.078957 169.977043,495.478261 L172.186435,495.478261 L172.186435,495.421217 C172.164174,495.037913 172.061217,494.741565 171.876174,494.53287 C171.691826,494.320696 171.441391,494.214957 171.126261,494.214957 Z M175.585391,497.552696 C175.854609,497.552696 176.089739,497.471304 176.290783,497.308522 C176.491826,497.145043 176.60313,496.941913 176.624696,496.697043 L177.338435,496.697043 C177.324522,496.949565 177.237565,497.190261 177.077565,497.418435 C176.91687,497.646609 176.702609,497.82887 176.433391,497.964522 C176.166957,498.10087 175.884522,498.168348 175.585391,498.168348 C174.985043,498.168348 174.50713,497.968696 174.150957,497.569391 C173.797565,497.167304 173.62087,496.618435 173.62087,495.922783 L173.62087,495.796174 C173.62087,495.366957 173.699478,494.985043 173.857391,494.65113 C174.014609,494.316522 174.240696,494.057043 174.534261,493.872 C174.829913,493.687652 175.17913,493.59513 175.581217,493.59513 C176.075826,493.59513 176.486261,493.743304 176.812522,494.039652 C177.141565,494.335304 177.31687,494.72 177.338435,495.193043 L176.624696,495.193043 C176.60313,494.907826 176.494609,494.674087 176.29913,494.491826 C176.105739,494.306783 175.86713,494.214957 175.581217,494.214957 C175.198609,494.214957 174.90087,494.353391 174.688696,494.630261 C174.479304,494.905043 174.374957,495.302957 174.374957,495.824696 L174.374957,495.967304 C174.374957,496.475826 174.479304,496.866783 174.688696,497.141565 C174.898087,497.415652 175.197217,497.552696 175.585391,497.552696 Z M179.209043,492.608696 L179.209043,493.676522 L180.032696,493.676522 L180.032696,494.259478 L179.209043,494.259478 L179.209043,496.994783 C179.209043,497.171478 179.245913,497.304348 179.318957,497.394087 C179.392696,497.481043 179.517913,497.524174 179.694609,497.524174 C179.781565,497.524174 179.900522,497.508174 180.05287,497.475478 L180.05287,498.086957 C179.854609,498.141217 179.661913,498.168348 179.474087,498.168348 C179.137391,498.168348 178.883478,498.066783 178.711652,497.862957 C178.540522,497.65913 178.454957,497.369739 178.454957,496.994783 L178.454957,494.259478 L177.652174,494.259478 L177.652174,493.676522 L178.454957,493.676522 L178.454957,492.608696 L179.209043,492.608696 Z M181.736348,498.086957 L180.982261,498.086957 L180.982261,493.676522 L181.736348,493.676522 L181.736348,498.086957 Z M180.921043,492.50713 C180.921043,492.384696 180.957913,492.281043 181.030957,492.19687 C181.107478,492.112696 181.218783,492.070957 181.365565,492.070957 C181.512348,492.070957 181.623652,492.112696 181.699478,492.19687 C181.776,492.281043 181.813565,492.384696 181.813565,492.50713 C181.813565,492.62887 181.776,492.73113 181.699478,492.812522 C181.623652,492.893913 181.512348,492.934957 181.365565,492.934957 C181.218783,492.934957 181.107478,492.893913 181.030957,492.812522 C180.957913,492.73113 180.921043,492.62887 180.921043,492.50713 Z M182.74713,495.840696 C182.74713,495.408696 182.831304,495.020522 182.999652,494.675478 C183.171478,494.330435 183.407304,494.064 183.709217,493.876174 C184.013913,493.689043 184.360348,493.59513 184.748522,493.59513 C185.34887,493.59513 185.834435,493.80313 186.203826,494.218435 C186.576,494.634435 186.762435,495.187478 186.762435,495.877565 L186.762435,495.930435 C186.762435,496.360348 186.679652,496.745739 186.513391,497.088 C186.350609,497.428174 186.115478,497.693217 185.808696,497.88313 C185.504,498.073043 185.153391,498.168348 184.75687,498.168348 C184.159304,498.168348 183.673739,497.960348 183.301565,497.545043 C182.932174,497.129043 182.74713,496.578783 182.74713,495.894261 L182.74713,495.840696 Z M183.505391,495.930435 C183.505391,496.420174 183.618087,496.812522 183.843478,497.10887 C184.072348,497.405217 184.376348,497.552696 184.75687,497.552696 C185.140174,497.552696 185.444174,497.403826 185.669565,497.104696 C185.895652,496.802783 186.008348,496.381913 186.008348,495.840696 C186.008348,495.357217 185.89287,494.966261 185.661913,494.66713 C185.433739,494.365217 185.129043,494.214957 184.748522,494.214957 C184.376348,494.214957 184.075826,494.362435 183.847652,494.658783 C183.619478,494.95513 183.505391,495.378783 183.505391,495.930435 Z M188.42087,493.676522 L188.445913,494.230957 C188.782609,493.807304 189.222957,493.59513 189.766261,493.59513 C190.698435,493.59513 191.168696,494.121043 191.176348,495.17287 L191.176348,498.086957 L190.422261,498.086957 L190.422261,495.168696 C190.420174,494.850783 190.346435,494.615652 190.202435,494.463304 C190.061217,494.310957 189.84,494.23513 189.538087,494.23513 C189.293217,494.23513 189.078957,494.300522 188.893913,494.430609 C188.709565,494.561391 188.56487,494.732522 188.461913,494.944 L188.461913,498.086957 L187.707826,498.086957 L187.707826,493.676522 L188.42087,493.676522 Z M194.882087,496.91687 C194.882087,496.713043 194.804174,496.555826 194.649739,496.444522 C194.497391,496.330435 194.229565,496.232348 193.846261,496.150957 C193.465739,496.069565 193.16313,495.971478 192.937739,495.857391 C192.714435,495.743304 192.54887,495.607652 192.440348,495.449739 C192.333913,495.291826 192.281043,495.104696 192.281043,494.886957 C192.281043,494.525913 192.433391,494.219826 192.738087,493.970087 C193.04487,493.720348 193.435826,493.59513 193.911652,493.59513 C194.411826,493.59513 194.816696,493.724522 195.126261,493.982609 C195.438609,494.240696 195.59513,494.570435 195.59513,494.972522 L194.83687,494.972522 C194.83687,494.766609 194.748522,494.588522 194.571826,494.438957 C194.397913,494.289391 194.178087,494.214957 193.911652,494.214957 C193.637565,494.214957 193.422609,494.274783 193.267478,494.393739 C193.113043,494.513391 193.03513,494.669913 193.03513,494.862609 C193.03513,495.04487 193.107478,495.181913 193.251478,495.274435 C193.395478,495.366957 193.654957,495.455304 194.029913,495.539478 C194.407652,495.623652 194.713043,495.724522 194.946783,495.840696 C195.180522,495.957565 195.353043,496.099478 195.464348,496.265043 C195.57913,496.427826 195.636174,496.627478 195.636174,496.864 C195.636174,497.258435 195.478261,497.574957 195.16313,497.813565 C194.848,498.050087 194.438957,498.168348 193.936,498.168348 C193.582609,498.168348 193.270261,498.105739 192.998957,497.981217 C192.726957,497.856 192.513391,497.682087 192.358957,497.459478 C192.206609,497.233391 192.130783,496.990609 192.130783,496.729739 L192.884174,496.729739 C192.898087,496.982261 192.998957,497.183304 193.186087,497.33287 C193.376696,497.479652 193.626435,497.552696 193.936,497.552696 C194.221217,497.552696 194.449391,497.495652 194.621217,497.381565 C194.79513,497.264696 194.882087,497.110261 194.882087,496.91687 Z" id="Shape" fill="#4ABFAD" fill-rule="nonzero"></path>
            <path d="M92.7172174,496.203826 C92.6441739,496.831304 92.4118261,497.31687 92.0201739,497.65913 C91.632,497.998609 91.1144348,498.168348 90.4674783,498.168348 C89.7662609,498.168348 89.2034783,497.917217 88.7798261,497.414261 C88.3589565,496.912 88.1481739,496.239304 88.1481739,495.39687 L88.1481739,494.825739 C88.1481739,494.274783 88.2462609,493.789217 88.4417391,493.37113 C88.64,492.952348 88.9196522,492.631652 89.2813913,492.409043 C89.6424348,492.183652 90.0612174,492.070957 90.5363478,492.070957 C91.1673043,492.070957 91.6723478,492.246957 92.0528696,492.600348 C92.4333913,492.950957 92.6546087,493.437217 92.7172174,494.059826 L91.9304348,494.059826 C91.8629565,493.586783 91.7147826,493.244522 91.4866087,493.032348 C91.2612174,492.82087 90.944,492.714435 90.5363478,492.714435 C90.0368696,492.714435 89.6438261,492.899478 89.3586087,493.26887 C89.0761739,493.638261 88.9349565,494.164174 88.9349565,494.846609 L88.9349565,495.421217 C88.9349565,496.065391 89.0692174,496.577391 89.3384348,496.957913 C89.6076522,497.338435 89.984,497.528348 90.4674783,497.528348 C90.9022609,497.528348 91.2347826,497.430957 91.4657391,497.234783 C91.6994783,497.036522 91.8546087,496.69287 91.9304348,496.203826 L92.7172174,496.203826 Z M94.4250435,494.210783 C94.7596522,493.800348 95.1944348,493.59513 95.7293913,493.59513 C96.6615652,493.59513 97.1318261,494.121043 97.1401739,495.17287 L97.1401739,498.086957 L96.386087,498.086957 L96.386087,495.168696 C96.3833043,494.850783 96.3095652,494.615652 96.1655652,494.463304 C96.0243478,494.310957 95.8031304,494.23513 95.5012174,494.23513 C95.2570435,494.23513 95.042087,494.300522 94.8570435,494.430609 C94.6726957,494.561391 94.5286957,494.732522 94.4250435,494.944 L94.4250435,498.086957 L93.6709565,498.086957 L93.6709565,491.826087 L94.4250435,491.826087 L94.4250435,494.210783 Z M99.088,498.086957 L98.333913,498.086957 L98.333913,493.676522 L99.088,493.676522 L99.088,498.086957 Z M98.2733913,492.50713 C98.2733913,492.384696 98.3095652,492.281043 98.3833043,492.19687 C98.4591304,492.112696 98.5704348,492.070957 98.7172174,492.070957 C98.864,492.070957 98.9753043,492.112696 99.0518261,492.19687 C99.1276522,492.281043 99.165913,492.384696 99.165913,492.50713 C99.165913,492.62887 99.1276522,492.73113 99.0518261,492.812522 C98.9753043,492.893913 98.864,492.934957 98.7172174,492.934957 C98.5704348,492.934957 98.4591304,492.893913 98.3833043,492.812522 C98.3095652,492.73113 98.2733913,492.62887 98.2733913,492.50713 Z M101.117913,498.086957 L100.363826,498.086957 L100.363826,491.826087 L101.117913,491.826087 L101.117913,498.086957 Z M102.145391,495.84487 C102.145391,495.168696 102.305391,494.624696 102.626087,494.214957 C102.946783,493.801739 103.366957,493.59513 103.885913,493.59513 C104.402087,493.59513 104.81113,493.771826 105.113043,494.125217 L105.113043,491.826087 L105.86713,491.826087 L105.86713,498.086957 L105.174261,498.086957 L105.137391,497.613913 C104.835478,497.984 104.416,498.168348 103.877565,498.168348 C103.366957,498.168348 102.949565,497.958957 102.626087,497.54087 C102.305391,497.122087 102.145391,496.576 102.145391,495.901913 L102.145391,495.84487 Z M102.899478,495.930435 C102.899478,496.430609 103.002435,496.822261 103.209043,497.104696 C103.415652,497.38713 103.70087,497.528348 104.065391,497.528348 C104.543304,497.528348 104.892522,497.314087 105.113043,496.884174 L105.113043,494.858435 C104.886957,494.44313 104.540522,494.23513 104.073043,494.23513 C103.703652,494.23513 103.415652,494.377739 103.209043,494.662957 C103.002435,494.948174 102.899478,495.37113 102.899478,495.930435 Z M109.17287,494.353391 C109.058087,494.333913 108.934957,494.32487 108.801391,494.32487 C108.306783,494.32487 107.971478,494.535652 107.794783,494.956522 L107.794783,498.086957 L107.040696,498.086957 L107.040696,493.676522 L107.774609,493.676522 L107.786435,494.186435 C108.034087,493.792 108.384696,493.59513 108.838261,493.59513 C108.985043,493.59513 109.096348,493.613913 109.17287,493.652174 L109.17287,494.353391 Z M111.618087,498.168348 C111.020522,498.168348 110.534261,497.97287 110.159304,497.581217 C109.783652,497.187478 109.596522,496.661565 109.596522,496.004174 L109.596522,495.865739 C109.596522,495.428174 109.679304,495.037913 109.84487,494.695652 C110.013913,494.350609 110.246957,494.081391 110.546087,493.888696 C110.848,493.693217 111.173565,493.59513 111.524174,493.59513 C112.098087,493.59513 112.543304,493.783652 112.861217,494.161391 C113.17913,494.53913 113.338435,495.080348 113.338435,495.783652 L113.338435,496.098087 L110.350609,496.098087 C110.361739,496.53287 110.487652,496.884174 110.729739,497.153391 C110.973913,497.419826 111.284174,497.552696 111.65913,497.552696 C111.925565,497.552696 112.150957,497.498435 112.335304,497.389913 C112.520348,497.281391 112.681739,497.137391 112.82087,496.957913 L113.281391,497.31687 C112.912,497.884522 112.357565,498.168348 111.618087,498.168348 Z M111.524174,494.214957 C111.220174,494.214957 110.96487,494.326261 110.758261,494.54887 C110.551652,494.768696 110.423652,495.078957 110.374957,495.478261 L112.584348,495.478261 L112.584348,495.421217 C112.562783,495.037913 112.45913,494.741565 112.274783,494.53287 C112.089739,494.320696 111.84,494.214957 111.524174,494.214957 Z M114.928,493.676522 L114.952348,494.230957 C115.289739,493.807304 115.729391,493.59513 116.273391,493.59513 C117.20487,493.59513 117.67513,494.121043 117.683478,495.17287 L117.683478,498.086957 L116.929391,498.086957 L116.929391,495.168696 C116.926609,494.850783 116.853565,494.615652 116.709565,494.463304 C116.567652,494.310957 116.346435,494.23513 116.044522,494.23513 C115.800348,494.23513 115.585391,494.300522 115.401043,494.430609 C115.216,494.561391 115.072,494.732522 114.969043,494.944 L114.969043,498.086957 L114.214957,498.086957 L114.214957,493.676522 L114.928,493.676522 Z" id="Shape" fill="#4ABFAD" fill-rule="nonzero"></path>
            <path d="M105.855304,473.504 C105.855304,475.224348 104.460522,476.61913 102.740174,476.61913 C101.01913,476.61913 99.6250435,475.224348 99.6250435,473.504 C99.6250435,471.783652 101.01913,470.38887 102.740174,470.38887 C104.460522,470.38887 105.855304,471.783652 105.855304,473.504 Z" id="Path" fill="#FEFEFE" fill-rule="nonzero"></path>
            <path d="M104.091826,473.481739 C104.091826,474.224696 103.489391,474.826435 102.74713,474.826435 C102.004174,474.826435 101.402435,474.224696 101.402435,473.481739 C101.402435,472.739478 102.004174,472.137043 102.74713,472.137043 C103.489391,472.137043 104.091826,472.739478 104.091826,473.481739 Z" id="Path" fill="#060706" fill-rule="nonzero"></path>
            <path d="M102.989217,472.82087 C102.989217,473.060174 103.183304,473.254261 103.423304,473.254261 C103.662609,473.254261 103.856696,473.060174 103.856696,472.82087 C103.856696,472.58087 103.662609,472.386783 103.423304,472.386783 C103.183304,472.386783 102.989217,472.58087 102.989217,472.82087 Z" id="Path" fill="#FEFEFE" fill-rule="nonzero"></path>
            <path d="M104.893913,478.968348 C104.765217,479.233391 104.337391,479.542957 104.337391,479.542957 C104.029217,479.307826 104.013913,478.782609 104.013913,478.782609 L104.016696,478.782609 C103.328696,478.678957 102.473739,478.64487 101.502609,478.801391 C101.532522,479.179826 101.178435,479.542957 101.178435,479.542957 C100.953043,479.414261 100.743652,479.129739 100.646957,478.985043 C100.329043,479.069913 100.001391,479.176348 99.6646957,479.307826 C99.5853913,479.33913 100.208696,482.144 102.882783,482.261565 C105.55687,482.37913 105.821913,479.307826 105.821913,479.307826 C105.821913,479.307826 105.485913,479.131826 104.893913,478.968348 Z" id="Path" fill="#010202" fill-rule="nonzero"></path>
            <path d="M101.178435,479.542957 C101.178435,479.542957 101.532522,479.180522 101.502609,478.801391 C101.226435,478.846609 100.940522,478.906435 100.646957,478.985043 C100.743652,479.129739 100.953043,479.414261 101.178435,479.542957 Z" id="Path" fill="#FEFEFE" fill-rule="nonzero"></path>
            <path d="M104.337391,479.542957 C104.337391,479.542957 104.764522,479.233391 104.893217,478.968348 C104.644174,478.899478 104.349913,478.832696 104.016,478.782609 L104.013913,478.782609 C104.013913,478.782609 104.028522,479.307826 104.337391,479.542957 Z" id="Path" fill="#FEFEFE" fill-rule="nonzero"></path>
            <path d="M101.267478,481.771826 C101.267478,481.771826 103.102609,480.078609 104.577391,481.771826 C104.577391,481.771826 103.270957,482.887652 101.267478,481.771826 Z" id="Path" fill="#010202" fill-rule="nonzero"></path>
            <g id="Clipped" transform="translate(92.521739, 466.086957)">
                <mask id="mask-2" fill="white">
                    <use xlink:href="#path-1"></use>
                </mask>
                <g id="Path"></g>
                <path d="M2.16208696,10.0827826 C2.16208696,10.0827826 -0.386086957,12.6573913 0.0500869565,13.1721739 C0.486956522,13.6876522 2.31026087,12.1613913 2.31026087,12.1613913 C2.31026087,12.1613913 1.12069565,14.2824348 1.47756522,14.4806957 C1.83443478,14.6789565 3.53878261,13.1325217 3.53878261,13.1325217 C3.53878261,13.1325217 1.99304348,16.3436522 2.54817391,16.6212174 C3.1026087,16.8987826 4.17321739,15.3926957 4.17321739,15.3926957 C4.17321739,15.3926957 3.77669565,18.722087 4.17321739,18.8410435 C4.56973913,18.96 5.79826087,16.4452174 5.79826087,16.4452174 C5.79826087,16.4452174 5.4413913,18.6907826 5.79826087,18.8452174 C6.15513043,18.9996522 7.424,17.0177391 7.424,17.0177391 C7.424,17.0177391 7.10678261,20.3471304 7.66191304,20.466087 C8.21634783,20.5850435 9.168,17.9686957 9.168,17.9686957 C9.168,17.9686957 8.96973913,19.4330435 9.40591304,19.5728696 C9.84208696,19.7133913 11.3085217,16.8591304 11.3085217,16.8591304 C11.3085217,16.8591304 11.2292174,20.7436522 11.7446957,20.8626087 C12.2601739,20.9815652 13.0525217,17.8024348 13.0525217,17.8024348 C13.0525217,17.8024348 13.330087,19.6709565 13.7662609,19.5728696 C14.2024348,19.4754783 14.4,16.9384348 14.4,16.9384348 C14.4,16.9384348 15.3558261,19.0789565 15.7502609,18.96 C16.1446957,18.8410435 15.7502609,15.7885217 15.7502609,15.7885217 C15.7502609,15.7885217 16.8570435,17.1213913 17.213913,16.8911304 C17.5714783,16.6608696 17.213913,15.1547826 17.213913,15.1547826 C17.213913,15.1547826 18.6191304,16.3833043 19.0267826,15.9867826 C19.4344348,15.5902609 17.8093913,13.1721739 17.8093913,13.1721739 C17.8093913,13.1721739 18.8966957,13.7669565 19.0267826,13.2911304 C19.1575652,12.816 17.6111304,11.1088696 17.4921739,11.0706087 C17.3732174,11.0316522 20.2650435,12.1850435 20.4257391,11.6264348 C20.5864348,11.0678261 18.4834783,9.248 18.4834783,9.248 C18.4834783,9.248 20.0292174,9.32730435 20.1085217,8.85147826 C20.1878261,8.37634783 18.7213913,7.71617391 18.5627826,7.59026087 C18.4041739,7.46434783 20.3638261,7.62295652 20.4347826,7.14713043 C20.5050435,6.67130435 17.968,5.79965217 17.8490435,5.76 C17.730087,5.72034783 18.3645217,5.40313043 18.4041739,5.04626087 C18.4438261,4.6893913 17.213913,4.72904348 17.213913,4.72904348 C17.213913,4.72904348 18.976,4.21356522 19.0267826,3.57982609 C19.0782609,2.9453913 14.4403478,3.104 14.4403478,3.104 C14.4403478,3.104 15.7182609,2.15582609 15.3913043,1.67652174 C15.0650435,1.19791304 13.4886957,2.07304348 13.4886957,2.07304348 C13.4886957,2.07304348 14.4403478,0.438956522 14.1627826,0.0473043478 C13.8852174,-0.345043478 11.0309565,2.46956522 11.0309565,2.46956522 C11.0309565,2.46956522 11.3878261,0.205913043 10.8723478,0.00973913043 C10.3568696,-0.186434783 9.168,2.66782609 9.168,2.66782609 C9.168,2.66782609 6.82921739,0.24973913 6.39304348,0.448 C5.95686957,0.64626087 6.98782609,2.50921739 6.98782609,2.50921739 C6.98782609,2.50921739 5.63965217,1.38295652 5.32313043,1.52973913 C5.00591304,1.67652174 5.52069565,2.98504348 5.52069565,2.98504348 C5.52069565,2.98504348 3.53878261,2.07304348 3.1026087,2.46956522 C2.66713043,2.86608696 4.05426087,3.77808696 4.05426087,3.77808696 C4.05426087,3.77808696 1.3586087,3.34191304 1.12069565,3.77808696 C0.882782609,4.21356522 2.70678261,4.6893913 2.70678261,4.6893913 C2.70678261,4.6893913 0.447304348,4.88765217 0.249043478,5.48243478 C0.0507826087,6.07721739 2.34991304,6.4333913 2.34991304,6.4333913 C2.34991304,6.4333913 0.0111304348,7.57982609 0.0507826087,8.05704348 C0.0904347826,8.53495652 1.91373913,8.33530435 1.91373913,8.33530435 C1.91373913,8.33530435 0.249043478,9.48591304 0.328347826,9.84278261 C0.397217391,10.1537391 1.76417391,10.1029565 2.11130435,10.0848696 C2.16208696,10.0827826 2.19130435,10.0806957 2.19130435,10.0806957" id="Path" fill="#4ABFAD" fill-rule="nonzero" mask="url(#mask-2)"></path>
            </g>
            <path d="M100.64,476.601739 C99.8706087,476.092522 99.0984348,475.904 98.9154783,476.180174 C98.7325217,476.457043 99.2069565,477.094261 99.9770435,477.604174 C100.745739,478.113391 101.518609,478.302609 101.701565,478.025739 C101.884522,477.74887 101.410087,477.111652 100.64,476.601739 Z M108.360348,470.927304 C108.24487,470.564174 107.332174,470.530087 106.322087,470.851478 C105.312,471.17287 104.58713,471.727304 104.702609,472.09113 C104.818087,472.454261 105.730783,472.487652 106.74087,472.166957 C107.750957,471.845565 108.475826,471.290435 108.360348,470.927304 Z M109.029565,476.589913 C108.241391,475.581217 107.308522,474.992696 106.946087,475.275826 C106.582957,475.559652 106.927304,476.607304 107.715478,477.616 C108.502957,478.624696 109.435826,479.213217 109.798957,478.930087 C110.161391,478.646957 109.817043,477.599304 109.029565,476.589913 Z M97.2166957,473.657043 C96.9725217,473.565217 96.5676522,474.041739 96.3130435,474.721391 C96.0577391,475.401043 96.0493913,476.025739 96.2942609,476.117565 C96.5384348,476.209391 96.9426087,475.732174 97.197913,475.053217 C97.4525217,474.373565 97.4608696,473.74887 97.2166957,473.657043 Z M98.6441739,471.499826 C97.8747826,470.990609 97.1026087,470.801391 96.9189565,471.078261 C96.736,471.35513 97.2111304,471.992348 97.9805217,472.501565 C98.749913,473.011478 99.522087,473.2 99.7050435,472.923826 C99.8886957,472.646957 99.4135652,472.009043 98.6441739,471.499826 Z" id="Shape" fill-opacity="0.1" fill="#4ABFAD" fill-rule="nonzero"></path>
            <path d="M105.855304,473.504 C105.855304,475.224348 104.460522,476.61913 102.740174,476.61913 C101.01913,476.61913 99.6250435,475.224348 99.6250435,473.504 C99.6250435,471.783652 101.01913,470.38887 102.740174,470.38887 C104.460522,470.38887 105.855304,471.783652 105.855304,473.504 Z" id="Path" fill="#FEFEFE" fill-rule="nonzero"></path>
            <path d="M104.091826,473.481739 C104.091826,474.224696 103.489391,474.826435 102.74713,474.826435 C102.004174,474.826435 101.402435,474.224696 101.402435,473.481739 C101.402435,472.739478 102.004174,472.137043 102.74713,472.137043 C103.489391,472.137043 104.091826,472.739478 104.091826,473.481739 Z" id="Path" fill="#4ABFAD" fill-rule="nonzero"></path>
            <path d="M102.989217,472.82087 C102.989217,473.060174 103.183304,473.254261 103.423304,473.254261 C103.662609,473.254261 103.856696,473.060174 103.856696,472.82087 C103.856696,472.58087 103.662609,472.386783 103.423304,472.386783 C103.183304,472.386783 102.989217,472.58087 102.989217,472.82087 Z" id="Path" fill="#FEFEFE" fill-rule="nonzero"></path>
            <path d="M104.893913,478.968348 C104.765217,479.233391 104.337391,479.542957 104.337391,479.542957 C104.029217,479.307826 104.013913,478.782609 104.013913,478.782609 L104.016696,478.782609 C103.328696,478.678957 102.473739,478.64487 101.502609,478.801391 C101.532522,479.179826 101.178435,479.542957 101.178435,479.542957 C100.953043,479.414261 100.743652,479.129739 100.646957,478.985043 C100.329043,479.069913 100.001391,479.176348 99.6646957,479.307826 C99.5853913,479.33913 100.208696,482.144 102.882783,482.261565 C105.55687,482.37913 105.821913,479.307826 105.821913,479.307826 C105.821913,479.307826 105.485913,479.131826 104.893913,478.968348 Z" id="Path" fill="#000000" fill-rule="nonzero" opacity="0.5"></path>
            <path d="M101.178435,479.542957 C101.178435,479.542957 101.532522,479.180522 101.502609,478.801391 C101.226435,478.846609 100.940522,478.906435 100.646957,478.985043 C100.743652,479.129739 100.953043,479.414261 101.178435,479.542957 Z" id="Path" fill="#FEFEFE" fill-rule="nonzero"></path>
            <path d="M104.337391,479.542957 C104.337391,479.542957 104.764522,479.233391 104.893217,478.968348 C104.644174,478.899478 104.349913,478.832696 104.016,478.782609 L104.013913,478.782609 C104.013913,478.782609 104.028522,479.307826 104.337391,479.542957 Z" id="Path" fill="#FEFEFE" fill-rule="nonzero"></path>
            <path d="M104.577391,481.771826 C104.577391,481.771826 103.270957,482.887652 101.267478,481.771826 C101.267478,481.771826 103.102609,480.078609 104.577391,481.771826 Z" id="Path" fill-opacity="0.7" fill="#010202" fill-rule="nonzero" opacity="0.7"></path>
            <path d="M21.146713,497.308522 C20.9456696,497.596522 20.6644174,497.812174 20.3029565,497.956174 C19.9442783,498.098087 19.5258435,498.168348 19.0475826,498.168348 C18.5638261,498.168348 18.1345391,498.055652 17.759513,497.830261 C17.384487,497.602087 17.0937739,497.278609 16.8872348,496.859826 C16.6834087,496.441739 16.5787826,495.95687 16.5733565,495.405217 L16.5733565,494.886957 C16.5733565,493.993043 16.7812174,493.300174 17.1970087,492.808348 C17.615513,492.316522 18.2024348,492.070957 18.957913,492.070957 C19.5774609,492.070957 20.0761043,492.229565 20.4537739,492.547478 C20.831513,492.862609 21.0624696,493.311304 21.146713,493.89287 L20.3641043,493.89287 C20.2173913,493.107478 19.7499826,492.714435 18.9619478,492.714435 C18.4374957,492.714435 18.0393739,492.899478 17.7676522,493.26887 C17.4986435,493.636174 17.3627826,494.168348 17.3600696,494.866783 L17.3600696,495.351652 C17.3600696,496.017391 17.5122087,496.547478 17.8165565,496.941913 C18.1209043,497.33287 18.5325913,497.528348 19.0516174,497.528348 C19.345113,497.528348 19.6018783,497.495652 19.8219826,497.430957 C20.042087,497.365565 20.2242087,497.255652 20.3682087,497.100522 L20.3682087,495.767652 L18.9945739,495.767652 L18.9945739,495.131826 L21.146713,495.131826 L21.146713,497.308522 Z M25.0597565,498.086957 C25.0162783,498 24.9810087,497.84487 24.9538087,497.622261 C24.6032696,497.986087 24.1847652,498.168348 23.6983652,498.168348 C23.2635826,498.168348 22.9062261,498.045913 22.6263652,497.801739 C22.3492174,497.554087 22.2105739,497.241739 22.2105739,496.864 C22.2105739,496.40487 22.384487,496.048696 22.732313,495.796174 C23.0828522,495.54087 23.5747478,495.41287 24.2078609,495.41287 L24.9415652,495.41287 L24.9415652,495.066435 C24.9415652,494.802783 24.8627478,494.594087 24.7051826,494.438957 C24.5475478,494.281043 24.3152,494.202435 24.0081391,494.202435 C23.7391304,494.202435 23.5136,494.270609 23.3315478,494.406261 C23.1494261,494.541913 23.0584348,494.706783 23.0584348,494.899478 L22.3002435,494.899478 C22.3002435,494.679652 22.3777391,494.467478 22.5325913,494.263652 C22.6902261,494.057043 22.9021913,493.894261 23.168487,493.774609 C23.4374957,493.654957 23.732313,493.59513 24.0530087,493.59513 C24.561113,493.59513 24.9592348,493.72313 25.2473043,493.978435 C25.5353043,494.230957 25.6848,494.580174 25.6956522,495.026087 L25.6956522,497.056 C25.6956522,497.46087 25.7472696,497.782261 25.8505739,498.021565 L25.8505739,498.086957 L25.0597565,498.086957 Z M23.8084174,497.512348 C24.0448696,497.512348 24.2690087,497.45113 24.4809739,497.328696 C24.6929391,497.206261 24.8464696,497.047652 24.9415652,496.852174 L24.9415652,495.94713 L24.3505391,495.94713 C23.4266435,495.94713 22.9646609,496.217043 22.9646609,496.758261 C22.9646609,496.994783 23.0434783,497.17913 23.201113,497.312696 C23.3586783,497.445565 23.561113,497.512348 23.8084174,497.512348 Z M27.5869217,493.676522 L27.6073043,494.165565 C27.930713,493.785043 28.3668174,493.59513 28.9157565,493.59513 C29.5325913,493.59513 29.9524174,493.831652 30.1753043,494.304 C30.3220174,494.092522 30.5122087,493.921391 30.7459478,493.790609 C30.9823304,493.660522 31.2608696,493.59513 31.5814957,493.59513 C32.5489391,493.59513 33.0407652,494.10713 33.0570435,495.131826 L33.0570435,498.086957 L32.3029565,498.086957 L32.3029565,495.176348 C32.3029565,494.861217 32.2309565,494.626087 32.0869565,494.471652 C31.9429565,494.313739 31.7010783,494.23513 31.3613913,494.23513 C31.0815304,494.23513 30.8491826,494.319304 30.6644174,494.487652 C30.4796522,494.653217 30.372313,494.877913 30.3424,495.160348 L30.3424,498.086957 L29.5842087,498.086957 L29.5842087,495.197217 C29.5842087,494.555826 29.2704,494.23513 28.6426435,494.23513 C28.1481043,494.23513 27.8098087,494.445913 27.627687,494.866783 L27.627687,498.086957 L26.8736696,498.086957 L26.8736696,493.676522 L27.5869217,493.676522 Z M36.0285217,498.168348 C35.4306783,498.168348 34.9442783,497.97287 34.5693217,497.581217 C34.1942957,497.187478 34.0068174,496.661565 34.0068174,496.004174 L34.0068174,495.865739 C34.0068174,495.428174 34.0896696,495.037913 34.2554435,494.695652 C34.4239304,494.350609 34.6576,494.081391 34.9565217,493.888696 C35.2581565,493.693217 35.5842087,493.59513 35.9347478,493.59513 C36.5081739,493.59513 36.9538087,493.783652 37.2717217,494.161391 C37.5897043,494.53913 37.7486609,495.080348 37.7486609,495.783652 L37.7486609,496.098087 L34.7609043,496.098087 C34.7717565,496.53287 34.898087,496.884174 35.1399652,497.153391 C35.384487,497.419826 35.6942609,497.552696 36.069287,497.552696 C36.3355826,497.552696 36.561113,497.498435 36.7459478,497.389913 C36.930713,497.281391 37.0923826,497.137391 37.2309565,496.957913 L37.6915478,497.31687 C37.3220174,497.884522 36.7676522,498.168348 36.0285217,498.168348 Z M35.9347478,494.214957 C35.6304696,494.214957 35.3750261,494.326261 35.168487,494.54887 C34.9619478,494.768696 34.8342261,495.078957 34.7853217,495.478261 L36.9945739,495.478261 L36.9945739,495.421217 C36.9728,495.037913 36.8695652,494.741565 36.6848,494.53287 C36.5000348,494.320696 36.2500174,494.214957 35.9347478,494.214957 Z M41.1929043,496.91687 C41.1929043,496.713043 41.1154783,496.555826 40.9606261,496.444522 C40.8084174,496.330435 40.5407304,496.232348 40.1576348,496.150957 C39.7771826,496.069565 39.4741565,495.971478 39.2486261,495.857391 C39.0258087,495.743304 38.8600348,495.607652 38.7513739,495.449739 C38.6453565,495.291826 38.5924174,495.104696 38.5924174,494.886957 C38.5924174,494.525913 38.7445565,494.219826 39.0489043,493.970087 C39.3559652,493.720348 39.7472696,493.59513 40.2228174,493.59513 C40.7228522,493.59513 41.1277217,493.724522 41.4374957,493.982609 C41.7499826,494.240696 41.9062261,494.570435 41.9062261,494.972522 L41.1481043,494.972522 C41.1481043,494.766609 41.0597565,494.588522 40.8831304,494.438957 C40.7092174,494.289391 40.489113,494.214957 40.2228174,494.214957 C39.9483826,494.214957 39.7337043,494.274783 39.5787826,494.393739 C39.4239304,494.513391 39.3464348,494.669913 39.3464348,494.862609 C39.3464348,495.04487 39.4185043,495.181913 39.5625043,495.274435 C39.7065043,495.366957 39.9660522,495.455304 40.3410087,495.539478 C40.7187478,495.623652 41.024487,495.724522 41.2581565,495.840696 C41.4918261,495.957565 41.6644174,496.099478 41.7757913,496.265043 C41.8899478,496.427826 41.9469913,496.627478 41.9469913,496.864 C41.9469913,497.258435 41.7894261,497.574957 41.4741565,497.813565 C41.1589565,498.050087 40.7499826,498.168348 40.2473043,498.168348 C39.8940522,498.168348 39.5814957,498.105739 39.3097739,497.981217 C39.0380522,497.856 38.8246957,497.682087 38.6698435,497.459478 C38.5176348,497.233391 38.4416,496.990609 38.4416,496.729739 L39.195687,496.729739 C39.2092522,496.982261 39.3097739,497.183304 39.4972522,497.33287 C39.687513,497.479652 39.9375304,497.552696 40.2473043,497.552696 C40.5325913,497.552696 40.7609043,497.495652 40.9320348,497.381565 C41.1059478,497.264696 41.1929043,497.110261 41.1929043,496.91687 Z" id="Shape" fill="#FFD001" fill-rule="nonzero"></path>
            <path d="M23.3931826,467.511652 L23.3280696,467.522783 L23.3622261,467.522783 C22.7302261,467.618783 22.2626087,468.161391 22.2608623,468.800696 L22.2608623,470.451478 C22.261287,471.094957 22.7346087,471.641043 23.3718261,471.732174 L23.4924522,471.744 C28.8902957,472.305391 28.1741913,476.567652 28.1741913,476.567652 L24.0431304,476.539826 C24.0014609,476.539826 23.9598609,476.533565 23.9171478,476.533565 C23.8745043,476.533565 23.8521043,476.533565 23.8200348,476.533565 C22.9428174,476.584348 22.2582957,477.312 22.2608623,478.190609 L22.2608623,484.594087 C22.2608623,485.50887 23.0024348,486.250435 23.9171478,486.250435 L34.0768696,486.250435 C34.5160348,486.250435 34.9371826,486.075826 35.2476522,485.76487 C35.5581217,485.454609 35.7323826,485.033043 35.7321047,484.594087 L35.7321047,476.618435 C35.7321047,467.611826 26.6363826,467.326609 23.3931826,467.511652 Z" id="Path" fill="#FFD001" fill-rule="nonzero"></path>
            <path d="M31.5945739,480.711652 C30.2360348,480.453565 29.554087,481.855304 27.390887,481.612522 C27.390887,481.612522 25.8370087,481.415652 26.4186435,482.801391 C27.0002783,484.186435 29.744,485.353739 31.0523826,483.769739 C32.3607652,482.186435 32.953113,480.967652 31.5945739,480.711652 Z" id="Path" fill="#FFFFFF" fill-rule="nonzero"></path>
            <path d="M31.5325913,478.346435 C31.0551652,478.307478 30.5853217,478.484174 30.2519652,478.827826 C30.1995826,478.860522 30.1579826,478.90713 30.1324522,478.963478 C30.0298435,479.145739 29.9922087,479.357913 30.0256696,479.564522 C30.0705391,479.770435 30.1750957,479.836522 30.2679652,479.727304 C30.5562435,479.369043 31.0027826,479.176348 31.4613565,479.21113 C31.9199304,479.246609 32.3315478,479.506087 32.5613217,479.904696 C32.6381913,480.026435 32.7630609,479.977043 32.8270609,479.780174 C32.8911304,479.582609 32.8889739,479.29113 32.8132174,479.169391 C32.5524174,478.697043 32.070887,478.387478 31.5325913,478.346435 Z" id="Path" fill="#FFFFFF" fill-rule="nonzero"></path>
            <path d="M28.2371478,479.570783 C28.3129739,479.692522 28.4377739,479.644522 28.5018435,479.445565 C28.5658435,479.247304 28.5637565,478.957217 28.4879304,478.835478 C28.2406957,478.390261 27.7977043,478.088348 27.2930783,478.021565 C26.7885217,477.954087 26.2818783,478.129391 25.9266783,478.493913 C25.8773565,478.530087 25.8362435,478.576 25.8061217,478.629565 C25.704,478.811826 25.6664348,479.024 25.6994087,479.229913 C25.7442087,479.436522 25.8487652,479.502609 25.9426783,479.393391 C26.2309565,479.034435 26.6777739,478.841043 27.1366957,478.876522 C27.5956174,478.912 28.0074435,479.171478 28.2371478,479.570783 Z" id="Path" fill="#FFFFFF" fill-rule="nonzero"></path>
            <g transform="translate(14.000000, 69.000000)">
                <rect id="Rectangle" fill="#03BED6" x="0" y="0" width="260" height="114" rx="3"></rect>
                <g id="Group-30" transform="translate(90.000000, 4.000000)">
                    <path d="M54.1114087,13.4761615 L54.1114087,11.9037979 C54.1114087,10.2773229 55.4300183,8.9587133 57.0562085,8.9587133 L69.3936097,8.9587133 C71.0197999,8.9587133 72.3384095,10.2773229 72.3384095,11.9037979 L72.3384095,35.0948085" id="Fill-2" fill="#D43026"></path>
                    <path d="M69.7463021,100.52097 L8.85758192,100.52097 C6.96197384,100.52097 5.41125479,98.9830665 5.41125479,97.103407 L5.41125479,43.1343968 L39.158262,3.40523095 L73.1929141,43.1343968 L73.1929141,97.103407 C73.1929141,98.9830665 71.6419102,100.52097 69.7463021,100.52097" id="Fill-4" fill="#0378D6"></path>
                    <path d="M0.0941538511,46.9506466 L38.5494232,0.331104862 C38.8701045,-0.0576428901 39.4647604,-0.0607756558 39.7894289,0.324554533 L79.0794379,46.9506466" id="Stroke-6" stroke="#EF4364" stroke-width="6" stroke-linecap="round"></path>
                    <path d="M62.2673365,75.3164451 L45.9857832,75.3164451 C43.4021059,75.3164451 41.3074247,73.2220488 41.3074247,70.6383714 L41.3074247,58.0651584 C41.3074247,55.4814811 43.4021059,53.3870847 45.9857832,53.3870847 L62.2673365,53.3870847 C64.8507291,53.3870847 66.9454102,55.4814811 66.9454102,58.0651584 L66.9454102,70.6383714 C66.9454102,73.2220488 64.8507291,75.3164451 62.2673365,75.3164451" id="Fill-8" fill="#03BED6"></path>
                    <path d="M32.920726,96.9610086 L16.9268176,96.9610086 C14.3431402,96.9610086 12.2487439,94.8666122 12.2487439,92.2829349 L12.2487439,58.0651584 C12.2487439,55.4814811 14.3431402,53.3870847 16.9268176,53.3870847 L32.920726,53.3870847 C35.5044034,53.3870847 37.5987997,55.4814811 37.5987997,58.0651584 L37.5987997,92.2829349 C37.5987997,94.8666122 35.5044034,96.9610086 32.920726,96.9610086" id="Fill-10" fill="#FE5723"></path>
                    <path d="M71.5351968,91.6527648 C70.8061168,87.7160174 66.9852817,84.7134038 62.3789769,84.7134038 C57.7242565,84.7134038 53.8703851,87.7783879 53.198834,91.7755123 C49.3993587,92.8161601 46.6359745,95.9782599 46.6359745,99.7187823 C46.6359745,104.306575 50.7928699,108.025453 55.9200683,108.025453 C58.7187673,108.025453 61.2261191,106.915884 62.9280653,105.163529 C64.6311507,106.995343 67.1971706,108.161871 70.0684928,108.161871 C75.1956912,108.161871 79.352017,104.442708 79.352017,99.8552 C79.352017,95.7142532 75.9654972,92.2821659 71.5351968,91.6527648" id="Fill-12" fill="#8CC63F"></path>
                    <path d="M17.2068584,77.1790167 L17.0943636,77.2103444 L17.1516078,77.1995221 C16.1160863,77.467516 15.4009613,78.454622 15.5108929,79.5516596 L15.7905634,82.3440931 C15.9010646,83.4485354 16.8092819,84.2781488 17.8866685,84.3251402 C17.9553046,84.3245707 18.0242254,84.3240011 18.0920071,84.3242859 C27.3182871,84.3581767 26.8298604,91.6899878 26.8298604,91.6899878 L26.83043,91.6899878 L19.8386664,92.3433118 C19.7674672,92.3450206 19.696268,92.3467294 19.6244991,92.3538493 C19.5692485,92.3595452 19.5157067,92.3700827 19.4615953,92.3786266 C17.9997329,92.6110209 16.9542435,93.9435855 17.1037619,95.4356364 L18.1868445,106.273012 C18.341774,107.820029 19.7213301,108.948679 21.2683468,108.79375 L38.4538454,107.072722 C40.0008621,106.917793 41.1295121,105.537952 40.9745826,103.990935 L40.6225737,100.476541 L40.1825625,96.081271 L39.6229366,90.4946952 C38.0972797,75.2594857 22.6595796,76.3183605 17.2068584,77.1790167" id="Fill-14" fill="#FFCF01"></path>
                    <path d="M33.3166506,98.1163156 C30.9756202,97.9101227 30.0591438,100.397539 26.3587779,100.352541 C26.3587779,100.352541 23.6964966,100.28362 24.9159968,102.526965 C26.1354971,104.770595 30.9727722,106.282297 32.9182198,103.381925 C34.8633825,100.482123 35.657681,98.3222238 33.3166506,98.1163156" id="Fill-16" fill="#EE4364"></path>
                    <path d="M32.8111646,94.1280485 C32.0088918,94.1462755 31.255604,94.5071131 30.7347105,95.1584436 C30.6532586,95.2102767 30.5943057,95.3091012 30.5547189,95.4082105 C30.4165924,95.6568382 30.3855495,96.1011213 30.4755454,96.4425928 C30.5863313,96.7837795 30.7742973,96.8771928 30.913563,96.6784046 C31.3105698,96.0302069 32.0630032,95.619245 32.8450555,95.6013028 C33.6271077,95.5833606 34.3974833,95.9592925 34.8235394,96.5886936 C34.972773,96.7809315 35.1764028,96.6784046 35.25045,96.3332308 C35.324782,95.9857786 35.2723793,95.4959279 35.1240002,95.3034052 C34.59143,94.5284729 33.7162491,94.1072583 32.8111646,94.1280485" id="Fill-18" fill="#000000"></path>
                    <path d="M27.4351962,96.7579769 C27.5844298,96.9504996 27.7880595,96.8476879 27.8621067,96.5027988 C27.9361539,96.1553466 27.8840361,95.6652112 27.7356569,95.4726885 C27.2030867,94.698041 26.3279059,94.2765416 25.4228214,94.2973317 C24.6205485,94.3158435 23.8672608,94.6763964 23.3463673,95.3277269 C23.2865599,95.3789903 23.2059624,95.4786692 23.1663756,95.5774938 C23.0279643,95.8264062 22.9972063,96.2704046 23.0869173,96.6118761 C23.1979881,96.9530627 23.385954,97.0467609 23.5252197,96.8474031 C23.9222266,96.1994902 24.6743752,95.788813 25.4567122,95.770586 C26.2387645,95.7529286 27.0088552,96.1285757 27.4351962,96.7579769" id="Fill-20" fill="#000000"></path>
                    <path d="M60.7735483,75.2435656 L60.9996771,74.2265559 L61.6071488,71.4916514 L62.3792332,68.0154206 C64.4847366,58.5351018 54.9756533,56.1080627 51.5199279,55.5438801 L51.4458807,55.5404625 L51.4826195,55.5455888 C50.8056573,55.5011605 50.1788193,55.9539876 50.0273074,56.6363609 L49.6414076,58.3741915 C49.4887565,59.0614064 49.8709539,59.7412166 50.5106077,59.9835787 C50.552188,59.9969642 50.5937684,60.0103496 50.6344943,60.0240199 C56.1857553,61.8757693 54.4353936,66.1952837 54.4353936,66.1952837 L54.4359632,66.1955684 L50.0945194,65.2010577 C50.0515151,65.1879571 50.008226,65.1748564 49.9635129,65.1648885 C49.9290524,65.157199 49.8948768,65.152927 49.8607012,65.1475159 C48.9339721,64.9971431 48.0394251,65.5923686 47.8332322,66.5208065 L46.3340613,73.2639424 C46.1204637,74.2265559 46.7273658,75.1803407 47.6899793,75.3939383" id="Fill-22" fill="#FFCF01"></path>
                    <path d="M57.0672871,71.3543223 C55.6979836,70.7656471 54.6522095,72.0816936 52.4322177,71.3201467 C52.4322177,71.3201467 50.8421967,70.7499833 51.1312656,72.3437067 C51.4206192,73.9368605 54.0342002,75.807976 55.7817139,74.4472165 C57.5292276,73.086457 58.4365905,71.9429975 57.0672871,71.3543223" id="Fill-24" fill="#EE4364"></path>
                    <path d="M57.5545461,68.8514988 C57.0678282,68.7031196 56.5420931,68.7711861 56.0995188,69.0599701 C56.0399962,69.0750643 55.9847456,69.123195 55.9411717,69.1747433 C55.8084564,69.2972059 55.7016575,69.5583647 55.6879815,69.782215 C55.6871329,70.0094829 55.7816855,70.1034659 55.9052873,70.0109069 C56.2729601,69.6996239 56.8078086,69.601369 57.282565,69.7460458 C57.7573215,69.890153 58.1466388,70.2695025 58.278215,70.7331518 C58.330048,70.8789678 58.473016,70.8576081 58.5860804,70.664231 C58.6997144,70.4699995 58.7655024,70.1641276 58.714239,70.0188812 C58.547348,69.4464395 58.1039193,69.0186746 57.5545461,68.8514988" id="Fill-26" fill="#000000"></path>
                    <path d="M53.7940595,69.3685191 C53.8458925,69.5140503 53.9888606,69.4926905 54.1019249,69.2993134 C54.2152741,69.1047971 54.281347,68.7992101 54.2300835,68.6539637 C54.0631926,68.0815219 53.6197638,67.653757 53.0703906,67.486866 C52.5833879,67.3384868 52.0579377,67.4062685 51.6150785,67.6950525 C51.5689414,67.7141339 51.5003054,67.7582775 51.4570162,67.8098257 C51.3243009,67.9322883 51.217502,68.1937319 51.2038216,68.4172974 C51.2026926,68.6448502 51.29753,68.7385483 51.4211318,68.6462741 C51.7888046,68.3344216 52.3236532,68.2364514 52.7981248,68.3808434 C53.2728812,68.5255203 53.6621985,68.9048697 53.7940595,69.3685191" id="Fill-28" fill="#000000"></path>
                </g>
                <text id="My-house" font-family="VarelaRound-Regular, Varela Round" font-size="24" font-weight="normal" fill="#FFFFFF">
                    <tspan x="74.488" y="65">My house</tspan>
                </text>
            </g>
            <g transform="translate(14.000000, 198.000000)">
                <rect id="Rectangle" fill="#FE5723" x="0" y="0" width="260" height="114" rx="3"></rect>
                <g id="playground" transform="translate(75.000000, 2.000000)" fill-rule="nonzero">
                    <g id="Group" transform="translate(57.251462, 68.401559)" fill="#99522E">
                        <path d="M3.60791423,41.3840156 C1.63155945,41.3840156 0.0278752437,39.7803314 0.0278752437,37.8039766 L0.0278752437,3.75007797 C0.0278752437,1.7737232 1.63155945,0.170038986 3.60791423,0.170038986 C5.58426901,0.170038986 7.18795322,1.7737232 7.18795322,3.75007797 L7.18795322,37.804191 C7.18795322,39.7803314 5.58426901,41.3840156 3.60791423,41.3840156 Z" id="Path"></path>
                        <path d="M17.9278558,41.3840156 C15.951501,41.3840156 14.3478168,39.7803314 14.3478168,37.8039766 L14.3478168,23.2674659 C14.3478168,21.2911111 15.951501,19.6874269 17.9278558,19.6874269 C19.9042105,19.6874269 21.5078947,21.2911111 21.5078947,23.2674659 L21.5078947,37.8039766 C21.5076803,39.7803314 19.9042105,41.3840156 17.9278558,41.3840156 Z" id="Path"></path>
                    </g>
                    <path d="M106.205536,109.785575 L105.566979,109.785575 C88.6389864,109.785575 73.317037,99.7659259 66.5345614,84.2574269 C63.1691618,76.5683626 55.5733723,71.5994932 47.1782066,71.5994932 L46.5394347,71.5994932 C44.5630799,71.5994932 42.9593957,69.995809 42.9593957,68.0194542 L42.9593957,53.6995127 C42.9593957,51.7231579 44.5630799,50.1194737 46.5394347,50.1194737 L47.1782066,50.1194737 C64.1061988,50.1194737 79.4281481,60.1391228 86.2106238,75.6476218 C89.5760234,83.3366862 97.1718129,88.3055556 105.566979,88.3055556 L106.205536,88.3055556 C108.181891,88.3055556 109.785575,89.9092398 109.785575,91.8855945 L109.785575,106.205536 C109.785575,108.181891 108.181891,109.785575 106.205536,109.785575 Z" id="Path" fill="#03BED6"></path>
                    <path d="M32.2197076,85.9192203 L17.8997661,85.9192203 C15.9234113,85.9192203 14.3197271,84.3155361 14.3197271,82.3391813 C14.3197271,80.3628265 15.9234113,78.7591423 17.8997661,78.7591423 L32.2197076,78.7591423 C34.1960624,78.7591423 35.7997466,80.3628265 35.7997466,82.3391813 C35.7997466,84.3155361 34.1960624,85.9192203 32.2197076,85.9192203 Z" id="Path" fill="#E6563A"></path>
                    <path d="M32.2197076,78.7591423 L25.0598441,78.7591423 L25.0598441,85.9190058 L32.2197076,85.9190058 C34.1960624,85.9190058 35.7997466,84.3153216 35.7997466,82.3389669 C35.7997466,80.3628265 34.1960624,78.7591423 32.2197076,78.7591423 Z" id="Path" fill="#D9472B"></path>
                    <path d="M32.2197076,100.238947 L17.8997661,100.238947 C15.9234113,100.238947 14.3197271,98.6352632 14.3197271,96.6589084 C14.3197271,94.6825536 15.9234113,93.0788694 17.8997661,93.0788694 L32.2197076,93.0788694 C34.1960624,93.0788694 35.7997466,94.6825536 35.7997466,96.6589084 C35.7997466,98.6354776 34.1960624,100.238947 32.2197076,100.238947 Z" id="Path" fill="#E6563A"></path>
                    <path d="M32.2197076,93.0790838 L25.0598441,93.0790838 L25.0598441,100.238947 L32.2197076,100.238947 C34.1960624,100.238947 35.7997466,98.6352632 35.7997466,96.6589084 C35.7997466,94.6825536 34.1960624,93.0790838 32.2197076,93.0790838 Z" id="Path" fill="#D9472B"></path>
                    <path d="M48.9195517,23.8663548 L1.6705848,23.8663548 L1.04896686,22.5285575 L22.5287719,1.04896686 C23.927037,-0.349298246 26.1926511,-0.349298246 27.5911306,1.04896686 L49.0709357,22.5287719 L48.9195517,23.8663548 Z" id="Path" fill="#E6563A"></path>
                    <path d="M48.9195517,23.8663548 L25.0598441,23.8663548 L25.0598441,0 C25.9758674,0 26.8918908,0.349727096 27.5909162,1.04896686 L49.0707212,22.5287719 L48.9195517,23.8663548 Z" id="Path" fill="#D43026"></path>
                    <path d="M46.5394347,21.4798051 L3.58003899,21.4798051 C1.60368421,21.4798051 0,23.0832749 0,25.0598441 L0,106.20575 C0,108.181891 1.60368421,109.785575 3.58003899,109.785575 L14.3199415,109.785575 C16.2962963,109.785575 17.8999805,108.181891 17.8999805,106.205536 L17.8999805,71.5992788 L32.219922,71.5992788 L32.219922,106.205536 C32.219922,108.181891 33.8236062,109.785575 35.799961,109.785575 L46.5398635,109.785575 C48.5162183,109.785575 50.1199025,108.181891 50.1199025,106.205536 L50.1199025,25.0598441 C50.1199025,23.0832749 48.5160039,21.4798051 46.5394347,21.4798051 Z M35.7997466,53.6995127 C35.7997466,55.6758674 34.1960624,57.2795517 32.2197076,57.2795517 L17.8997661,57.2795517 C15.9234113,57.2795517 14.3197271,55.6758674 14.3197271,53.6995127 L14.3197271,46.5396491 C14.3197271,40.6174464 19.1374269,35.7997466 25.0596296,35.7997466 C30.9818324,35.7997466 35.7997466,40.6174464 35.7997466,46.5396491 L35.7997466,53.6995127 L35.7997466,53.6995127 Z" id="Shape" fill="#FFC033"></path>
                    <path d="M46.5394347,21.4798051 L25.0598441,21.4798051 L25.0598441,35.7997466 C30.9820468,35.7997466 35.7997466,40.6174464 35.7997466,46.5396491 L35.7997466,53.6995127 C35.7997466,55.6758674 34.1960624,57.2795517 32.2197076,57.2795517 L25.0598441,57.2795517 L25.0598441,71.5994932 L32.2197076,71.5994932 L32.2197076,106.20575 C32.2197076,108.182105 33.8233918,109.785789 35.7997466,109.785789 L46.5396491,109.785789 C48.5160039,109.785789 50.1196881,108.182105 50.1196881,106.20575 L50.1196881,25.0598441 C50.1196881,23.0832749 48.5160039,21.4798051 46.5394347,21.4798051 Z" id="Path" fill="#F9A926"></path>
                </g>
                <text id="Kindergarten" font-family="VarelaRound-Regular, Varela Round" font-size="24" font-weight="normal" fill="#FFFFFF">
                    <tspan x="55.372" y="65">Kindergarten</tspan>
                </text>
            </g>
        </g>
    </g>
</svg>