<?xml version="1.0" encoding="UTF-8"?>
<svg width="1246px" height="334px" viewBox="0 0 1246 334" version="1.1" xmlns="http://www.w3.org/2000/svg" xmlns:xlink="http://www.w3.org/1999/xlink">
    <!-- Generator: Sketch 57.1 (83088) - https://sketch.com -->
    <title>TalkiPlay-logo</title>
    <desc>Created with Sketch.</desc>
    <g id="Page-1" stroke="none" stroke-width="1" fill="none" fill-rule="evenodd">
        <g id="TalkiPlay-logo" fill-rule="nonzero">
            <path d="M188.6856,21.5986 C189.4056,32.5666 181.2656,41.8516 170.6186,42.5496 L115.1246,46.1916 L127.3426,232.3486 C128.0626,243.3206 119.9226,252.6016 109.2756,253.3006 C98.3056,254.0206 89.0226,245.8826 88.3026,234.9106 L76.0856,48.7546 L20.9146,52.3756 C10.2666,53.0736 0.9836,44.9336 0.2646,33.9646 C-0.4344,23.3166 7.7046,14.0356 18.3526,13.3376 L168.0566,3.5116 C178.7036,2.8136 187.9866,10.9506 188.6856,21.5986" id="Fill-1" fill="#FFFFFF"></path>
            <path d="M445.4958,232.2611 C445.4958,243.2531 436.7658,251.9841 425.7728,251.9841 C412.1938,251.9841 398.9368,245.1961 390.5308,234.5251 C380.8308,221.9151 381.4778,207.6891 381.4778,192.4941 L381.4778,95.8171 L381.4778,25.9771 C381.4778,15.3101 390.2068,6.5781 400.8768,6.5781 C411.8698,6.5781 420.5998,15.3101 420.5998,25.9771 L420.5998,201.5461 C420.5998,202.5161 420.2768,203.4861 420.2768,204.4551 C420.2768,205.4251 420.5998,206.3951 420.5998,207.3651 C420.5998,210.2741 422.8638,212.8621 425.7728,212.8621 C436.7658,212.8621 445.4958,221.5901 445.4958,232.2611" id="Fill-3" fill="#FFFFFF"></path>
            <path d="M596.5394,245.2886 C592.4114,248.9016 586.7764,250.7966 581.6144,250.4536 C576.7754,250.1326 572.3654,248.2176 568.7294,244.4136 L506.9434,179.3886 L503.7504,227.4596 C503.0224,238.4276 493.7324,246.5616 482.7644,245.8326 C471.7944,245.1046 463.6624,235.8136 464.3914,224.8456 L478.0394,19.3396 C478.7684,8.3716 488.0574,0.2376 499.0264,0.9666 C509.9954,1.6946 518.1274,10.9856 517.3984,21.9536 L510.1564,130.9966 L576.6274,91.3426 C586.0674,85.8136 598.1994,88.5626 603.7284,98.0026 C609.6024,107.1436 606.5304,119.2526 597.3904,125.1236 L541.0924,158.0016 L597.4354,217.1566 C604.6864,225.0916 604.5164,237.3926 596.5394,245.2886" id="Fill-5" fill="#FFFFFF"></path>
            <path d="M665.9799,255.3142 C654.6939,256.0712 645.0599,247.6452 644.3229,236.6752 L635.9599,112.1522 C635.2229,101.1852 643.6659,91.8672 654.9519,91.1102 C665.5909,90.3962 675.2049,98.5012 675.9409,109.4692 L684.3039,233.9912 C685.0409,244.9622 676.6199,254.6002 665.9799,255.3142 M653.2619,65.9462 C641.9759,66.7032 632.3409,58.2772 631.6259,47.6302 L631.5179,46.0192 C630.7599,34.7282 639.2029,25.4102 650.4879,24.6532 C661.1279,23.9392 670.7409,32.0442 671.4999,43.3352 L671.6079,44.9472 C672.3229,55.5942 663.9009,65.2322 653.2619,65.9462" id="Fill-7" fill="#FFFFFF"></path>
            <path d="M828.3473,77.3692 C828.3473,58.6162 812.8273,41.4812 795.6923,41.4812 L742.0193,41.4812 L742.0193,109.7032 L793.1053,109.7032 C811.8583,109.7032 828.3473,94.5042 828.3473,77.3692 M866.8243,77.3692 C866.8243,115.5212 833.1983,148.1792 793.1053,148.1792 L742.0193,148.1792 L742.0193,229.3322 C742.0193,240.0032 733.6133,248.4102 722.9433,248.4102 C712.2733,248.4102 703.8673,240.0032 703.8673,229.3322 L703.8673,24.0212 C703.8673,13.9962 711.9493,3.6502 721.9733,3.0042 L795.6923,3.0042 C834.1673,3.0042 866.8243,36.9532 866.8243,77.3692" id="Fill-9" fill="#FFFFFF"></path>
            <path d="M923.7613,239.133 C922.6833,250.072 913.1393,257.905 902.1993,256.827 C888.6853,255.495 876.1583,247.439 868.8383,235.995 C860.4223,222.495 862.4603,208.401 863.9503,193.279 L873.4283,97.069 C875.7113,73.9 877.9933,50.734 880.2753,27.565 C881.3213,16.949 890.8653,9.116 901.4833,10.163 C912.4243,11.241 920.2553,20.786 919.2093,31.402 L901.9963,206.124 C901.9013,207.09 901.4843,208.023 901.3893,208.988 C901.2943,209.953 901.5213,210.95 901.4263,211.915 C901.1403,214.81 903.1393,217.608 906.0353,217.893 C916.9753,218.972 924.8073,228.514 923.7613,239.133" id="Fill-11" fill="#FFFFFF"></path>
            <path d="M1245.1274,110.3675 L1245.1274,251.6595 C1245.1274,296.6035 1209.2384,333.4615 1165.5894,333.4615 C1142.3094,333.4615 1120.6474,323.1155 1105.4504,305.0105 C1098.6604,296.9285 1099.6304,284.6385 1107.3904,277.5265 C1115.1504,270.4135 1127.1134,271.3835 1133.9034,279.7895 C1141.9864,289.1665 1153.6264,294.6645 1165.5894,294.6645 C1188.5454,294.6645 1207.2984,275.2655 1207.2984,251.6595 L1207.2984,238.4045 C1196.6284,244.5475 1184.0194,248.4265 1170.4394,248.4265 C1129.7004,248.4265 1096.3974,212.8625 1096.3974,168.8885 L1096.3974,111.0125 C1096.3974,100.6665 1104.8044,91.6145 1115.1504,91.6145 C1125.4964,91.6145 1133.9034,100.6665 1133.9034,111.0125 L1133.9034,168.8885 C1133.9034,191.1995 1150.3934,209.6285 1170.4394,209.6285 C1190.8084,209.6285 1207.2984,191.1995 1207.2984,168.8885 L1207.2984,110.3675 C1207.2984,99.6965 1216.0284,90.9685 1226.0514,90.9685 C1236.7214,90.9685 1245.1274,99.6965 1245.1274,110.3675" id="Fill-13" fill="#FFFFFF"></path>
            <path d="M214.1281,18.741296 L213.3161,18.8353 L213.7231,18.8243 C206.2831,19.5453 200.2691,25.5823 199.8331,33.2773 L198.7231,52.8633 C198.2841,60.6093 203.6511,67.3263 211.0391,68.8243 C211.5151,68.8953 211.9901,68.9673 212.4581,69.0423 C276.1291,79.3243 264.7701,129.4183 264.7701,129.4183 L264.7741,129.4193 L215.7851,126.3163 C215.2921,126.2503 214.7991,126.1843 214.2951,126.1553 C213.9081,126.1333 213.5271,126.1483 213.1441,126.1483 C202.7971,126.1613 194.1271,134.2253 193.5341,144.6893 L189.2111,220.7003 C188.5961,231.5503 196.8931,240.8453 207.7441,241.4603 L328.2821,248.2923 C339.1331,248.9073 348.4271,240.6093 349.0421,229.7593 L350.4391,205.1083 L352.1871,174.2803 L354.4081,135.0973 C360.4641,28.2363 252.7161,18.7363 214.1281,18.741296" id="Fill-15" fill="#FFCF01"></path>
            <path d="M301.0606,173.3702 C284.6336,173.1782 279.5676,191.0002 253.7526,192.6522 C253.7526,192.6522 235.1586,193.5872 244.8506,208.5772 C254.5436,223.5662 289.0616,231.5322 301.0806,210.2852 C313.0986,189.0382 317.4876,173.5622 301.0606,173.3702" id="Fill-17" fill="#EE4364"></path>
            <path d="M295.4193,145.8409 C289.8373,146.3949 284.7783,149.3109 281.4943,154.1259 L281.4943,154.1259 C280.9533,154.5299 280.5953,155.2529 280.3723,155.9619 C279.5403,157.7699 279.5613,160.8819 280.3693,163.2149 C281.3223,165.5329 282.6823,166.0859 283.5483,164.6249 C285.9703,159.8949 290.9953,156.6329 296.4383,156.0929 C301.8803,155.5519 307.4483,157.7629 310.7533,161.9229 C311.8953,163.1849 313.2603,162.3619 313.5933,159.9159 C313.9253,157.4559 313.3003,154.0679 312.1643,152.8049 C308.0403,147.6879 301.7173,145.2159 295.4193,145.8409" id="Fill-19" fill="#000000"></path>
            <path d="M259.3457,167.0282 C260.4877,168.2902 261.8517,167.4672 262.1847,165.0212 C262.5167,162.5612 261.8927,159.1722 260.7567,157.9102 C256.6327,152.7932 250.3097,150.3202 244.0117,150.9462 C238.4297,151.5002 233.3707,154.4152 230.0867,159.2302 L230.0867,159.2302 C229.6967,159.6192 229.1877,160.3572 228.9647,161.0672 C228.1327,162.8752 228.1537,165.9872 228.9617,168.3202 C229.9147,170.6382 231.2747,171.1912 232.1407,169.7292 C234.5627,165.0002 239.5877,161.7382 245.0297,161.1972 C250.4717,160.6572 256.0407,162.8672 259.3457,167.0282" id="Fill-21" fill="#000000"></path>
            <path d="M962.8671,61.9803 L962.2321,62.0903 L962.5521,62.0633 C956.7271,62.9633 952.2621,67.9843 952.2621,74.0613 L952.2621,89.5303 C952.2621,95.6483 956.7871,100.6963 962.6701,101.5463 C963.0481,101.5813 963.4251,101.6163 963.7971,101.6543 C1014.3811,106.9083 1007.6731,146.8523 1007.6731,146.8523 L1007.6771,146.8523 L968.9721,146.5953 C968.5811,146.5653 968.1901,146.5353 967.7911,146.5353 C967.4851,146.5353 967.1871,146.5643 966.8851,146.5813 C958.7391,147.0533 952.2741,153.7883 952.2741,162.0523 L952.2621,222.0853 C952.2621,230.6553 959.2091,237.6023 967.7791,237.6023 L1062.9781,237.6023 C1071.5481,237.6023 1078.4951,230.6553 1078.4951,222.0853 L1078.4951,202.6173 L1078.4951,178.2693 L1078.4951,147.3233 C1078.4951,62.9263 993.2461,60.2543 962.8671,61.9803" id="Fill-23" fill="#FFCF01"></path>
            <path d="M1039.7219,185.6594 C1026.9959,183.2444 1020.6029,196.3814 1000.3339,194.1024 C1000.3339,194.1024 985.7689,192.2634 991.2259,205.2374 C996.6819,218.2114 1022.3819,229.1584 1034.6439,214.3214 C1046.9069,199.4844 1052.4489,188.0744 1039.7219,185.6594" id="Fill-25" fill="#EE4364"></path>
            <path d="M1039.1404,163.5084 C1034.7304,163.1684 1030.4004,164.7334 1027.1864,168.0194 L1027.1874,168.0194 C1026.7104,168.2584 1026.3334,168.7704 1026.0624,169.2904 C1025.1674,170.5794 1024.7544,172.9984 1025.0594,174.9204 C1025.4794,176.8514 1026.4584,177.4684 1027.3324,176.4534 C1029.8654,173.1164 1034.2174,171.2764 1038.5164,171.6074 C1042.8164,171.9394 1046.8344,174.4234 1048.8264,178.1094 C1049.5394,179.2464 1050.7114,178.7964 1051.3074,176.9424 C1051.9054,175.0794 1051.8874,172.3624 1051.1794,171.2254 C1048.6844,166.6834 1044.1164,163.8914 1039.1404,163.5084" id="Fill-27" fill="#000000"></path>
            <path d="M1008.2112,174.9804 C1008.9242,176.1174 1010.0962,175.6664 1010.6922,173.8134 C1011.2902,171.9494 1011.2722,169.2324 1010.5642,168.0964 C1008.0692,163.5544 1003.5012,160.7624 998.5252,160.3794 C994.1152,160.0394 989.7852,161.6044 986.5712,164.8894 L986.5712,164.8894 C986.2152,165.1384 985.7182,165.6414 985.4472,166.1614 C984.5522,167.4504 984.1392,169.8684 984.4442,171.7914 C984.8642,173.7224 985.8432,174.3394 986.7172,173.3244 C989.2502,169.9864 993.6022,168.1474 997.9012,168.4784 C1002.2012,168.8094 1006.2192,171.2944 1008.2112,174.9804" id="Fill-29" fill="#000000"></path>
        </g>
    </g>
</svg>