<?xml version="1.0" encoding="UTF-8"?>
<svg width="1270px" height="409px" viewBox="0 0 1270 409" version="1.1" xmlns="http://www.w3.org/2000/svg" xmlns:xlink="http://www.w3.org/1999/xlink">
    <!-- Generator: Sketch 57.1 (83088) - https://sketch.com -->
    <title>TalkiPlay-logo-rgb</title>
    <desc>Created with Sketch.</desc>
    <g id="TalkiPlay-logo-rgb" stroke="none" stroke-width="1" fill="none" fill-rule="evenodd">
        <path d="M200.6856,68.5986 C201.4056,79.5666 193.2656,88.8516 182.6186,89.5496 L127.1246,93.1916 L139.3426,279.3486 C140.0626,290.3206 131.9226,299.6016 121.2756,300.3006 C110.3056,301.0206 101.0226,292.8826 100.3026,281.9106 L88.0856,95.7546 L32.9146,99.3756 C22.2666,100.0736 12.9836,91.9336 12.2646,80.9646 C11.5656,70.3166 19.7046,61.0356 30.3526,60.3376 L180.0566,50.5116 C190.7036,49.8136 199.9866,57.9506 200.6856,68.5986" id="Fill-1" fill="#4ABEAC"></path>
        <path d="M457.4958,279.2611 C457.4958,290.2531 448.7658,298.9841 437.7728,298.9841 C424.1938,298.9841 410.9368,292.1961 402.5308,281.5251 C392.8308,268.9151 393.4778,254.6891 393.4778,239.4941 L393.4778,142.8171 L393.4778,72.9771 C393.4778,62.3101 402.2068,53.5781 412.8768,53.5781 C423.8698,53.5781 432.5998,62.3101 432.5998,72.9771 L432.5998,248.5461 C432.5998,249.5161 432.2768,250.4861 432.2768,251.4551 C432.2768,252.4251 432.5998,253.3951 432.5998,254.3651 C432.5998,257.2741 434.8638,259.8621 437.7728,259.8621 C448.7658,259.8621 457.4958,268.5901 457.4958,279.2611" id="Fill-3" fill="#4ABEAC"></path>
        <path d="M608.5394,292.2886 C604.4114,295.9016 598.7764,297.7966 593.6144,297.4536 C588.7754,297.1326 584.3654,295.2176 580.7294,291.4136 L518.9434,226.3886 L515.7504,274.4596 C515.0224,285.4276 505.7324,293.5616 494.7644,292.8326 C483.7944,292.1046 475.6624,282.8136 476.3914,271.8456 L490.0394,66.3396 C490.7684,55.3716 500.0574,47.2376 511.0264,47.9666 C521.9954,48.6946 530.1274,57.9856 529.3984,68.9536 L522.1564,177.9966 L588.6274,138.3426 C598.0674,132.8136 610.1994,135.5626 615.7284,145.0026 C621.6024,154.1436 618.5304,166.2526 609.3904,172.1236 L553.0924,205.0016 L609.4354,264.1566 C616.6864,272.0916 616.5164,284.3926 608.5394,292.2886" id="Fill-5" fill="#4ABEAC"></path>
        <path d="M677.9799,302.3142 C666.6939,303.0712 657.0599,294.6452 656.3229,283.6752 L647.9599,159.1522 C647.2229,148.1852 655.6659,138.8672 666.9519,138.1102 C677.5909,137.3962 687.2049,145.5012 687.9409,156.4692 L696.3039,280.9912 C697.0409,291.9622 688.6199,301.6002 677.9799,302.3142 M665.2619,112.9462 C653.9759,113.7032 644.3409,105.2772 643.6259,94.6302 L643.5179,93.0192 C642.7599,81.7282 651.2029,72.4102 662.4879,71.6532 C673.1279,70.9392 682.7409,79.0442 683.4999,90.3352 L683.6079,91.9472 C684.3229,102.5942 675.9009,112.2322 665.2619,112.9462" id="Fill-7" fill="#4ABEAC"></path>
        <path d="M840.3473,124.3692 C840.3473,105.6162 824.8273,88.4812 807.6923,88.4812 L754.0193,88.4812 L754.0193,156.7032 L805.1053,156.7032 C823.8583,156.7032 840.3473,141.5042 840.3473,124.3692 M878.8243,124.3692 C878.8243,162.5212 845.1983,195.1792 805.1053,195.1792 L754.0193,195.1792 L754.0193,276.3322 C754.0193,287.0032 745.6133,295.4102 734.9433,295.4102 C724.2733,295.4102 715.8673,287.0032 715.8673,276.3322 L715.8673,71.0212 C715.8673,60.9962 723.9493,50.6502 733.9733,50.0042 L807.6923,50.0042 C846.1673,50.0042 878.8243,83.9532 878.8243,124.3692" id="Fill-9" fill="#4ABEAC"></path>
        <path d="M935.7613,286.133 C934.6833,297.072 925.1393,304.905 914.1993,303.827 C900.6853,302.495 888.1583,294.439 880.8383,282.995 C872.4223,269.495 874.4603,255.401 875.9503,240.279 L885.4283,144.069 C887.7113,120.9 889.9933,97.734 892.2753,74.565 C893.3213,63.949 902.8653,56.116 913.4833,57.163 C924.4243,58.241 932.2553,67.786 931.2093,78.402 L913.9963,253.124 C913.9013,254.09 913.4843,255.023 913.3893,255.988 C913.2943,256.953 913.5213,257.95 913.4263,258.915 C913.1403,261.81 915.1393,264.608 918.0353,264.893 C928.9753,265.972 936.8073,275.514 935.7613,286.133" id="Fill-11" fill="#4ABEAC"></path>
        <path d="M1257.1274,157.3675 L1257.1274,298.6595 C1257.1274,343.6035 1221.2384,380.4615 1177.5894,380.4615 C1154.3094,380.4615 1132.6474,370.1155 1117.4504,352.0105 C1110.6604,343.9285 1111.6304,331.6385 1119.3904,324.5265 C1127.1504,317.4135 1139.1134,318.3835 1145.9034,326.7895 C1153.9864,336.1665 1165.6264,341.6645 1177.5894,341.6645 C1200.5454,341.6645 1219.2984,322.2655 1219.2984,298.6595 L1219.2984,285.4045 C1208.6284,291.5475 1196.0194,295.4265 1182.4394,295.4265 C1141.7004,295.4265 1108.3974,259.8625 1108.3974,215.8885 L1108.3974,158.0125 C1108.3974,147.6665 1116.8044,138.6145 1127.1504,138.6145 C1137.4964,138.6145 1145.9034,147.6665 1145.9034,158.0125 L1145.9034,215.8885 C1145.9034,238.1995 1162.3934,256.6285 1182.4394,256.6285 C1202.8084,256.6285 1219.2984,238.1995 1219.2984,215.8885 L1219.2984,157.3675 C1219.2984,146.6965 1228.0284,137.9685 1238.0514,137.9685 C1248.7214,137.9685 1257.1274,146.6965 1257.1274,157.3675" id="Fill-13" fill="#4ABEAC"></path>
        <path d="M226.1281,65.741298 L225.3161,65.8353 L225.7231,65.8243 C218.2831,66.5453 212.2691,72.5823 211.8331,80.2773 L210.7231,99.8633 C210.2841,107.6093 215.6511,114.3263 223.0391,115.8243 C223.5151,115.8953 223.9901,115.9673 224.4581,116.0423 C288.1291,126.3243 276.7701,176.4183 276.7701,176.4183 L276.7741,176.4193 L227.7851,173.3163 C227.2921,173.2503 226.7991,173.1843 226.2951,173.1553 C225.9081,173.1333 225.5271,173.1483 225.1441,173.1483 C214.7971,173.1613 206.1271,181.2253 205.5341,191.6893 L201.2111,267.7003 C200.5961,278.5503 208.8931,287.8453 219.7441,288.4603 L340.2821,295.2923 C351.1331,295.9073 360.4271,287.6093 361.0421,276.7593 L362.4391,252.1083 L364.1871,221.2803 L366.4081,182.0973 C372.4641,75.2363 264.7161,65.7363 226.1281,65.741298" id="Fill-15" fill="#FFCF01"></path>
        <path d="M313.0606,220.3702 C296.6336,220.1782 291.5676,238.0002 265.7526,239.6522 C265.7526,239.6522 247.1586,240.5872 256.8506,255.5772 C266.5436,270.5662 301.0616,278.5322 313.0806,257.2852 C325.0986,236.0382 329.4876,220.5622 313.0606,220.3702" id="Fill-17" fill="#EE4364"></path>
        <path d="M307.4193,192.8409 C301.8373,193.3949 296.7783,196.3109 293.4943,201.1259 L293.4943,201.1259 C292.9533,201.5299 292.5953,202.2529 292.3723,202.9619 C291.5403,204.7699 291.5613,207.8819 292.3693,210.2149 C293.3223,212.5329 294.6823,213.0859 295.5483,211.6249 C297.9703,206.8949 302.9953,203.6329 308.4383,203.0929 C313.8803,202.5519 319.4483,204.7629 322.7533,208.9229 C323.8953,210.1849 325.2603,209.3619 325.5933,206.9159 C325.9253,204.4559 325.3003,201.0679 324.1643,199.8049 C320.0403,194.6879 313.7173,192.2159 307.4193,192.8409" id="Fill-19" fill="#000000"></path>
        <path d="M271.3457,214.0282 C272.4877,215.2902 273.8517,214.4672 274.1847,212.0212 C274.5167,209.5612 273.8927,206.1722 272.7567,204.9102 C268.6327,199.7932 262.3097,197.3202 256.0117,197.9462 C250.4297,198.5002 245.3707,201.4152 242.0867,206.2302 L242.0867,206.2302 C241.6967,206.6192 241.1877,207.3572 240.9647,208.0672 C240.1327,209.8752 240.1537,212.9872 240.9617,215.3202 C241.9147,217.6382 243.2747,218.1912 244.1407,216.7292 C246.5627,212.0002 251.5877,208.7382 257.0297,208.1972 C262.4717,207.6572 268.0407,209.8672 271.3457,214.0282" id="Fill-21" fill="#000000"></path>
        <path d="M974.8671,108.9803 L974.2321,109.0903 L974.5521,109.0633 C968.7271,109.9633 964.2621,114.9843 964.2621,121.0613 L964.2621,136.5303 C964.2621,142.6483 968.7871,147.6963 974.6701,148.5463 C975.0481,148.5813 975.4251,148.6163 975.7971,148.6543 C1026.3811,153.9083 1019.6731,193.8523 1019.6731,193.8523 L1019.6771,193.8523 L980.9721,193.5953 C980.5811,193.5653 980.1901,193.5353 979.7911,193.5353 C979.4851,193.5353 979.1871,193.5643 978.8851,193.5813 C970.7391,194.0533 964.2741,200.7883 964.2741,209.0523 L964.2621,269.0853 C964.2621,277.6553 971.2091,284.6023 979.7791,284.6023 L1074.9781,284.6023 C1083.5481,284.6023 1090.4951,277.6553 1090.4951,269.0853 L1090.4951,249.6173 L1090.4951,225.2693 L1090.4951,194.3233 C1090.4951,109.9263 1005.2461,107.2543 974.8671,108.9803" id="Fill-23" fill="#FFCF01"></path>
        <path d="M1051.7219,232.6594 C1038.9959,230.2444 1032.6029,243.3814 1012.3339,241.1024 C1012.3339,241.1024 997.7689,239.2634 1003.2259,252.2374 C1008.6819,265.2114 1034.3819,276.1584 1046.6439,261.3214 C1058.9069,246.4844 1064.4489,235.0744 1051.7219,232.6594" id="Fill-25" fill="#EE4364"></path>
        <path d="M1051.1404,210.5084 C1046.7304,210.1684 1042.4004,211.7334 1039.1864,215.0194 L1039.1874,215.0194 C1038.7104,215.2584 1038.3334,215.7704 1038.0624,216.2904 C1037.1674,217.5794 1036.7544,219.9984 1037.0594,221.9204 C1037.4794,223.8514 1038.4584,224.4684 1039.3324,223.4534 C1041.8654,220.1164 1046.2174,218.2764 1050.5164,218.6074 C1054.8164,218.9394 1058.8344,221.4234 1060.8264,225.1094 C1061.5394,226.2464 1062.7114,225.7964 1063.3074,223.9424 C1063.9054,222.0794 1063.8874,219.3624 1063.1794,218.2254 C1060.6844,213.6834 1056.1164,210.8914 1051.1404,210.5084" id="Fill-27" fill="#000000"></path>
        <path d="M1020.2112,221.9804 C1020.9242,223.1174 1022.0962,222.6664 1022.6922,220.8134 C1023.2902,218.9494 1023.2722,216.2324 1022.5642,215.0964 C1020.0692,210.5544 1015.5012,207.7624 1010.5252,207.3794 C1006.1152,207.0394 1001.7852,208.6044 998.5712,211.8894 L998.5712,211.8894 C998.2152,212.1384 997.7182,212.6414 997.4472,213.1614 C996.5522,214.4504 996.1392,216.8684 996.4442,218.7914 C996.8642,220.7224 997.8432,221.3394 998.7172,220.3244 C1001.2502,216.9864 1005.6022,215.1474 1009.9012,215.4784 C1014.2012,215.8094 1018.2192,218.2944 1020.2112,221.9804" id="Fill-29" fill="#000000"></path>
    </g>
</svg>