<svg width="55" height="55" xmlns="http://www.w3.org/2000/svg"><g fill="none" fill-rule="evenodd"><path fill="#FFF" d="M0 0h55v55H0z"/><path d="M17.356 8l-.142.016.071-.002a2.686 2.686 0 0 0-2.425 2.519l-.194 3.412a2.685 2.685 0 0 0 2.15 2.78l.248.039c11.116 1.791 9.133 10.52 9.133 10.52l-8.552-.541c-.086-.012-.172-.023-.26-.028-.068-.004-.134-.002-.2-.001a3.43 3.43 0 0 0-3.425 3.23l-.754 13.243a3.431 3.431 0 0 0 3.235 3.617l21.044 1.19a3.433 3.433 0 0 0 3.624-3.229l.937-16.492C42.904 9.654 24.093 7.999 17.356 8" fill="#F8CB23"/><path d="M33.34 33.556c-2.878-.034-3.766 3.141-8.29 3.436 0 0-3.258.166-1.56 2.837 1.699 2.67 7.748 4.09 9.854.304 2.106-3.785 2.875-6.543-.004-6.577" fill="#DC405D"/><path d="M31.633 30.238c-1.096.094-2.09.588-2.736 1.403a.615.615 0 0 0-.22.311c-.164.306-.16.833 0 1.228.186.393.454.486.624.239.476-.801 1.463-1.353 2.533-1.445 1.07-.091 2.163.283 2.813.987.224.214.492.075.558-.34.065-.416-.058-.99-.281-1.203-.81-.867-2.053-1.286-3.29-1.18M25.758 32.961c.224.214.492.075.558-.34.065-.416-.058-.99-.28-1.203-.811-.867-2.054-1.286-3.291-1.18-1.097.094-2.091.588-2.737 1.403a.844.844 0 0 0-.22.311c-.164.306-.16.833 0 1.228.186.393.454.486.624.239.476-.801 1.463-1.353 2.533-1.445 1.07-.091 2.163.283 2.813.987" fill="#1A1919"/></g></svg>