<?xml version="1.0" encoding="UTF-8"?>
<svg width="512px" height="512px" viewBox="0 0 512 512" version="1.1" xmlns="http://www.w3.org/2000/svg" xmlns:xlink="http://www.w3.org/1999/xlink">
    <!-- Generator: Sketch 57.1 (83088) - https://sketch.com -->
    <title>Artboard@3x</title>
    <desc>Created with Sketch.</desc>
    <g id="Artboard" stroke="none" stroke-width="1" fill="none" fill-rule="evenodd">
        <g id="Group-6" transform="translate(135.000000, 0.000000)">
            <g id="Group-4" transform="translate(0.000000, 212.000000)">
                <circle id="Oval-Copy" stroke="#8CC63F" stroke-width="8" cx="121" cy="121" r="121"></circle>
                <circle id="Oval" fill="#8CC63F" cx="121" cy="121" r="105.64467"></circle>
            </g>
            <g id="Group" transform="translate(1.752225, 0.000000)">
                <path d="M26.3423895,320.11516 C25.3543033,310.515253 21.2529566,271.363886 20.1535392,225.279641 C20.0748235,221.980118 15.8103563,216.614818 7.77976113,192.087097 C-0.250834034,167.559376 -0.250834034,146.408051 0.119254631,142.37594 C0.318473566,140.205453 1.27418764,129.570713 7.77976113,122.097364 C13.7249421,115.267772 27.3029,109.05558 27.359501,108.572381 C31.7365181,71.2061338 35.4157888,51.2192532 39.3095353,41.0768302 C44.4617029,27.6564743 79.3341759,0.00701502502 118.169926,0.00701502502 C119.783891,0.00477483283 154.358474,-0.994011669 180.506132,21.7467738 C185.668333,26.236373 190.164012,30.8204572 192.882773,36.6014709 C194.509254,40.0599265 197.262318,51.7917561 199.898858,66.8790205 C200.098793,68.0231276 212.992766,70.1781646 218.073396,73.5258377 C240.572369,88.3506153 237.355394,125.755393 237.355394,133.30681 C237.355394,147.245347 235.829042,164.54158 228.974149,186.770191 C222.119255,208.998801 218.5801,217.860749 214.843074,229.864305 C213.993176,232.594227 212.970054,234.052079 212.954641,235.042949 C212.508721,263.71013 210.846491,296.367017 206.358817,322.888603 C204.847523,331.820157 190.930989,336.393145 171.531986,339.30681 C151.108538,342.374343 126.186267,342.836584 119.925552,342.836584 C113.748548,342.836584 83.0480705,342.048083 66.8345181,339.30681 C60.156997,338.177821 46.4257129,335.124999 39.3095353,331.820157 C29.1470677,327.100579 26.5141649,321.784071 26.3423895,320.11516 Z" id="Path" fill="#FFD001"></path>
                <path d="M82.9515613,163.915981 C104.769494,156.659308 139.751014,159.356091 152.038488,165.878336 C164.325962,172.400581 181.910494,184.065879 178.478598,222.642881 C175.046702,261.219883 149.130334,280.758555 118.757238,281.963894 C88.3841417,283.169233 56.5819514,262.545003 51.9871533,226.226728 C47.3923552,189.908452 61.1336283,171.172655 82.9515613,163.915981 Z" id="Path-2" fill="#4ABFAD"></path>
                <path d="M142.36218,87.7384904 C125.90219,87.5480276 120.819843,105.411427 94.9369601,107.075469 C94.9369601,107.075469 76.3016858,108.007734 86.015285,123.034241 C95.7288841,138.060748 130.332955,146.090256 142.382228,124.748406 C154.431502,103.406556 158.832193,87.9389774 142.36218,87.7384904 Z" id="Path" fill="#EF4364" fill-rule="nonzero"></path>
                <path d="M134.966488,57.6983535 C129.309827,58.2447518 124.192661,61.2885831 121.012587,65.9985187 L121.012587,65.9985187 C120.450231,66.4822724 120.048196,67.1255294 119.859786,67.8429998 C119.038507,70.1959457 119.038507,72.7577107 119.859786,75.1106566 C120.8121,77.4363068 122.175412,77.9876462 123.047531,76.5240905 C125.67908,71.714393 130.515677,68.5141966 135.971423,67.9728326 C141.427169,67.4314687 146.798358,69.6187645 150.323799,73.8175149 C151.466575,75.0805835 152.829887,74.2585865 153.160691,71.8126441 C153.491495,69.3667017 152.940155,65.9383726 151.757281,64.6753039 C147.703399,59.6557511 141.383885,57.0298516 134.966488,57.6983535 Z" id="Path" fill="#000000" fill-rule="nonzero"></path>
                <path d="M103.003713,79.0680989 C104.146489,80.3311675 105.509801,79.5091705 105.850629,77.0632281 C106.191457,74.6172857 105.549899,71.1989809 104.417147,69.9258879 C100.590624,65.2254601 94.7680946,62.6094909 88.7126526,62.8701099 C82.6572106,63.1307288 77.0809723,66.2372873 73.6724526,71.2491027 L73.6724526,71.2491027 C73.1686442,71.7750555 72.7855117,72.4044874 72.5497249,73.0935838 C71.7284454,75.4465297 71.7284454,78.0082947 72.5497249,80.3612406 C73.5521603,82.6868908 74.8753751,83.2482546 75.7374695,81.7746745 C78.3699024,76.9690247 83.204194,73.7719525 88.6568098,73.2307002 C94.1094255,72.6894479 99.4778973,74.8737458 103.003713,79.0680989 L103.003713,79.0680989 Z" id="Path" fill="#000000" fill-rule="nonzero"></path>
            </g>
            <g id="Group-3" transform="translate(13.316906, 377.779603)">
                <ellipse id="Oval" fill="#4ABFAD" cx="107.23614" cy="67.0225873" rx="107.23614" ry="67.0225873"></ellipse>
                <g id="Group-2" transform="translate(74.143737, 20.944559)">
                    <path d="M9.99656667,1.42108547e-14 L9.67121572,0.0376645698 L9.83429187,0.0332571062 C6.85324375,0.322146312 4.44356319,2.74104248 4.26886736,5.82426362 L3.82411421,13.6719529 C3.64821634,16.7756087 5.79865791,19.4669662 8.75887075,20.0671826 C8.94959372,20.0956308 9.13991601,20.1244797 9.32743356,20.1545306 C34.839035,24.274307 30.2877278,44.3458963 30.2877278,44.3458963 L30.2893305,44.346297 L10.660491,43.1029916 C10.4629565,43.0765468 10.265422,43.050102 10.06348,43.0384824 C9.9084174,43.0296674 9.75575889,43.0356776 9.60229902,43.0356776 C5.45647846,43.0408864 1.98259577,46.2719579 1.74499342,50.4646579 L0.0128602154,80.9206322 C-0.233557069,85.267994 3.09087254,88.9923008 7.43863506,89.238718 L55.7356214,91.9761536 C60.0833839,92.2225709 63.80729,88.8977406 64.0537073,84.5503788 L64.6134552,74.6732528 L65.3138412,62.3211357 L66.2037482,46.6213496 C68.6302572,3.80444325 25.457949,-0.0020026028 9.99656667,1.42108547e-14" id="Fill-15" fill="#FFCF01"></path>
                    <path d="M44.8285513,61.9564782 C38.2466054,61.8795479 36.2167681,69.0204403 25.8732523,69.6823612 C25.8732523,69.6823612 18.4230361,70.0569956 22.3064122,76.0631665 C26.190189,82.0689367 40.0208099,85.2607417 44.8365649,76.7475254 C49.6519192,68.2343091 51.4104972,62.0334084 44.8285513,61.9564782" id="Fill-17" fill="#EE4364"></path>
                    <path d="M42.5682036,50.9260792 C40.3316162,51.1480551 38.3045836,52.3164337 36.9887554,54.2457007 L36.9887554,54.2457007 C36.7719883,54.4075748 36.6285454,54.6972654 36.5391941,54.9813465 C36.2058296,55.7057732 36.2142438,56.9526847 36.537992,57.8874677 C36.9198387,58.8162405 37.4647614,59.0378157 37.811749,58.4524244 C38.7821924,56.557215 40.7956019,55.2502017 42.976495,55.0338353 C45.1569875,54.8170683 47.3879654,55.7029685 48.7122079,57.3697911 C49.1697828,57.8754473 49.7167089,57.5456889 49.8501349,56.5656293 C49.9831602,55.5799602 49.7327361,54.2224614 49.2775653,53.7164044 C47.6251671,51.6661325 45.0916769,50.6756552 42.5682036,50.9260792" id="Fill-19" fill="#000000"></path>
                    <path d="M28.1142873,59.4153751 C28.5718622,59.9210313 29.1183877,59.5912729 29.2518136,58.6112133 C29.3848389,57.6255442 29.1348155,56.2676447 28.6796447,55.7619884 C27.0272465,53.7117165 24.4937563,52.7208385 21.970283,52.9716632 C19.7336956,53.1936391 17.706663,54.361617 16.3908348,56.290884 L16.3908348,56.290884 C16.2345701,56.446748 16.0306248,56.7424487 15.9412735,57.0269305 C15.6079089,57.7513572 15.6163232,58.9982687 15.9400714,59.9330517 C16.321918,60.8618245 16.8668408,61.0833997 17.2138284,60.4976077 C18.1842718,58.602799 20.1976813,57.2957857 22.3781737,57.0790187 C24.5586662,56.8626523 26.7900448,57.7481518 28.1142873,59.4153751" id="Fill-21" fill="#000000"></path>
                </g>
            </g>
            <g id="Group-5" transform="translate(91.466119, 349.393566)" stroke="#FFFFFF" stroke-linecap="round" stroke-width="8">
                <path d="M57.9986311,6.30800821 L58.349076,31.8070437" id="Path-3"></path>
                <path d="M0.17522245,6.30800821 L0.525667351,31.8070437" id="Path-3-Copy"></path>
                <path d="M29.2621492,0 L29.2621492,38.5489391" id="Path-3-Copy-2"></path>
            </g>
        </g>
    </g>
</svg>