<?xml version="1.0" encoding="UTF-8"?>
<svg width="512px" height="512px" viewBox="0 0 512 512" version="1.1" xmlns="http://www.w3.org/2000/svg" xmlns:xlink="http://www.w3.org/1999/xlink">
    <!-- Generator: Sketch 57.1 (83088) - https://sketch.com -->
    <title>Artboard</title>
    <desc>Created with Sketch.</desc>
    <defs>
        <filter x="-0.8%" y="-0.8%" width="101.6%" height="101.6%" filterUnits="objectBoundingBox" id="filter-1">
            <feOffset dx="0" dy="1" in="SourceAlpha" result="shadowOffsetOuter1"></feOffset>
            <feGaussianBlur stdDeviation="0.5" in="shadowOffsetOuter1" result="shadowBlurOuter1"></feGaussianBlur>
            <feColorMatrix values="0 0 0 0 0   0 0 0 0 0   0 0 0 0 0  0 0 0 0.5 0" type="matrix" in="shadowBlurOuter1" result="shadowMatrixOuter1"></feColorMatrix>
            <feMerge>
                <feMergeNode in="shadowMatrixOuter1"></feMergeNode>
                <feMergeNode in="SourceGraphic"></feMergeNode>
            </feMerge>
        </filter>
    </defs>
    <g id="Artboard" stroke="none" stroke-width="1" fill="none" fill-rule="evenodd">
        <g id="Group" filter="url(#filter-1)">
            <rect id="Rectangle" fill="#0378D6" x="0" y="0" width="512" height="512"></rect>
            <rect id="Rectangle" fill="#FFFFFF" fill-rule="nonzero" x="112" y="0" width="288" height="512"></rect>
            <rect id="Rectangle" fill="#3DC0AE" fill-rule="nonzero" x="112" y="0" width="288" height="55.6521739"></rect>
            <polygon id="Path" fill="#FFFFFF" fill-rule="nonzero" points="139.826087 39.6521739 131.36 39.6521739 135.248696 35.7634783 134.26087 34.7826087 128.695652 40.3478261 134.26087 45.9130435 135.241739 44.9321739 131.36 41.0434783 139.826087 41.0434783"></polygon>
            <rect id="Rectangle" fill="#FFFFFF" fill-rule="nonzero" x="112.001359" y="69.5652174" width="288" height="34.7826087"></rect>
            <path d="M132.300243,82.6845217 L129.7568,82.6845217 L129.7568,89.7391304 L128.718748,89.7391304 L128.718748,82.6845217 L126.18073,82.6845217 L126.18073,81.826087 L132.300243,81.826087 L132.300243,82.6845217 Z M134.517635,86.6413913 L134.517635,89.7391304 L133.474157,89.7391304 L133.474157,81.826087 L136.392696,81.826087 C137.258574,81.826087 137.936139,82.0473043 138.425252,82.4890435 C138.918052,82.9314783 139.164383,83.5165217 139.164383,84.2448696 C139.164383,85.0128696 138.923478,85.6048696 138.4416,86.0215652 C137.963339,86.4347826 137.27673,86.6413913 136.381774,86.6413913 L134.517635,86.6413913 Z M134.517635,85.7878261 L136.392696,85.7878261 C136.950609,85.7878261 137.378157,85.6577391 137.67527,85.3968696 C137.972383,85.1325217 138.120904,84.752 138.120904,84.2553043 C138.120904,83.7843478 137.972383,83.4073043 137.67527,83.1248696 C137.378157,82.8424348 136.970574,82.6956522 136.452452,82.6845217 L134.517635,82.6845217 L134.517635,85.7878261 Z M143.539409,89.7391304 L142.528557,89.7391304 L142.528557,83.037913 L140.501357,83.7829565 L140.501357,82.8695652 L143.381774,81.7878261 L143.539409,81.7878261 L143.539409,89.7391304 Z M151.669843,89.7391304 L146.485078,89.7391304 L146.485078,89.0163478 L149.224209,85.9728696 C149.629983,85.5123478 149.908939,85.1394783 150.061148,84.8535652 C150.216904,84.5634783 150.294817,84.2643478 150.294817,83.9568696 C150.294817,83.5436522 150.169809,83.2048696 149.919861,82.9405217 C149.669843,82.6754783 149.336487,82.5433043 148.919861,82.5433043 C148.419826,82.5433043 148.03033,82.6866087 147.751374,82.9725217 C147.475965,83.2556522 147.338296,83.650087 147.338296,84.157913 L146.33287,84.157913 C146.33287,83.4295652 146.566609,82.8403478 147.033948,82.3916522 C147.504974,81.9422609 148.133635,81.7175652 148.919861,81.7175652 C149.655374,81.7175652 150.23687,81.9109565 150.664417,82.2991304 C151.091965,82.6831304 151.305739,83.1958261 151.305739,83.8372174 C151.305739,84.6156522 150.809322,85.5436522 149.816557,86.6198261 L147.697043,88.9182609 L151.669843,88.9182609 L151.669843,89.7391304 Z M153.197009,85.7718261 L153.599165,81.826087 L157.653565,81.826087 L157.653565,82.7554783 L154.452452,82.7554783 L154.213287,84.9126957 C154.600974,84.6845217 155.041183,84.5704348 155.533983,84.5704348 C156.254957,84.5704348 156.827478,84.8097391 157.251339,85.2883478 C157.67527,85.7627826 157.887235,86.4055652 157.887235,87.2173913 C157.887235,88.0326957 157.666226,88.6754783 157.224209,89.1464348 C156.785809,89.613913 156.171617,89.8476522 155.381774,89.8476522 C154.682504,89.8476522 154.111861,89.6542609 153.669843,89.266087 C153.227826,88.8786087 152.976,88.3422609 152.914435,87.6577391 L153.865461,87.6577391 C153.927096,88.1106087 154.088348,88.4528696 154.349217,88.6845217 C154.610087,88.9126957 154.954226,89.0274783 155.381774,89.0274783 C155.849183,89.0274783 156.215096,88.8674783 156.479652,88.5488696 C156.747757,88.2302609 156.881809,87.789913 156.881809,87.2285217 C156.881809,86.6991304 156.736835,86.2754783 156.447026,85.9561739 C156.160765,85.634087 155.778504,85.4726957 155.300243,85.4726957 C154.861843,85.4726957 154.517635,85.5686957 154.267687,85.7606957 L154.001391,85.9784348 L153.197009,85.7718261 Z M159.447026,85.7718261 L159.849183,81.826087 L163.903513,81.826087 L163.903513,82.7554783 L160.70247,82.7554783 L160.463304,84.9126957 C160.850991,84.6845217 161.2912,84.5704348 161.784,84.5704348 C162.504974,84.5704348 163.077426,84.8097391 163.501357,85.2883478 C163.925287,85.7627826 164.137252,86.4055652 164.137252,87.2173913 C164.137252,88.0326957 163.916243,88.6754783 163.474157,89.1464348 C163.035757,89.613913 162.421635,89.8476522 161.631791,89.8476522 C160.932522,89.8476522 160.361878,89.6542609 159.919861,89.266087 C159.477774,88.8786087 159.226017,88.3422609 159.164383,87.6577391 L160.115478,87.6577391 C160.177113,88.1106087 160.338296,88.4528696 160.599165,88.6845217 C160.860035,88.9126957 161.204243,89.0274783 161.631791,89.0274783 C162.0992,89.0274783 162.465113,88.8674783 162.7296,88.5488696 C162.997704,88.2302609 163.131826,87.789913 163.131826,87.2285217 C163.131826,86.6991304 162.986852,86.2754783 162.697043,85.9561739 C162.410783,85.634087 162.028522,85.4726957 161.550261,85.4726957 C161.111861,85.4726957 160.767652,85.5686957 160.517635,85.7606957 L160.251339,85.9784348 L159.447026,85.7718261 Z M171.066574,81.826087 L171.066574,87.2062609 C171.062957,87.9526957 170.827478,88.5634783 170.36007,89.037913 C169.896278,89.5123478 169.265878,89.7787826 168.46873,89.8372174 L168.191583,89.8476522 C167.325635,89.8476522 166.635409,89.613913 166.120904,89.1464348 C165.6064,88.6796522 165.34553,88.0361739 165.338296,87.2173913 L165.338296,81.826087 L166.370922,81.826087 L166.370922,87.1846957 C166.370922,87.7572174 166.528557,88.2031304 166.843757,88.5217391 C167.158957,88.8368696 167.608209,88.9947826 168.191583,88.9947826 C168.782122,88.9947826 169.233252,88.8368696 169.544835,88.5217391 C169.860035,88.2066087 170.01767,87.7627826 170.01767,87.1902609 L170.01767,81.826087 L171.066574,81.826087 Z M174.64807,86.7881739 L171.995896,86.7881739 L171.995896,85.9673043 L174.64807,85.9673043 L174.64807,86.7881739 Z M179.104626,81.826087 L180.15353,81.826087 L180.15353,87.4295652 C180.15353,88.1864348 179.925287,88.7791304 179.46873,89.2062609 C179.015861,89.634087 178.410783,89.8476522 177.653565,89.8476522 C176.86727,89.8476522 176.254957,89.6466087 175.816557,89.2445217 C175.378157,88.8424348 175.158957,88.2789565 175.158957,87.554087 L176.202435,87.554087 C176.202435,88.0069565 176.325635,88.3603478 176.572035,88.6142609 C176.821983,88.8674783 177.182539,88.9947826 177.653565,88.9947826 C178.084661,88.9947826 178.432487,88.8584348 178.697043,88.5871304 C178.965148,88.3151304 179.101009,87.9346087 179.104626,87.4455652 L179.104626,81.826087 Z M184.973913,89.7391304 L183.96313,89.7391304 L183.96313,83.037913 L181.936,83.7829565 L181.936,82.8695652 L184.816696,81.7878261 L184.973913,81.7878261 L184.973913,89.7391304 Z M190.115478,86.7881739 L187.463652,86.7881739 L187.463652,85.9673043 L190.115478,85.9673043 L190.115478,86.7881739 Z M195.957565,86.3638261 C195.957565,87.5415652 195.756522,88.4166957 195.354435,88.9892174 C194.952348,89.5617391 194.323478,89.8476522 193.468522,89.8476522 C192.624696,89.8476522 191.999304,89.5686957 191.593739,89.0107826 C191.188174,88.4493913 190.978087,87.6125217 190.963478,86.5001739 L190.963478,85.1575652 C190.963478,83.9944348 191.164522,83.1304348 191.566609,82.5655652 C191.968696,82 192.598957,81.7175652 193.458087,81.7175652 C194.309565,81.7175652 194.936348,81.9909565 195.338435,82.5377391 C195.740522,83.0817391 195.94713,83.922087 195.957565,85.0594783 L195.957565,86.3638261 Z M194.952348,84.9892174 C194.952348,84.1377391 194.832696,83.517913 194.594087,83.1304348 C194.354783,82.7394783 193.975652,82.5433043 193.458087,82.5433043 C192.943304,82.5433043 192.568348,82.7373913 192.333217,83.1248696 C192.097391,83.5123478 191.975652,84.1085217 191.968696,84.9126957 L191.968696,86.5217391 C191.968696,87.3766957 192.091826,88.0090435 192.338087,88.4187826 C192.588522,88.8243478 192.96487,89.0274783 193.468522,89.0274783 C193.965217,89.0274783 194.333217,88.8354783 194.571826,88.4507826 C194.814609,88.0667826 194.941913,87.4622609 194.952348,86.6358261 L194.952348,84.9892174 Z M202.208,86.3638261 C202.208,87.5415652 202.006957,88.4166957 201.60487,88.9892174 C201.202783,89.5617391 200.573913,89.8476522 199.718957,89.8476522 C198.874435,89.8476522 198.249739,89.5686957 197.843478,89.0107826 C197.437913,88.4493913 197.227826,87.6125217 197.213217,86.5001739 L197.213217,85.1575652 C197.213217,83.9944348 197.414261,83.1304348 197.816348,82.5655652 C198.218435,82 198.849391,81.7175652 199.707826,81.7175652 C200.559304,81.7175652 201.186087,81.9909565 201.588174,82.5377391 C201.990261,83.0817391 202.19687,83.922087 202.208,85.0594783 L202.208,86.3638261 Z M201.202783,84.9892174 C201.202783,84.1377391 201.08313,83.517913 200.843826,83.1304348 C200.604522,82.7394783 200.226087,82.5433043 199.707826,82.5433043 C199.193043,82.5433043 198.818087,82.7373913 198.582957,83.1248696 C198.34713,83.5123478 198.226087,84.1085217 198.218435,84.9126957 L198.218435,86.5217391 C198.218435,87.3766957 198.342261,88.0090435 198.588522,88.4187826 C198.838261,88.8243478 199.215304,89.0274783 199.718957,89.0274783 C200.214957,89.0274783 200.582957,88.8354783 200.822261,88.4507826 C201.065043,88.0667826 201.191652,87.4622609 201.202783,86.6358261 L201.202783,84.9892174 Z M208.457739,86.3638261 C208.457739,87.5415652 208.256696,88.4166957 207.854609,88.9892174 C207.452522,89.5617391 206.823652,89.8476522 205.968696,89.8476522 C205.12487,89.8476522 204.499478,89.5686957 204.093913,89.0107826 C203.687652,88.4493913 203.477565,87.6125217 203.463652,86.5001739 L203.463652,85.1575652 C203.463652,83.9944348 203.664696,83.1304348 204.066783,82.5655652 C204.46887,82 205.09913,81.7175652 205.957565,81.7175652 C206.809043,81.7175652 207.435826,81.9909565 207.838609,82.5377391 C208.240696,83.0817391 208.447304,83.922087 208.457739,85.0594783 L208.457739,86.3638261 Z M207.452522,84.9892174 C207.452522,84.1377391 207.33287,83.517913 207.093565,83.1304348 C206.854957,82.7394783 206.475826,82.5433043 205.957565,82.5433043 C205.443478,82.5433043 205.068522,82.7373913 204.832696,83.1248696 C204.597565,83.5123478 204.475826,84.1085217 204.46887,84.9126957 L204.46887,86.5217391 C204.46887,87.3766957 204.592,88.0090435 204.838261,88.4187826 C205.088,88.8243478 205.465043,89.0274783 205.968696,89.0274783 C206.465391,89.0274783 206.832696,88.8354783 207.072,88.4507826 C207.314783,88.0667826 207.441391,87.4622609 207.452522,86.6358261 L207.452522,84.9892174 Z M213.691826,81.8205217 L213.691826,82.674087 L213.506783,82.674087 C212.724174,82.6886957 212.10087,82.9203478 211.637565,83.3697391 C211.173565,83.8191304 210.905043,84.4507826 210.832696,85.266087 C211.249391,84.7881739 211.818435,84.5488696 212.53913,84.5488696 C213.227826,84.5488696 213.776696,84.7916522 214.186435,85.2772174 C214.598957,85.7627826 214.805565,86.3895652 214.805565,87.1575652 C214.805565,87.9728696 214.582957,88.6246957 214.137043,89.1144348 C213.695304,89.6034783 213.101217,89.8476522 212.354783,89.8476522 C211.597217,89.8476522 210.982957,89.5582609 210.512,88.978087 C210.041043,88.3951304 209.805913,87.6452174 209.805913,86.7283478 L209.805913,86.3422609 C209.805913,84.8855652 210.115478,83.7732174 210.735304,83.0052174 C211.357913,82.2337391 212.283826,81.8386087 213.512348,81.8205217 L213.691826,81.8205217 Z M212.370783,85.3857391 C212.026435,85.3857391 211.709913,85.4893913 211.419826,85.696 C211.129739,85.901913 210.928696,86.1613913 210.816696,86.4730435 L210.816696,86.8424348 C210.816696,87.4942609 210.963478,88.0201739 211.257043,88.4187826 C211.550609,88.8166957 211.916522,89.0163478 212.354783,89.0163478 C212.807652,89.0163478 213.162435,88.8493913 213.419826,88.5161739 C213.680696,88.1829565 213.811478,87.746087 213.811478,87.2062609 C213.811478,86.6629565 213.678609,86.2246957 213.414261,85.8914783 C213.153391,85.554087 212.805565,85.3857391 212.370783,85.3857391 Z M219.941565,81.8205217 L219.941565,82.674087 L219.756522,82.674087 C218.973913,82.6886957 218.351304,82.9203478 217.887304,83.3697391 C217.423304,83.8191304 217.155478,84.4507826 217.08313,85.266087 C217.499826,84.7881739 218.068174,84.5488696 218.789565,84.5488696 C219.477565,84.5488696 220.026435,84.7916522 220.436174,85.2772174 C220.849391,85.7627826 221.056,86.3895652 221.056,87.1575652 C221.056,87.9728696 220.832696,88.6246957 220.387478,89.1144348 C219.945043,89.6034783 219.350957,89.8476522 218.604522,89.8476522 C217.847652,89.8476522 217.233391,89.5582609 216.762435,88.978087 C216.291478,88.3951304 216.055652,87.6452174 216.055652,86.7283478 L216.055652,86.3422609 C216.055652,84.8855652 216.365217,83.7732174 216.985043,83.0052174 C217.608348,82.2337391 218.534261,81.8386087 219.762087,81.8205217 L219.941565,81.8205217 Z M218.621217,85.3857391 C218.27687,85.3857391 217.959652,85.4893913 217.669565,85.696 C217.380174,85.901913 217.17913,86.1613913 217.066435,86.4730435 L217.066435,86.8424348 C217.066435,87.4942609 217.213217,88.0201739 217.506783,88.4187826 C217.800348,88.8166957 218.166261,89.0163478 218.604522,89.0163478 C219.057391,89.0163478 219.41287,88.8493913 219.669565,88.5161739 C219.930435,88.1829565 220.061217,87.746087 220.061217,87.2062609 C220.061217,86.6629565 219.929043,86.2246957 219.664696,85.8914783 C219.403826,85.554087 219.056,85.3857391 218.621217,85.3857391 Z M227.04487,83.8914783 C227.04487,84.285913 226.939826,84.637913 226.729739,84.9453913 C226.52313,85.2535652 226.242087,85.4942609 225.887304,85.6681739 C226.300522,85.8462609 226.626087,86.1050435 226.865391,86.445913 C227.108174,86.786087 227.229913,87.1721739 227.229913,87.6034783 C227.229913,88.288 226.997565,88.8333913 226.534261,89.2389565 C226.073739,89.6452174 225.46713,89.8476522 224.713043,89.8476522 C223.952696,89.8476522 223.341913,89.6452174 222.882087,89.2389565 C222.425043,88.829913 222.19687,88.2845217 222.19687,87.6034783 C222.19687,87.1756522 222.313043,86.7895652 222.544696,86.445913 C222.780522,86.1015652 223.104696,85.8406957 223.517913,85.6633043 C223.165913,85.4893913 222.889043,85.248 222.685913,84.9405217 C222.483478,84.6323478 222.381913,84.2824348 222.381913,83.8914783 C222.381913,83.2243478 222.595478,82.6956522 223.023304,82.304 C223.450435,81.9130435 224.013913,81.7175652 224.713043,81.7175652 C225.408696,81.7175652 225.970783,81.9130435 226.397913,82.304 C226.829217,82.6956522 227.04487,83.2243478 227.04487,83.8914783 Z M226.224,87.5812174 C226.224,87.1394783 226.082783,86.7791304 225.800348,86.5001739 C225.521391,86.2212174 225.155478,86.0813913 224.702609,86.0813913 C224.249739,86.0813913 223.885217,86.2191304 223.609739,86.4946087 C223.338435,86.770087 223.202783,87.1325217 223.202783,87.5812174 C223.202783,88.0306087 223.334957,88.384 223.599304,88.6413913 C223.86713,88.8987826 224.238609,89.0274783 224.713043,89.0274783 C225.184,89.0274783 225.554087,88.8987826 225.821913,88.6413913 C226.090435,88.3805217 226.224,88.0271304 226.224,87.5812174 Z M224.713043,82.5433043 C224.318609,82.5433043 223.997913,82.6664348 223.751652,82.9133913 C223.50887,83.1554783 223.38713,83.4873043 223.38713,83.9074783 C223.38713,84.3095652 223.506783,84.6358261 223.746087,84.8855652 C223.98887,85.1325217 224.310957,85.2556522 224.713043,85.2556522 C225.115826,85.2556522 225.435826,85.1325217 225.67513,84.8855652 C225.917913,84.6358261 226.039652,84.3095652 226.039652,83.9074783 C226.039652,83.5053913 225.914435,83.1777391 225.664696,82.9238261 C225.414261,82.6706087 225.097043,82.5433043 224.713043,82.5433043 Z" id="Shape" fill-opacity="0.74" fill="#000000" fill-rule="nonzero"></path>
            <circle id="Oval" stroke="#4ABFAD" fill="#4ABFAD" fill-rule="nonzero" cx="374.957913" cy="86.9565217" r="10.7826087"></circle>
            <polygon id="Path" fill="#FFFFFF" fill-rule="nonzero" points="372.726957 89.6521739 369.826087 86.7513043 368.838261 87.7321739 372.726957 91.6208696 381.074783 83.2730435 380.093913 82.2921739"></polygon>
            <path d="M224.396522,39.1032348 C224.335304,39.954713 224.020174,40.6249739 223.45113,41.1141565 C222.885565,41.6032696 222.139826,41.8477913 221.211826,41.8477913 C220.197565,41.8477913 219.398261,41.5072696 218.815304,40.826087 C218.235826,40.141287 217.945739,39.2029217 217.945739,38.0108522 L217.945739,37.5271652 C217.945739,36.7663304 218.08,36.096 218.347826,35.516313 C218.615652,34.9366261 218.998261,34.4927304 219.494261,34.1847652 C219.994435,33.8731826 220.574609,33.7174261 221.233391,33.7174261 C222.146783,33.7174261 222.882087,33.9619478 223.44,34.4510609 C223.997913,34.9402435 224.320696,35.6267826 224.407652,36.510887 L222.777043,36.510887 C222.737391,36 222.594087,35.6304696 222.347826,35.4021565 C222.105043,35.1702957 221.733565,35.0543304 221.233391,35.0543304 C220.690087,35.0543304 220.282435,35.2500174 220.01113,35.6413217 C219.742609,36.0290087 219.60487,36.6322783 219.597913,37.4510609 L219.597913,38.0489043 C219.597913,38.904 219.726609,39.5289739 219.984,39.9238957 C220.24487,40.3188174 220.653913,40.516313 221.211826,40.516313 C221.715478,40.516313 222.090435,40.4021565 222.336696,40.173913 C222.58713,39.9420522 222.729739,39.585113 222.766609,39.1032348 L224.396522,39.1032348 Z M225.119304,38.7445565 C225.119304,38.1612522 225.232,37.6413217 225.456696,37.1847652 C225.681391,36.7282783 226.003478,36.3750261 226.423652,36.1250087 C226.848,35.8749913 227.338435,35.7499826 227.897043,35.7499826 C228.690087,35.7499826 229.337043,35.9927652 229.837217,36.4782609 C230.34087,36.9637565 230.621217,37.6231652 230.679652,38.456487 L230.690087,38.858713 C230.690087,39.7608348 230.438261,40.4854957 229.934609,41.0326261 C229.430957,41.5760696 228.755478,41.8477913 227.907478,41.8477913 C227.059478,41.8477913 226.381913,41.5760696 225.874783,41.0326261 C225.37113,40.489113 225.119304,39.7499826 225.119304,38.8152348 L225.119304,38.7445565 Z M226.690087,38.858713 C226.690087,39.4166957 226.79513,39.8441739 227.005217,40.141287 C227.215304,40.4347826 227.516522,40.5814957 227.907478,40.5814957 C228.288,40.5814957 228.585043,40.4365913 228.798609,40.146713 C229.01287,39.853287 229.119304,39.3858783 229.119304,38.7445565 C229.119304,38.1974957 229.01287,37.7735652 228.798609,37.4728348 C228.585043,37.1721043 228.284522,37.0217739 227.897043,37.0217739 C227.512348,37.0217739 227.215304,37.1721043 227.005217,37.4728348 C226.79513,37.7699478 226.690087,38.2318609 226.690087,38.858713 Z M233.103304,35.858713 L233.152,36.5380174 C233.572174,36.0126609 234.135652,35.7499826 234.842435,35.7499826 C235.465739,35.7499826 235.929043,35.9329391 236.233739,36.2989217 C236.537739,36.6648348 236.693565,37.2119652 236.701217,37.9402435 L236.701217,41.7391304 L235.130435,41.7391304 L235.130435,37.9782957 C235.130435,37.6449391 235.058087,37.4039652 234.913391,37.2554435 C234.768,37.1032348 234.527304,37.0272 234.189913,37.0272 C233.748174,37.0272 233.416348,37.2155826 233.195826,37.5924174 L233.195826,41.7391304 L231.625043,41.7391304 L231.625043,35.858713 L233.103304,35.858713 Z M239.342609,35.858713 L239.391304,36.5380174 C239.811478,36.0126609 240.374957,35.7499826 241.081739,35.7499826 C241.705043,35.7499826 242.168348,35.9329391 242.473043,36.2989217 C242.777043,36.6648348 242.93287,37.2119652 242.940522,37.9402435 L242.940522,41.7391304 L241.369739,41.7391304 L241.369739,37.9782957 C241.369739,37.6449391 241.297391,37.4039652 241.152,37.2554435 C241.007304,37.1032348 240.766609,37.0272 240.429217,37.0272 C239.987478,37.0272 239.655652,37.2155826 239.43513,37.5924174 L239.43513,41.7391304 L237.864348,41.7391304 L237.864348,35.858713 L239.342609,35.858713 Z M246.842435,41.8477913 C245.979826,41.8477913 245.277217,41.5833043 244.733913,41.0543304 C244.194087,40.5253565 243.924174,39.8206609 243.924174,38.9402435 L243.924174,38.7880348 C243.924174,38.1974957 244.038261,37.6702609 244.266435,37.2065391 C244.494609,36.7391304 244.816696,36.3804522 245.233391,36.1304348 C245.654261,35.8768 246.132174,35.7499826 246.668522,35.7499826 C247.472696,35.7499826 248.105043,36.0036174 248.56487,36.510887 C249.02887,37.018087 249.260522,37.7373217 249.260522,38.6684522 L249.260522,39.3097739 L245.516522,39.3097739 C245.567304,39.6938435 245.718957,40.0018087 245.97287,40.2336696 C246.230261,40.4656 246.554435,40.5814957 246.945391,40.5814957 C247.550609,40.5814957 248.023652,40.3622957 248.363826,39.9238957 L249.136,40.7880348 C248.900174,41.1213913 248.581565,41.3822609 248.179478,41.5706435 C247.777391,41.7554087 247.331478,41.8477913 246.842435,41.8477913 Z M246.662957,37.0217739 C246.351304,37.0217739 246.098087,37.1268174 245.901913,37.3369739 C245.709913,37.5471304 245.586783,37.8477913 245.532522,38.2391652 L247.717565,38.2391652 L247.717565,38.1141565 C247.709913,37.7663304 247.616,37.4981565 247.43513,37.3097739 C247.253565,37.1177739 246.996174,37.0217739 246.662957,37.0217739 Z M252.60313,40.5814957 C252.893217,40.5814957 253.128348,40.5018435 253.309913,40.3424 C253.490783,40.1829565 253.585391,39.9709913 253.592348,39.7065043 L255.065043,39.7065043 C255.061565,40.1050435 254.953043,40.4710261 254.739478,40.804313 C254.525217,41.1340522 254.231652,41.3913043 253.858783,41.5760696 C253.489391,41.7572174 253.079652,41.8477913 252.630261,41.8477913 C251.789913,41.8477913 251.126957,41.5814957 250.641391,41.0489043 C250.155826,40.5126957 249.913043,39.7735652 249.913043,38.831513 L249.913043,38.7282783 C249.913043,37.8224696 250.153739,37.0996174 250.635826,36.5597913 C251.117913,36.0198957 251.778783,35.7499826 252.619826,35.7499826 C253.35513,35.7499826 253.943652,35.9601391 254.386087,36.3804522 C254.831304,36.7970783 255.058087,37.3532522 255.065043,38.0489043 L253.592348,38.0489043 C253.585391,37.7445565 253.490783,37.4981565 253.309913,37.3097739 C253.128348,37.1177739 252.889739,37.0217739 252.592696,37.0217739 C252.226783,37.0217739 251.949217,37.1558261 251.760696,37.4239304 C251.576348,37.6884174 251.483826,38.1195826 251.483826,38.7173565 L251.483826,38.8804174 C251.483826,39.4854957 251.576348,39.9202783 251.760696,40.1847652 C251.945739,40.4492522 252.226783,40.5814957 252.60313,40.5814957 Z M257.842087,34.4130783 L257.842087,35.858713 L258.848,35.858713 L258.848,37.0108522 L257.842087,37.0108522 L257.842087,39.9456696 C257.842087,40.1630609 257.883826,40.3188174 257.967304,40.4130783 C258.050783,40.5072696 258.210087,40.5543652 258.445913,40.5543652 C258.619826,40.5543652 258.773565,40.5416348 258.907826,40.516313 L258.907826,41.7065043 C258.599652,41.8006957 258.282435,41.8477913 257.956174,41.8477913 C256.854957,41.8477913 256.293565,41.291687 256.272,40.1793391 L256.272,37.0108522 L255.41287,37.0108522 L255.41287,35.858713 L256.272,35.858713 L256.272,34.4130783 L257.842087,34.4130783 Z M262.249739,38.7554087 C262.249739,37.8387478 262.454957,37.1087304 262.864,36.5652174 C263.277217,36.0217043 263.840696,35.7499826 264.554435,35.7499826 C265.126957,35.7499826 265.599304,35.9637565 265.97287,36.3913043 L265.97287,33.3913043 L267.549217,33.3913043 L267.549217,41.7391304 L266.130087,41.7391304 L266.054261,41.1141565 C265.663304,41.6032696 265.159652,41.8477913 264.543304,41.8477913 C263.85113,41.8477913 263.295304,41.5760696 262.87513,41.0326261 C262.458435,40.4854957 262.249739,39.7264696 262.249739,38.7554087 Z M263.820522,38.8695652 C263.820522,39.420313 263.916522,39.8423652 264.108522,40.1358609 C264.300522,40.4293565 264.579478,40.5760696 264.945391,40.5760696 C265.430957,40.5760696 265.773217,40.3714087 265.97287,39.9619478 L265.97287,37.6413217 C265.777391,37.2318609 265.438609,37.0272 264.956522,37.0272 C264.198957,37.0272 263.820522,37.6413217 263.820522,38.8695652 Z M271.472696,41.8477913 C270.610783,41.8477913 269.907478,41.5833043 269.364174,41.0543304 C268.824348,40.5253565 268.554435,39.8206609 268.554435,38.9402435 L268.554435,38.7880348 C268.554435,38.1974957 268.668522,37.6702609 268.896696,37.2065391 C269.12487,36.7391304 269.447652,36.3804522 269.864348,36.1304348 C270.284522,35.8768 270.762435,35.7499826 271.298783,35.7499826 C272.102957,35.7499826 272.735304,36.0036174 273.195826,36.510887 C273.65913,37.018087 273.891478,37.7373217 273.891478,38.6684522 L273.891478,39.3097739 L270.146783,39.3097739 C270.197565,39.6938435 270.349913,40.0018087 270.60313,40.2336696 C270.860522,40.4656 271.184696,40.5814957 271.576348,40.5814957 C272.18087,40.5814957 272.653913,40.3622957 272.994783,39.9238957 L273.766261,40.7880348 C273.53113,41.1213913 273.211826,41.3822609 272.809739,41.5706435 C272.407652,41.7554087 271.961739,41.8477913 271.472696,41.8477913 Z M271.293217,37.0217739 C270.981565,37.0217739 270.728348,37.1268174 270.53287,37.3369739 C270.34087,37.5471304 270.217739,37.8477913 270.162783,38.2391652 L272.347826,38.2391652 L272.347826,38.1141565 C272.34087,37.7663304 272.246261,37.4981565 272.065391,37.3097739 C271.883826,37.1177739 271.62713,37.0217739 271.293217,37.0217739 Z M276.912696,39.8206609 L278.005565,35.858713 L279.646609,35.858713 L277.663304,41.7391304 L276.162783,41.7391304 L274.179478,35.858713 L275.820522,35.858713 L276.912696,39.8206609 Z M282,41.7391304 L280.423652,41.7391304 L280.423652,35.858713 L282,35.858713 L282,41.7391304 Z M280.331826,34.3369739 C280.331826,34.1014261 280.409739,33.9076174 280.56487,33.7554087 C280.72487,33.6032696 280.940522,33.5271652 281.211826,33.5271652 C281.480348,33.5271652 281.693913,33.6032696 281.853217,33.7554087 C282.012522,33.9076174 282.092522,34.1014261 282.092522,34.3369739 C282.092522,34.5760696 282.01113,34.7717565 281.847652,34.9238957 C281.688348,35.0761043 281.476174,35.1521391 281.211826,35.1521391 C280.947478,35.1521391 280.733913,35.0761043 280.570435,34.9238957 C280.41113,34.7717565 280.331826,34.5760696 280.331826,34.3369739 Z M285.744696,40.5814957 C286.034087,40.5814957 286.269913,40.5018435 286.450783,40.3424 C286.632348,40.1829565 286.726261,39.9709913 286.733913,39.7065043 L288.206609,39.7065043 C288.20313,40.1050435 288.093913,40.4710261 287.880348,40.804313 C287.666783,41.1340522 287.373217,41.3913043 286.999652,41.5760696 C286.630261,41.7572174 286.221217,41.8477913 285.771826,41.8477913 C284.931478,41.8477913 284.267826,41.5814957 283.782957,41.0489043 C283.297391,40.5126957 283.054609,39.7735652 283.054609,38.831513 L283.054609,38.7282783 C283.054609,37.8224696 283.295304,37.0996174 283.777391,36.5597913 C284.258783,36.0198957 284.920348,35.7499826 285.760696,35.7499826 C286.496696,35.7499826 287.085217,35.9601391 287.526957,36.3804522 C287.97287,36.7970783 288.198957,37.3532522 288.206609,38.0489043 L286.733913,38.0489043 C286.726261,37.7445565 286.632348,37.4981565 286.450783,37.3097739 C286.269913,37.1177739 286.030609,37.0217739 285.733565,37.0217739 C285.367652,37.0217739 285.090783,37.1558261 284.902261,37.4239304 C284.717217,37.6884174 284.624696,38.1195826 284.624696,38.7173565 L284.624696,38.8804174 C284.624696,39.4854957 284.717217,39.9202783 284.902261,40.1847652 C285.086609,40.4492522 285.367652,40.5814957 285.744696,40.5814957 Z M291.810087,41.8477913 C290.947478,41.8477913 290.24487,41.5833043 289.70087,41.0543304 C289.161043,40.5253565 288.89113,39.8206609 288.89113,38.9402435 L288.89113,38.7880348 C288.89113,38.1974957 289.005217,37.6702609 289.233391,37.2065391 C289.462261,36.7391304 289.784348,36.3804522 290.201043,36.1304348 C290.621217,35.8768 291.099826,35.7499826 291.636174,35.7499826 C292.440348,35.7499826 293.072696,36.0036174 293.532522,36.510887 C293.996522,37.018087 294.228174,37.7373217 294.228174,38.6684522 L294.228174,39.3097739 L290.483478,39.3097739 C290.534261,39.6938435 290.686609,40.0018087 290.940522,40.2336696 C291.197217,40.4656 291.521391,40.5814957 291.913043,40.5814957 C292.518261,40.5814957 292.990609,40.3622957 293.331478,39.9238957 L294.102957,40.7880348 C293.867826,41.1213913 293.549217,41.3822609 293.146435,41.5706435 C292.744348,41.7554087 292.29913,41.8477913 291.810087,41.8477913 Z M291.630609,37.0217739 C291.318957,37.0217739 291.065043,37.1268174 290.869565,37.3369739 C290.677565,37.5471304 290.554435,37.8477913 290.500174,38.2391652 L292.684522,38.2391652 L292.684522,38.1141565 C292.677565,37.7663304 292.583652,37.4981565 292.402087,37.3097739 C292.221217,37.1177739 291.963826,37.0217739 291.630609,37.0217739 Z" id="Shape" fill="#FFFFFF" fill-rule="nonzero"></path>
            <rect id="Rectangle" fill="#FFFFFF" fill-rule="nonzero" x="112.001359" y="69.5652174" width="288" height="34.7826087"></rect>
            <path d="M132.300243,82.6845217 L129.7568,82.6845217 L129.7568,89.7391304 L128.718748,89.7391304 L128.718748,82.6845217 L126.18073,82.6845217 L126.18073,81.826087 L132.300243,81.826087 L132.300243,82.6845217 Z M136.327443,89.7391304 C136.269496,89.6229565 136.2224,89.4163478 136.186157,89.1193043 C135.718748,89.6048696 135.160765,89.8476522 134.512209,89.8476522 C133.932522,89.8476522 133.45607,89.6848696 133.082852,89.3586087 C132.713322,89.0288696 132.528557,88.6121739 132.528557,88.1085217 C132.528557,87.4963478 132.760417,87.021913 133.224209,86.6845217 C133.691548,86.3443478 134.347339,86.173913 135.191583,86.173913 L136.169809,86.173913 L136.169809,85.712 C136.169809,85.3606957 136.064765,85.0817391 135.854609,84.8751304 C135.644452,84.6650435 135.334678,84.56 134.925287,84.56 C134.566609,84.56 134.265878,84.6504348 134.023096,84.8313043 C133.780313,85.0128696 133.658991,85.232 133.658991,85.4893913 L132.64807,85.4893913 C132.64807,85.1958261 132.751374,84.9126957 132.957913,84.6413913 C133.168,84.365913 133.450643,84.1488696 133.805704,83.9888696 C134.164383,83.8295652 134.557496,83.7502609 134.985043,83.7502609 C135.662609,83.7502609 136.193391,83.92 136.577461,84.2608696 C136.96153,84.5975652 137.160765,85.0636522 137.175304,85.6577391 L137.175304,88.3638261 C137.175304,88.9036522 137.244104,89.3335652 137.381774,89.6521739 L137.381774,89.7391304 L136.327443,89.7391304 Z M134.658991,88.9725217 C134.974191,88.9725217 135.273113,88.8911304 135.555687,88.7283478 C135.83833,88.5648696 136.042991,88.3533913 136.169809,88.0925217 L136.169809,86.8855652 L135.381774,86.8855652 C134.149913,86.8855652 133.533983,87.2466087 133.533983,87.9673043 C133.533983,88.2824348 133.639026,88.5286957 133.849183,88.7067826 C134.059339,88.8841739 134.329252,88.9725217 134.658991,88.9725217 Z M139.843757,89.7391304 L138.83833,89.7391304 L138.83833,81.3913043 L139.843757,81.3913043 L139.843757,89.7391304 Z M143.0992,87.0163478 L142.46873,87.6737391 L142.46873,89.7391304 L141.463304,89.7391304 L141.463304,81.3913043 L142.46873,81.3913043 L142.46873,86.4403478 L143.006817,85.7933913 L144.83833,83.8587826 L146.061148,83.8587826 L143.773078,86.3151304 L146.327443,89.7391304 L145.148104,89.7391304 L143.0992,87.0163478 Z M148.191583,89.7391304 L147.186157,89.7391304 L147.186157,83.8587826 L148.191583,83.8587826 L148.191583,89.7391304 Z M147.104626,82.2991304 C147.104626,82.1356522 147.15353,81.997913 147.251339,81.885913 C147.352835,81.7732174 147.501357,81.7175652 147.697043,81.7175652 C147.892661,81.7175652 148.041183,81.7732174 148.142678,81.885913 C148.244104,81.997913 148.294817,82.1356522 148.294817,82.2991304 C148.294817,82.461913 148.244104,82.5975652 148.142678,82.7067826 C148.041183,82.8153043 147.892661,82.8695652 147.697043,82.8695652 C147.501357,82.8695652 147.352835,82.8153043 147.251339,82.7067826 C147.15353,82.5975652 147.104626,82.461913 147.104626,82.2991304 Z M151.006817,86.6413913 L151.006817,89.7391304 L149.963339,89.7391304 L149.963339,81.826087 L152.881809,81.826087 C153.747757,81.826087 154.425252,82.0473043 154.914435,82.4890435 C155.407165,82.9314783 155.653565,83.5165217 155.653565,84.2448696 C155.653565,85.0128696 155.412591,85.6048696 154.930713,86.0215652 C154.452452,86.4347826 153.765843,86.6413913 152.870957,86.6413913 L151.006817,86.6413913 Z M151.006817,85.7878261 L152.881809,85.7878261 C153.439791,85.7878261 153.86727,85.6577391 154.164383,85.3968696 C154.461496,85.1325217 154.610087,84.752 154.610087,84.2553043 C154.610087,83.7843478 154.461496,83.4073043 154.164383,83.1248696 C153.86727,82.8424348 153.459687,82.6956522 152.941565,82.6845217 L151.006817,82.6845217 L151.006817,85.7878261 Z M157.919861,89.7391304 L156.914435,89.7391304 L156.914435,81.3913043 L157.919861,81.3913043 L157.919861,89.7391304 Z M163.164383,89.7391304 C163.106435,89.6229565 163.059339,89.4163478 163.023096,89.1193043 C162.555687,89.6048696 161.997704,89.8476522 161.349217,89.8476522 C160.769461,89.8476522 160.293009,89.6848696 159.919861,89.3586087 C159.550261,89.0288696 159.365496,88.6121739 159.365496,88.1085217 C159.365496,87.4963478 159.597357,87.021913 160.061148,86.6845217 C160.528557,86.3443478 161.184348,86.173913 162.028522,86.173913 L163.006817,86.173913 L163.006817,85.712 C163.006817,85.3606957 162.901704,85.0817391 162.691548,84.8751304 C162.481461,84.6650435 162.171617,84.56 161.762226,84.56 C161.403548,84.56 161.102817,84.6504348 160.860035,84.8313043 C160.617322,85.0128696 160.49593,85.232 160.49593,85.4893913 L159.485078,85.4893913 C159.485078,85.1958261 159.588313,84.9126957 159.794852,84.6413913 C160.005009,84.365913 160.287583,84.1488696 160.642643,83.9888696 C161.001391,83.8295652 161.394504,83.7502609 161.821983,83.7502609 C162.499548,83.7502609 163.03033,83.92 163.4144,84.2608696 C163.79847,84.5975652 163.997704,85.0636522 164.012243,85.6577391 L164.012243,88.3638261 C164.012243,88.9036522 164.081043,89.3335652 164.218783,89.6521739 L164.218783,89.7391304 L163.164383,89.7391304 Z M161.49593,88.9725217 C161.81113,88.9725217 162.110052,88.8911304 162.392696,88.7283478 C162.67527,88.5648696 162.88,88.3533913 163.006817,88.0925217 L163.006817,86.8855652 L162.218783,86.8855652 C160.986852,86.8855652 160.370922,87.2466087 160.370922,87.9673043 C160.370922,88.2824348 160.475965,88.5286957 160.686122,88.7067826 C160.896278,88.8841739 161.166191,88.9725217 161.49593,88.9725217 Z M167.425252,88.2664348 L168.794852,83.8587826 L169.870957,83.8587826 L167.506783,90.6469565 C167.14087,91.6250435 166.559304,92.114087 165.762226,92.114087 L165.572035,92.098087 L165.197009,92.0271304 L165.197009,91.2118261 L165.46873,91.2333913 C165.809322,91.2333913 166.073809,91.1645217 166.262261,91.0274783 C166.454261,90.8897391 166.611896,90.637913 166.735026,90.272 L166.957913,89.6737391 L164.860035,83.8587826 L165.957913,83.8587826 L167.425252,88.2664348 Z M174.169809,87.5109565 L172.735026,87.5109565 L172.300243,89.7391304 L171.52313,89.7391304 L171.957913,87.5109565 L170.658991,87.5109565 L170.658991,86.7666087 L172.0992,86.7666087 L172.474157,84.8424348 L171.072,84.8424348 L171.072,84.0869565 L172.620939,84.0869565 L173.066574,81.826087 L173.843757,81.826087 L173.398122,84.0869565 L174.832904,84.0869565 L175.278539,81.826087 L176.061148,81.826087 L175.615513,84.0869565 L176.724174,84.0869565 L176.724174,84.8424348 L175.46873,84.8424348 L175.093774,86.7666087 L176.316591,86.7666087 L176.316591,87.5109565 L174.952417,87.5109565 L174.517635,89.7391304 L173.735026,89.7391304 L174.169809,87.5109565 Z M172.876383,86.7666087 L174.311165,86.7666087 L174.686122,84.8424348 L173.251339,84.8424348 L172.876383,86.7666087 Z M182.713043,89.7391304 L177.528557,89.7391304 L177.528557,89.0163478 L180.267687,85.9728696 C180.673461,85.5123478 180.952417,85.1394783 181.104626,84.8535652 C181.260383,84.5634783 181.338296,84.2643478 181.338296,83.9568696 C181.338296,83.5436522 181.213287,83.2048696 180.963339,82.9405217 C180.713322,82.6754783 180.379965,82.5433043 179.963339,82.5433043 C179.463304,82.5433043 179.073809,82.6866087 178.794852,82.9725217 C178.519443,83.2556522 178.381774,83.650087 178.381774,84.157913 L177.376348,84.157913 C177.376348,83.4295652 177.610087,82.8403478 178.077426,82.3916522 C178.548452,81.9422609 179.177113,81.7175652 179.963339,81.7175652 C180.698852,81.7175652 181.280348,81.9109565 181.707826,82.2991304 C182.135652,82.6831304 182.349217,83.1958261 182.349217,83.8372174 C182.349217,84.6156522 181.852522,85.5436522 180.860035,86.6198261 L178.740522,88.9182609 L182.713043,88.9182609 L182.713043,89.7391304 Z M188.022957,87.0817391 L189.120696,87.0817391 L189.120696,87.901913 L188.022957,87.901913 L188.022957,89.7391304 L187.012174,89.7391304 L187.012174,87.901913 L183.408696,87.901913 L183.408696,87.309913 L186.952348,81.826087 L188.022957,81.826087 L188.022957,87.0817391 Z M184.550261,87.0817391 L187.012174,87.0817391 L187.012174,83.2013913 L186.892522,83.4184348 L184.550261,87.0817391 Z M193.974261,81.8205217 L193.974261,82.674087 L193.789217,82.674087 C193.006609,82.6886957 192.383304,82.9203478 191.92,83.3697391 C191.456,83.8191304 191.188174,84.4507826 191.115826,85.266087 C191.531826,84.7881739 192.10087,84.5488696 192.822261,84.5488696 C193.510261,84.5488696 194.05913,84.7916522 194.46887,85.2772174 C194.882087,85.7627826 195.088,86.3895652 195.088,87.1575652 C195.088,87.9728696 194.865391,88.6246957 194.420174,89.1144348 C193.977739,89.6034783 193.383652,89.8476522 192.637217,89.8476522 C191.879652,89.8476522 191.266087,89.5582609 190.79513,88.978087 C190.323478,88.3951304 190.088348,87.6452174 190.088348,86.7283478 L190.088348,86.3422609 C190.088348,84.8855652 190.397913,83.7732174 191.017739,83.0052174 C191.641043,82.2337391 192.566261,81.8386087 193.794783,81.8205217 L193.974261,81.8205217 Z M192.653217,85.3857391 C192.309565,85.3857391 191.992348,85.4893913 191.702261,85.696 C191.41287,85.901913 191.211826,86.1613913 191.09913,86.4730435 L191.09913,86.8424348 C191.09913,87.4942609 191.245913,88.0201739 191.539478,88.4187826 C191.833043,88.8166957 192.198957,89.0163478 192.637217,89.0163478 C193.090087,89.0163478 193.44487,88.8493913 193.702261,88.5161739 C193.96313,88.1829565 194.093913,87.746087 194.093913,87.2062609 C194.093913,86.6629565 193.961739,86.2246957 193.696696,85.8914783 C193.435826,85.554087 193.088,85.3857391 192.653217,85.3857391 Z M200.903652,86.2448696 L197.582609,86.2448696 L197.582609,89.7391304 L196.53913,89.7391304 L196.53913,81.826087 L201.441391,81.826087 L201.441391,82.6845217 L197.582609,82.6845217 L197.582609,85.3913043 L200.903652,85.3913043 L200.903652,86.2448696 Z M207.615304,89.7391304 L202.430609,89.7391304 L202.430609,89.0163478 L205.170087,85.9728696 C205.575652,85.5123478 205.854609,85.1394783 206.006957,84.8535652 C206.162783,84.5634783 206.240696,84.2643478 206.240696,83.9568696 C206.240696,83.5436522 206.115478,83.2048696 205.865739,82.9405217 C205.615304,82.6754783 205.282087,82.5433043 204.865391,82.5433043 C204.365217,82.5433043 203.975652,82.6866087 203.696696,82.9725217 C203.421913,83.2556522 203.284174,83.650087 203.284174,84.157913 L202.278261,84.157913 C202.278261,83.4295652 202.512,82.8403478 202.979478,82.3916522 C203.450435,81.9422609 204.079304,81.7175652 204.865391,81.7175652 C205.600696,81.7175652 206.182261,81.9109565 206.610087,82.2991304 C207.037913,82.6831304 207.251478,83.1958261 207.251478,83.8372174 C207.251478,84.6156522 206.754783,85.5436522 205.762087,86.6198261 L203.642435,88.9182609 L207.615304,88.9182609 L207.615304,89.7391304 Z M213.479652,83.8914783 C213.479652,84.285913 213.374609,84.637913 213.164522,84.9453913 C212.957913,85.2535652 212.67687,85.4942609 212.322087,85.6681739 C212.735304,85.8462609 213.06087,86.1050435 213.300174,86.445913 C213.542957,86.786087 213.664696,87.1721739 213.664696,87.6034783 C213.664696,88.288 213.432348,88.8333913 212.969043,89.2389565 C212.508522,89.6452174 211.901913,89.8476522 211.147826,89.8476522 C210.387478,89.8476522 209.776696,89.6452174 209.31687,89.2389565 C208.859826,88.829913 208.631652,88.2845217 208.631652,87.6034783 C208.631652,87.1756522 208.747826,86.7895652 208.979478,86.445913 C209.215304,86.1015652 209.539478,85.8406957 209.952696,85.6633043 C209.600696,85.4893913 209.323826,85.248 209.120696,84.9405217 C208.918261,84.6323478 208.816696,84.2824348 208.816696,83.8914783 C208.816696,83.2243478 209.030261,82.6956522 209.458087,82.304 C209.885217,81.9130435 210.448696,81.7175652 211.147826,81.7175652 C211.843478,81.7175652 212.405565,81.9130435 212.832696,82.304 C213.264,82.6956522 213.479652,83.2243478 213.479652,83.8914783 Z M212.658783,87.5812174 C212.658783,87.1394783 212.517565,86.7791304 212.23513,86.5001739 C211.956174,86.2212174 211.590261,86.0813913 211.137391,86.0813913 C210.684522,86.0813913 210.32,86.2191304 210.044522,86.4946087 C209.773217,86.770087 209.637565,87.1325217 209.637565,87.5812174 C209.637565,88.0306087 209.769739,88.384 210.034087,88.6413913 C210.301913,88.8987826 210.673391,89.0274783 211.147826,89.0274783 C211.618783,89.0274783 211.98887,88.8987826 212.256696,88.6413913 C212.525217,88.3805217 212.658783,88.0271304 212.658783,87.5812174 Z M211.147826,82.5433043 C210.753391,82.5433043 210.432696,82.6664348 210.186435,82.9133913 C209.943652,83.1554783 209.821913,83.4873043 209.821913,83.9074783 C209.821913,84.3095652 209.941565,84.6358261 210.18087,84.8855652 C210.423652,85.1325217 210.745739,85.2556522 211.147826,85.2556522 C211.550609,85.2556522 211.870609,85.1325217 212.109913,84.8855652 C212.352696,84.6358261 212.474435,84.3095652 212.474435,83.9074783 C212.474435,83.5053913 212.349217,83.1777391 212.099478,82.9238261 C211.849043,82.6706087 211.531826,82.5433043 211.147826,82.5433043 Z M219.561043,87.6737391 L216.246261,87.6737391 L215.501217,89.7391304 L214.425043,89.7391304 L217.446957,81.826087 L218.360348,81.826087 L221.38713,89.7391304 L220.316522,89.7391304 L219.561043,87.6737391 Z M216.561391,86.8153043 L219.251478,86.8153043 L217.903304,83.1144348 L216.561391,86.8153043 Z M223.653565,85.2932174 L224.409043,85.2932174 C224.883478,85.2862609 225.257043,85.1610435 225.528348,84.9182609 C225.800348,84.6754783 225.936,84.3478261 225.936,83.9346087 C225.936,83.0073043 225.474087,82.5433043 224.550261,82.5433043 C224.115478,82.5433043 223.767652,82.6685217 223.506783,82.9182609 C223.249391,83.1645217 223.120696,83.4928696 223.120696,83.901913 L222.115478,83.901913 C222.115478,83.2751304 222.343652,82.7554783 222.8,82.3422609 C223.260522,81.9255652 223.843478,81.7175652 224.550261,81.7175652 C225.296696,81.7175652 225.881739,81.9151304 226.305391,82.3095652 C226.729739,82.7046957 226.941913,83.2535652 226.941913,83.9568696 C226.941913,84.3005217 226.829217,84.6337391 226.604522,84.9565217 C226.383304,85.2793043 226.081391,85.52 225.696696,85.6793043 C226.131478,85.8170435 226.466783,86.0452174 226.702609,86.3638261 C226.941913,86.6831304 227.06087,87.0726957 227.06087,87.5325217 C227.06087,88.2427826 226.829217,88.8062609 226.365217,89.2229565 C225.901913,89.6396522 225.298783,89.8476522 224.555826,89.8476522 C223.81287,89.8476522 223.207652,89.6466087 222.740174,89.2445217 C222.27687,88.8424348 222.044522,88.3116522 222.044522,87.6521739 L223.056,87.6521739 C223.056,88.0688696 223.191652,88.402087 223.463652,88.6525217 C223.734957,88.9022609 224.099478,89.0274783 224.555826,89.0274783 C225.041391,89.0274783 225.41287,88.9001739 225.669565,88.6469565 C225.926957,88.3930435 226.055652,88.0292174 226.055652,87.554087 C226.055652,87.0942609 225.914435,86.7408696 225.632,86.4946087 C225.34887,86.2483478 224.941913,86.1210435 224.409043,86.114087 L223.653565,86.114087 L223.653565,85.2932174 Z M232.387478,81.8205217 L232.387478,82.674087 L232.202435,82.674087 C231.419826,82.6886957 230.796522,82.9203478 230.333217,83.3697391 C229.869217,83.8191304 229.600696,84.4507826 229.528348,85.266087 C229.945043,84.7881739 230.514087,84.5488696 231.234783,84.5488696 C231.923478,84.5488696 232.472348,84.7916522 232.882087,85.2772174 C233.294609,85.7627826 233.501217,86.3895652 233.501217,87.1575652 C233.501217,87.9728696 233.278609,88.6246957 232.832696,89.1144348 C232.390957,89.6034783 231.79687,89.8476522 231.050435,89.8476522 C230.29287,89.8476522 229.678609,89.5582609 229.207652,88.978087 C228.736696,88.3951304 228.501565,87.6452174 228.501565,86.7283478 L228.501565,86.3422609 C228.501565,84.8855652 228.81113,83.7732174 229.430957,83.0052174 C230.053565,82.2337391 230.979478,81.8386087 232.208,81.8205217 L232.387478,81.8205217 Z M231.066435,85.3857391 C230.722087,85.3857391 230.405565,85.4893913 230.115478,85.696 C229.825391,85.901913 229.624348,86.1613913 229.512348,86.4730435 L229.512348,86.8424348 C229.512348,87.4942609 229.65913,88.0201739 229.952696,88.4187826 C230.246261,88.8166957 230.612174,89.0163478 231.050435,89.0163478 C231.503304,89.0163478 231.858087,88.8493913 232.115478,88.5161739 C232.376348,88.1829565 232.50713,87.746087 232.50713,87.2062609 C232.50713,86.6629565 232.374261,86.2246957 232.109913,85.8914783 C231.849043,85.554087 231.501217,85.3857391 231.066435,85.3857391 Z M236.153739,85.2932174 L236.909217,85.2932174 C237.383652,85.2862609 237.756522,85.1610435 238.028522,84.9182609 C238.300522,84.6754783 238.436174,84.3478261 238.436174,83.9346087 C238.436174,83.0073043 237.974261,82.5433043 237.050435,82.5433043 C236.615652,82.5433043 236.267826,82.6685217 236.006957,82.9182609 C235.749565,83.1645217 235.62087,83.4928696 235.62087,83.901913 L234.615652,83.901913 C234.615652,83.2751304 234.843826,82.7554783 235.300174,82.3422609 C235.760696,81.9255652 236.343652,81.7175652 237.050435,81.7175652 C237.79687,81.7175652 238.381913,81.9151304 238.805565,82.3095652 C239.229913,82.7046957 239.441391,83.2535652 239.441391,83.9568696 C239.441391,84.3005217 239.329391,84.6337391 239.104696,84.9565217 C238.883478,85.2793043 238.58087,85.52 238.19687,85.6793043 C238.631652,85.8170435 238.966957,86.0452174 239.202783,86.3638261 C239.441391,86.6831304 239.561043,87.0726957 239.561043,87.5325217 C239.561043,88.2427826 239.329391,88.8062609 238.865391,89.2229565 C238.401391,89.6396522 237.798261,89.8476522 237.056,89.8476522 C236.313043,89.8476522 235.707826,89.6466087 235.240348,89.2445217 C234.777043,88.8424348 234.544696,88.3116522 234.544696,87.6521739 L235.555478,87.6521739 C235.555478,88.0688696 235.691826,88.402087 235.96313,88.6525217 C236.23513,88.9022609 236.598957,89.0274783 237.056,89.0274783 C237.54087,89.0274783 237.912348,88.9001739 238.169739,88.6469565 C238.42713,88.3930435 238.555826,88.0292174 238.555826,87.554087 C238.555826,87.0942609 238.414609,86.7408696 238.131478,86.4946087 C237.849043,86.2483478 237.441391,86.1210435 236.909217,86.114087 L236.153739,86.114087 L236.153739,85.2932174 Z M241.403826,85.7718261 L241.805913,81.826087 L245.860174,81.826087 L245.860174,82.7554783 L242.658783,82.7554783 L242.420174,84.9126957 C242.807652,84.6845217 243.248,84.5704348 243.740522,84.5704348 C244.461217,84.5704348 245.033739,84.8097391 245.458087,85.2883478 C245.881739,85.7627826 246.093913,86.4055652 246.093913,87.2173913 C246.093913,88.0326957 245.872696,88.6754783 245.430957,89.1464348 C244.992,89.613913 244.378435,89.8476522 243.588174,89.8476522 C242.889043,89.8476522 242.318609,89.6542609 241.876174,89.266087 C241.434435,88.8786087 241.182609,88.3422609 241.120696,87.6577391 L242.072348,87.6577391 C242.133565,88.1106087 242.294957,88.4528696 242.555826,88.6845217 C242.816696,88.9126957 243.161043,89.0274783 243.588174,89.0274783 C244.055652,89.0274783 244.421565,88.8674783 244.685913,88.5488696 C244.954435,88.2302609 245.088,87.789913 245.088,87.2285217 C245.088,86.6991304 244.943304,86.2754783 244.653217,85.9561739 C244.367304,85.634087 243.985391,85.4726957 243.506783,85.4726957 C243.068522,85.4726957 242.724174,85.5686957 242.474435,85.7606957 L242.208,85.9784348 L241.403826,85.7718261 Z M251.990261,83.8914783 C251.990261,84.285913 251.885217,84.637913 251.67513,84.9453913 C251.468522,85.2535652 251.188174,85.4942609 250.832696,85.6681739 C251.245913,85.8462609 251.572174,86.1050435 251.811478,86.445913 C252.053565,86.786087 252.175304,87.1721739 252.175304,87.6034783 C252.175304,88.288 251.943652,88.8333913 251.479652,89.2389565 C251.01913,89.6452174 250.412522,89.8476522 249.65913,89.8476522 C248.898087,89.8476522 248.287304,89.6452174 247.827478,89.2389565 C247.37113,88.829913 247.142957,88.2845217 247.142957,87.6034783 C247.142957,87.1756522 247.258435,86.7895652 247.490783,86.445913 C247.725913,86.1015652 248.050087,85.8406957 248.463304,85.6633043 C248.112,85.4893913 247.834435,85.248 247.632,84.9405217 C247.42887,84.6323478 247.327304,84.2824348 247.327304,83.8914783 C247.327304,83.2243478 247.54087,82.6956522 247.968696,82.304 C248.396522,81.9130435 248.96,81.7175652 249.65913,81.7175652 C250.354783,81.7175652 250.916174,81.9130435 251.344,82.304 C251.774609,82.6956522 251.990261,83.2243478 251.990261,83.8914783 Z M251.170087,87.5812174 C251.170087,87.1394783 251.02887,86.7791304 250.745739,86.5001739 C250.466783,86.2212174 250.10087,86.0813913 249.648,86.0813913 C249.19513,86.0813913 248.831304,86.2191304 248.555826,86.4946087 C248.283826,86.770087 248.148174,87.1325217 248.148174,87.5812174 C248.148174,88.0306087 248.280348,88.384 248.544696,88.6413913 C248.813217,88.8987826 249.184,89.0274783 249.65913,89.0274783 C250.130087,89.0274783 250.499478,88.8987826 250.768,88.6413913 C251.035826,88.3805217 251.170087,88.0271304 251.170087,87.5812174 Z M249.65913,82.5433043 C249.264,82.5433043 248.943304,82.6664348 248.697043,82.9133913 C248.454261,83.1554783 248.333217,83.4873043 248.333217,83.9074783 C248.333217,84.3095652 248.452174,84.6358261 248.691478,84.8855652 C248.934261,85.1325217 249.257043,85.2556522 249.65913,85.2556522 C250.061217,85.2556522 250.381913,85.1325217 250.621217,84.8855652 C250.864,84.6358261 250.985043,84.3095652 250.985043,83.9074783 C250.985043,83.5053913 250.859826,83.1777391 250.610087,82.9238261 C250.360348,82.6706087 250.04313,82.5433043 249.65913,82.5433043 Z" id="Shape" fill-opacity="0.74" fill="#000000" fill-rule="nonzero"></path>
            <circle id="Oval" stroke="#3DC0AE" fill="#3DC0AE" fill-rule="nonzero" cx="374.957913" cy="86.9565217" r="10.7826087"></circle>
            <polygon id="Path" fill="#FFFFFF" fill-rule="nonzero" points="372.726957 89.6521739 369.826087 86.7513043 368.838261 87.7321739 372.726957 91.6208696 381.074783 83.2730435 380.093913 82.2921739"></polygon>
        </g>
        <g id="drag" transform="translate(343.000000, 93.000000)" fill="#F7CAA5" fill-rule="nonzero">
            <path d="M39.2919304,38.7644383 C39.3895373,34.4323576 42.6998614,30.9600475 46.7640427,30.9600475 L46.9395272,30.9600475 C51.0701642,30.9600475 54.4168316,34.5465785 54.4168316,38.9721123 L54.4168316,41.5483089 C54.4168316,37.1248516 57.7666139,33.5393592 61.8941357,33.5393592 L61.9128263,33.5393592 C66.0445016,33.5393592 69.391169,37.1248516 69.391169,41.5483089 L69.391169,45.6124902 C69.391169,41.186956 72.7378361,37.6004253 76.8684731,37.6004253 L77.033574,37.6004253 C81.1559038,37.6004253 84.5025712,41.1734573 84.5108782,45.5886076 C84.5451443,60.0364912 84.5243769,61.4559434 84.5025712,83.0322389 C84.4921874,95.1489813 75.3213013,104.962619 64.0103342,104.962619 L39.7280459,104.962619 C32.2953917,104.962619 25.445263,100.651305 21.8265427,93.6994165 L0.175484506,52.104381 L2.43809335,50.2270076 C7.12218163,45.9240013 14.1633703,46.4525316 18.2410503,51.4159415 L24.2989022,58.7894086 L24.3342069,8.04425442 C24.3393987,3.62287375 27.6860661,0.0394582025 31.8115111,0.0394582025 L31.8135879,0.0394582025 C35.945263,0.0394582025 39.2919304,3.62598892 39.2919304,8.0494462 L39.2919304,38.7644383 Z" id="Path"></path>
        </g>
    </g>
</svg>