<?xml version="1.0" encoding="UTF-8"?>
<svg width="512px" height="512px" viewBox="0 0 512 512" version="1.1" xmlns="http://www.w3.org/2000/svg" xmlns:xlink="http://www.w3.org/1999/xlink">
    <!-- Generator: Sketch 57.1 (83088) - https://sketch.com -->
    <title>Artboard</title>
    <desc>Created with Sketch.</desc>
    <g id="Artboard" stroke="none" stroke-width="1" fill="none" fill-rule="evenodd">
        <g id="Group" transform="translate(334.000000, 127.000000)">
            <path d="M19.7344819,239.815255 C18.9942541,232.623455 15.9217177,203.293088 15.0980858,168.768934 C15.0391157,166.297087 11.844377,162.277656 5.82823193,143.902638 C-0.187913086,125.527621 -0.187913086,109.682041 0.0893399729,106.661373 C0.23858545,105.035346 0.954561579,97.0682974 5.82823193,91.4696151 C10.2820825,86.3532054 20.4540514,81.6993223 20.4964542,81.3373327 C23.77551,53.3442937 26.5318469,38.3710608 29.448859,30.7728335 C33.3086212,20.7189326 59.4334414,0.00525532753 88.5273625,0.00525532753 C89.7364696,0.00357708068 115.638125,-0.744666893 135.226723,16.2916624 C139.094002,19.6550594 142.461953,23.0892401 144.498721,27.4201043 C145.717205,30.0110169 147.779671,38.799953 149.754843,50.1026235 C149.904625,50.9597348 159.564184,52.5741874 163.370354,55.0821071 C180.225529,66.1881347 177.815522,94.2100384 177.815522,99.8672057 C177.815522,110.309304 176.672051,123.26683 171.536686,139.919462 C166.401321,156.572094 163.749953,163.211049 160.950348,172.203549 C160.313645,174.248679 159.54717,175.340833 159.535623,176.083147 C159.201561,197.559253 157.956296,222.02426 154.594341,241.892988 C153.462151,248.584089 143.036536,252.009957 128.503714,254.192738 C113.203425,256.49079 94.5328294,256.837079 89.8425952,256.837079 C85.215074,256.837079 62.215717,256.246371 50.0692844,254.192738 C45.066799,253.346953 34.7799653,251.059922 29.448859,248.584089 C21.8356152,245.048403 19.863168,241.065525 19.7344819,239.815255 Z" id="Path" fill="#FFD001"></path>
            <path d="M62.1434168,122.798161 C78.4883882,117.361801 104.694901,119.382105 113.9001,124.268265 C123.105299,129.154425 136.278805,137.893518 133.707789,166.793598 C131.136774,195.693677 111.721447,210.331133 88.9673491,211.234117 C66.2132511,212.1371 42.3885426,196.686395 38.9463355,169.478447 C35.5041284,142.2705 45.7984453,128.23452 62.1434168,122.798161 Z" id="Path-2" fill="#4ABFAD"></path>
            <path d="M106.651064,65.7295594 C94.3200122,65.5868736 90.5125559,78.9692939 71.1223151,80.2159167 C71.1223151,80.2159167 57.1616421,80.9143258 64.4386148,92.1714795 C71.7155874,103.428633 97.639333,109.443964 106.666083,93.4556512 C115.692834,77.4673388 118.989625,65.8797549 106.651064,65.7295594 Z" id="Path" fill="#EF4364" fill-rule="nonzero"></path>
            <path d="M101.110559,43.2248986 C96.872854,43.6342346 93.0393135,45.9145302 90.6569512,49.4429929 L90.6569512,49.4429929 C90.2356606,49.8053985 89.9344743,50.2872964 89.793327,50.8247916 C89.1780629,52.5875082 89.1780629,54.5066623 89.793327,56.269379 C90.5067557,58.0116469 91.5280852,58.4246846 92.1814357,57.3282573 C94.1528684,53.7250577 97.7762202,51.3276207 101.863409,50.9220562 C105.950598,50.5164917 109.97444,52.1551111 112.615535,55.3006179 C113.47165,56.2468496 114.492979,55.631048 114.740802,53.7986628 C114.988624,51.9662775 114.575587,49.3979342 113.689433,48.4517025 C110.652455,44.691289 105.918171,42.7240884 101.110559,43.2248986 Z" id="Path" fill="#000000" fill-rule="nonzero"></path>
            <path d="M77.1655476,59.234109 C78.021662,60.1803407 79.0429915,59.5645391 79.2983239,57.7321539 C79.5536563,55.8997686 79.0730306,53.3389351 78.224426,52.3851936 C75.3577745,48.8638536 70.995809,46.9040923 66.459356,47.0993358 C61.922903,47.2945793 57.745447,49.6218671 55.191944,53.376484 L55.191944,53.376484 C54.8145144,53.7705032 54.5274895,54.242044 54.3508491,54.7582827 C53.735585,56.5209994 53.735585,58.4401534 54.3508491,60.2028701 C55.1018267,61.945138 56.0931171,62.3656855 56.7389578,61.2617484 C58.7110529,57.6615811 62.3326773,55.2664847 66.4175212,54.8610039 C70.502365,54.455523 74.5241721,56.0918965 77.1655476,59.234109 L77.1655476,59.234109 Z" id="Path" fill="#000000" fill-rule="nonzero"></path>
        </g>
        <g id="Group-3" transform="translate(157.000000, 119.000000)" stroke="#00A887" stroke-linecap="round" stroke-width="8">
            <g id="Group-2">
                <path d="M0,31 C40.1289062,-13.6132813 125.105469,-7.65625 153,42" id="Path-3"></path>
            </g>
            <path d="M130.273438,39.5172191 L152.123719,42.8259036 C152.669779,42.9085908 153.179479,42.5329532 153.262166,41.9868934 C153.26967,41.9373402 153.273438,41.887293 153.273438,41.8371749 L153.273438,19 L153.273438,19" id="Path-4"></path>
        </g>
        <g id="Group" transform="translate(0.000000, 174.000000)">
            <rect id="Rectangle" fill="#4ABEAC" x="0" y="0" width="169" height="209.806378" rx="20"></rect>
            <g id="Group-30" transform="translate(30.797267, 31.567198)">
                <path d="M73.143508,18.2160057 L73.143508,16.0906093 C73.143508,13.8920695 74.9258998,12.1096777 77.1240547,12.1096777 L93.8007745,12.1096777 C95.9989294,12.1096777 97.7813212,13.8920695 97.7813212,16.0906093 L97.7813212,47.438377" id="Fill-2" fill="#D43026"></path>
                <path d="M94.2775162,135.876269 L11.9729763,135.876269 C9.41064374,135.876269 7.31450478,133.797454 7.31450478,131.256679 L7.31450478,58.3056544 L52.931031,4.60292096 L98.9363727,58.3056544 L98.9363727,131.256679 C98.9363727,133.797454 96.8398487,135.876269 94.2775162,135.876269" id="Fill-4" fill="#0378D6"></path>
                <path d="M0.127269704,63.4641581 L52.108051,0.447561276 C52.5415226,-0.0779170843 53.3453312,-0.0821517084 53.7841923,0.438707062 L106.893308,63.4641581" id="Stroke-6" stroke="#EF4364" stroke-width="8" stroke-linecap="round"></path>
                <path d="M84.168044,101.806793 L62.1599323,101.806793 C58.6675223,101.806793 55.8360986,98.9757547 55.8360986,95.4833446 L55.8360986,78.4878731 C55.8360986,74.9954631 58.6675223,72.1644244 62.1599323,72.1644244 L84.168044,72.1644244 C87.660069,72.1644244 90.4914927,74.9954631 90.4914927,78.4878731 L90.4914927,95.4833446 C90.4914927,98.9757547 87.660069,101.806793 84.168044,101.806793" id="Fill-8" fill="#03BED6"></path>
                <path d="M44.4996248,131.064197 L22.8803287,131.064197 C19.3879187,131.064197 16.55688,128.233158 16.55688,124.740748 L16.55688,78.4878731 C16.55688,74.9954631 19.3879187,72.1644244 22.8803287,72.1644244 L44.4996248,72.1644244 C47.9920349,72.1644244 50.8230736,74.9954631 50.8230736,78.4878731 L50.8230736,124.740748 C50.8230736,128.233158 47.9920349,131.064197 44.4996248,131.064197" id="Fill-10" fill="#FE5723"></path>
                <path d="M96.6956021,123.888934 C95.7100895,118.567551 90.5453879,114.508856 84.3189506,114.508856 C78.027069,114.508856 72.8177114,118.651859 71.909962,124.054854 C66.7741328,125.461519 63.0388093,129.735795 63.0388093,134.791936 C63.0388093,140.993351 68.6577706,146.020235 75.5883105,146.020235 C79.3713697,146.020235 82.7606089,144.520408 85.0611647,142.151713 C87.3632604,144.627813 90.8318025,146.204633 94.713028,146.204633 C101.643568,146.204633 107.261759,141.177364 107.261759,134.976335 C107.261759,129.378932 102.684131,124.739708 96.6956021,123.888934" id="Fill-12" fill="#8CC63F"></path>
                <path d="M23.2588656,104.32447 L23.1068041,104.366816 L23.1841822,104.352187 C21.7844465,104.71444 20.8177973,106.048732 20.9663941,107.53162 L21.3444305,111.30621 C21.4937973,112.799108 22.7214533,113.920513 24.177779,113.984033 C24.2705558,113.983263 24.3637175,113.982493 24.4553394,113.982878 C36.9266925,114.028689 36.2664761,123.939249 36.2664761,123.939249 L36.267246,123.939249 L26.8163349,124.822361 C26.7200934,124.82467 26.6238519,124.82698 26.5268405,124.836604 C26.4521572,124.844304 26.3797836,124.858547 26.3066401,124.870096 C24.3306105,125.184228 22.9174009,126.985484 23.119508,129.00232 L24.583533,143.651424 C24.7929544,145.742559 26.6577289,147.268178 28.7488633,147.058757 L51.9788565,144.732408 C54.0699909,144.522987 55.5956105,142.657828 55.3861891,140.566693 L54.9103713,135.816215 L54.3155991,129.875037 L53.5591412,122.323547 C51.4968793,101.7298 30.6294214,103.161103 23.2588656,104.32447" id="Fill-14" fill="#FFCF01"></path>
                <path d="M45.0348043,132.625849 C41.8703852,132.347134 40.6315651,135.709425 35.6297041,135.648601 C35.6297041,135.648601 32.0310435,135.555439 33.6794672,138.587815 C35.3278909,141.620576 41.8665355,143.663974 44.4962371,139.743482 C47.1255538,135.82376 48.1992235,132.904179 45.0348043,132.625849" id="Fill-16" fill="#EE4364"></path>
                <path d="M44.3515285,127.234826 C43.2670797,127.259464 42.2488451,127.747215 41.5447426,128.627632 C41.4346424,128.697696 41.3549544,128.831279 41.3014442,128.965247 C41.1147358,129.301323 41.0727745,129.901869 41.1944237,130.363443 C41.3441754,130.824632 41.5982528,130.950901 41.7865011,130.682195 C42.3231435,129.806013 43.3402232,129.250507 44.3973394,129.226254 C45.4544556,129.202001 46.4957882,129.710156 47.071697,130.560931 C47.2734191,130.820783 47.5486697,130.682195 47.6487608,130.215616 C47.7492369,129.745958 47.6784032,129.083817 47.477836,128.82358 C46.7579499,127.776088 45.5749499,127.206723 44.3515285,127.234826" id="Fill-18" fill="#000000"></path>
                <path d="M37.084721,130.789754 C37.2864431,131.049991 37.5616936,130.911019 37.6617847,130.444825 C37.7618759,129.975167 37.6914271,129.312641 37.4908599,129.052404 C36.7709738,128.005297 35.5879738,127.435547 34.3645524,127.46365 C33.2801036,127.488672 32.261869,127.976039 31.5577665,128.856456 C31.4769237,128.92575 31.3679784,129.060488 31.3144681,129.194071 C31.1273747,129.530531 31.0857984,130.130693 31.2070626,130.592267 C31.3571993,131.053456 31.6112768,131.18011 31.7995251,130.910634 C32.3361674,130.034836 33.3528622,129.479716 34.4103633,129.455078 C35.4674795,129.43121 36.5084271,129.93898 37.084721,130.789754" id="Fill-20" fill="#000000"></path>
                <path d="M82.1488597,101.708281 L82.4545226,100.333568 L83.2756547,96.6367408 L84.319297,91.9378478 C87.1653494,79.1231052 74.3117253,75.8424264 69.6405499,75.0798091 L69.5404588,75.0751895 L69.5901194,75.0821189 C68.6750556,75.0220642 67.8277458,75.6341599 67.622944,76.556538 L67.1013153,78.9055995 C66.8949736,79.8345221 67.4115977,80.7534355 68.276231,81.0810415 C68.332436,81.0991349 68.388641,81.1172282 68.4436911,81.1357066 C75.9474451,83.6387544 73.5814451,89.4775312 73.5814451,89.4775312 L73.582215,89.4779162 L67.7137959,88.1336155 C67.6556661,88.1159071 67.5971513,88.0981986 67.5367116,88.0847248 C67.4901308,88.0743308 67.4439349,88.0685563 67.397739,88.0612419 C66.1450601,87.85798 64.9358825,88.6625585 64.6571672,89.9175472 L62.6307071,99.0323831 C62.3419827,100.333568 63.1623449,101.622818 64.4635294,101.911543" id="Fill-22" fill="#FFCF01"></path>
                <path d="M77.1390298,96.4511103 C75.2881141,95.6553859 73.8745196,97.434313 70.8737109,96.4049144 C70.8737109,96.4049144 68.7244467,95.6342128 69.115187,97.7884815 C69.5063123,99.9419804 73.0391437,102.471206 75.4012941,100.631839 C77.7634444,98.7924724 78.9899456,97.2468346 77.1390298,96.4511103" id="Fill-24" fill="#EE4364"></path>
                <path d="M77.7976679,93.067992 C77.1397613,92.8674248 76.4291144,92.9594317 75.8308774,93.349787 C75.7504196,93.3701902 75.6757362,93.4352494 75.6168364,93.5049282 C75.4374424,93.6704636 75.2930802,94.0234772 75.2745941,94.3260604 C75.2734469,94.6332631 75.4012556,94.7603018 75.5683308,94.6351879 C76.0653216,94.2144203 76.7882875,94.0816071 77.4300255,94.2771697 C78.0717636,94.4719624 78.5980118,94.9847369 78.7758661,95.6114613 C78.8459298,95.8085638 79.0391827,95.7796913 79.1920141,95.5182995 C79.3456155,95.2557528 79.4345426,94.8422995 79.3652487,94.645967 C79.1396588,93.8721856 78.540267,93.293967 77.7976679,93.067992" id="Fill-26" fill="#000000"></path>
                <path d="M72.7145405,93.766859 C72.7846043,93.9635765 72.9778572,93.9347041 73.1306886,93.6733123 C73.283905,93.4103806 73.3732171,92.9973123 73.3039232,92.8009797 C73.0783333,92.0271984 72.4789415,91.4489797 71.7363424,91.2233897 C71.0780508,91.0228226 70.3677888,91.1144444 69.769167,91.5047998 C69.7068025,91.5305925 69.6140257,91.5902622 69.5555109,91.659941 C69.3761169,91.8254763 69.2317547,92.1788749 69.2132626,92.4810731 C69.2117364,92.7886608 69.3399301,92.9153146 69.5070052,92.7905856 C70.0039961,92.3690481 70.726962,92.2366198 71.368315,92.4317975 C72.0100531,92.6273601 72.5363014,93.1401346 72.7145405,93.766859" id="Fill-28" fill="#000000"></path>
            </g>
        </g>
    </g>
</svg>