<?xml version="1.0" encoding="UTF-8"?>
<svg width="512px" height="512px" viewBox="0 0 512 512" version="1.1" xmlns="http://www.w3.org/2000/svg" xmlns:xlink="http://www.w3.org/1999/xlink">
    <!-- Generator: Sketch 57.1 (83088) - https://sketch.com -->
    <title>Artboard</title>
    <desc>Created with Sketch.</desc>
    <g id="Artboard" stroke="none" stroke-width="1" fill="none" fill-rule="evenodd">
        <g id="Group-6" transform="translate(135.000000, 0.000000)">
            <g id="Group-4" transform="translate(0.000000, 212.000000)">
                <circle id="Oval-Copy" stroke="#9E5E9F" stroke-width="8" cx="121" cy="121" r="121"></circle>
                <circle id="Oval" fill="#9E5E9F" cx="121" cy="121" r="105.64467"></circle>
            </g>
            <g id="Group" transform="translate(1.752225, 0.000000)">
                <path d="M26.3423895,320.11516 C25.3543033,310.515253 21.2529566,271.363886 20.1535392,225.279641 C20.0748235,221.980118 15.8103563,216.614818 7.77976113,192.087097 C-0.250834034,167.559376 -0.250834034,146.408051 0.119254631,142.37594 C0.318473566,140.205453 1.27418764,129.570713 7.77976113,122.097364 C13.7249421,115.267772 27.3029,109.05558 27.359501,108.572381 C31.7365181,71.2061338 35.4157888,51.2192532 39.3095353,41.0768302 C44.4617029,27.6564743 79.3341759,0.00701502502 118.169926,0.00701502502 C119.783891,0.00477483283 154.358474,-0.994011669 180.506132,21.7467738 C185.668333,26.236373 190.164012,30.8204572 192.882773,36.6014709 C194.509254,40.0599265 197.262318,51.7917561 199.898858,66.8790205 C200.098793,68.0231276 212.992766,70.1781646 218.073396,73.5258377 C240.572369,88.3506153 237.355394,125.755393 237.355394,133.30681 C237.355394,147.245347 235.829042,164.54158 228.974149,186.770191 C222.119255,208.998801 218.5801,217.860749 214.843074,229.864305 C213.993176,232.594227 212.970054,234.052079 212.954641,235.042949 C212.508721,263.71013 210.846491,296.367017 206.358817,322.888603 C204.847523,331.820157 190.930989,336.393145 171.531986,339.30681 C151.108538,342.374343 126.186267,342.836584 119.925552,342.836584 C113.748548,342.836584 83.0480705,342.048083 66.8345181,339.30681 C60.156997,338.177821 46.4257129,335.124999 39.3095353,331.820157 C29.1470677,327.100579 26.5141649,321.784071 26.3423895,320.11516 Z" id="Path" fill="#FFD001"></path>
                <path d="M82.9515613,163.915981 C104.769494,156.659308 139.751014,159.356091 152.038488,165.878336 C164.325962,172.400581 181.910494,184.065879 178.478598,222.642881 C175.046702,261.219883 149.130334,280.758555 118.757238,281.963894 C88.3841417,283.169233 56.5819514,262.545003 51.9871533,226.226728 C47.3923552,189.908452 61.1336283,171.172655 82.9515613,163.915981 Z" id="Path-2" fill="#4ABFAD"></path>
                <path d="M142.36218,87.7384904 C125.90219,87.5480276 120.819843,105.411427 94.9369601,107.075469 C94.9369601,107.075469 76.3016858,108.007734 86.015285,123.034241 C95.7288841,138.060748 130.332955,146.090256 142.382228,124.748406 C154.431502,103.406556 158.832193,87.9389774 142.36218,87.7384904 Z" id="Path" fill="#EF4364" fill-rule="nonzero"></path>
                <path d="M134.966488,57.6983535 C129.309827,58.2447518 124.192661,61.2885831 121.012587,65.9985187 L121.012587,65.9985187 C120.450231,66.4822724 120.048196,67.1255294 119.859786,67.8429998 C119.038507,70.1959457 119.038507,72.7577107 119.859786,75.1106566 C120.8121,77.4363068 122.175412,77.9876462 123.047531,76.5240905 C125.67908,71.714393 130.515677,68.5141966 135.971423,67.9728326 C141.427169,67.4314687 146.798358,69.6187645 150.323799,73.8175149 C151.466575,75.0805835 152.829887,74.2585865 153.160691,71.8126441 C153.491495,69.3667017 152.940155,65.9383726 151.757281,64.6753039 C147.703399,59.6557511 141.383885,57.0298516 134.966488,57.6983535 Z" id="Path" fill="#000000" fill-rule="nonzero"></path>
                <path d="M103.003713,79.0680989 C104.146489,80.3311675 105.509801,79.5091705 105.850629,77.0632281 C106.191457,74.6172857 105.549899,71.1989809 104.417147,69.9258879 C100.590624,65.2254601 94.7680946,62.6094909 88.7126526,62.8701099 C82.6572106,63.1307288 77.0809723,66.2372873 73.6724526,71.2491027 L73.6724526,71.2491027 C73.1686442,71.7750555 72.7855117,72.4044874 72.5497249,73.0935838 C71.7284454,75.4465297 71.7284454,78.0082947 72.5497249,80.3612406 C73.5521603,82.6868908 74.8753751,83.2482546 75.7374695,81.7746745 C78.3699024,76.9690247 83.204194,73.7719525 88.6568098,73.2307002 C94.1094255,72.6894479 99.4778973,74.8737458 103.003713,79.0680989 L103.003713,79.0680989 Z" id="Path" fill="#000000" fill-rule="nonzero"></path>
            </g>
            <g id="Group" transform="translate(14.000000, 377.000000)">
                <rect id="Rectangle" fill="#4ABEAC" x="0" y="0.419847328" width="214" height="134" rx="6"></rect>
                <g id="Group-30" transform="translate(65.000000, 10.000000)">
                    <path d="M57.8565255,14.2890498 L57.8565255,12.6045526 C57.8565255,10.8620849 59.2310567,9.4494382 60.926213,9.4494382 L73.786838,9.4494382 C75.4819942,9.4494382 76.8565255,10.8620849 76.8565255,12.6045526 L76.8565255,37.4494382" id="Fill-2" fill="#D43026"></path>
                    <path d="M74.246265,105.449438 L10.4664877,105.449438 C8.48087424,105.449438 6.8565255,103.834189 6.8565255,101.859995 L6.8565255,45.1767109 L42.2058742,3.4494382 L77.8565255,45.1767109 L77.8565255,101.859995 C77.8565255,103.834189 76.2318784,105.449438 74.246265,105.449438" id="Fill-4" fill="#0378D6"></path>
                    <path d="M0.856525497,49.4494382 L41.2664246,0.75606299 C41.6034057,0.350022102 42.2282871,0.346749978 42.569458,0.749221276 L83.8565255,49.4494382" id="Stroke-6" stroke="#EF4364" stroke-width="6" stroke-linecap="round"></path>
                    <path d="M66.9299298,79.4494382 L49.7834211,79.4494382 C47.0624863,79.4494382 44.8565255,77.2527889 44.8565255,74.5429707 L44.8565255,61.3559057 C44.8565255,58.6460876 47.0624863,56.4494382 49.7834211,56.4494382 L66.9299298,56.4494382 C69.6505647,56.4494382 71.8565255,58.6460876 71.8565255,61.3559057 L71.8565255,74.5429707 C71.8565255,77.2527889 69.6505647,79.4494382 66.9299298,79.4494382" id="Fill-8" fill="#03BED6"></path>
                    <path d="M35.8739728,102.449438 L18.8390782,102.449438 C16.0872386,102.449438 13.8565255,100.238432 13.8565255,97.5109023 L13.8565255,61.3879741 C13.8565255,58.6604447 16.0872386,56.4494382 18.8390782,56.4494382 L35.8739728,56.4494382 C38.6258124,56.4494382 40.8565255,58.6604447 40.8565255,61.3879741 L40.8565255,97.5109023 C40.8565255,100.238432 38.6258124,102.449438 35.8739728,102.449438" id="Fill-10" fill="#FE5723"></path>
                    <path d="M76.494001,96.8479613 C75.7140228,92.6507281 71.6264493,89.4494382 66.6985712,89.4494382 C61.7188976,89.4494382 57.5959814,92.7172255 56.8775483,96.9788307 C52.8128258,98.0883359 49.8565255,101.459665 49.8565255,105.447689 C49.8565255,110.339046 54.3036202,114.303994 59.7887562,114.303994 C62.7828367,114.303994 65.4652306,113.121008 67.2859923,111.252703 C69.1079727,113.205724 71.8531305,114.449438 74.9249042,114.449438 C80.4100402,114.449438 84.8565255,110.484187 84.8565255,105.593133 C84.8565255,101.178189 81.2335875,97.5190085 76.494001,96.8479613" id="Fill-12" fill="#8CC63F"></path>
                    <path d="M18.6648249,80.9012264 L18.5456616,80.934455 L18.6062991,80.922976 C17.5093936,81.2072319 16.7518772,82.2542359 16.8683254,83.4178422 L17.1645743,86.3797216 C17.2816259,87.551182 18.2436808,88.4311366 19.3849331,88.4809795 C19.4576378,88.4803753 19.5306442,88.4797712 19.6024438,88.4800733 C29.3756426,88.5160206 28.8582628,96.2927289 28.8582628,96.2927289 L28.8588662,96.2927289 L21.4526422,96.9856969 C21.3772224,96.9875094 21.3018026,96.9893219 21.2257795,96.9968738 C21.1672537,97.0029154 21.110538,97.0140923 21.053219,97.0231547 C19.5046998,97.2696507 18.3972355,98.6830759 18.555617,100.265665 L19.702903,111.760657 C19.8670165,113.401548 21.3283504,114.598685 22.9670717,114.434354 L41.1712987,112.608894 C42.81002,112.444563 44.0055746,110.980993 43.8414611,109.340102 L43.4685857,105.612454 L43.0024913,100.950477 L42.4096917,95.0249055 C40.7935963,78.8652174 24.4407745,79.9883452 18.6648249,80.9012264" id="Fill-14" fill="#FFCF01"></path>
                    <path d="M36.298841,103.461805 C33.7639986,103.251905 32.7716479,105.784048 28.7649316,105.73824 C28.7649316,105.73824 25.8822422,105.66808 27.2027039,107.951764 C28.5231656,110.235737 33.7609148,111.774621 35.8674244,108.822097 C37.9736256,105.870153 38.8336834,103.671416 36.298841,103.461805" id="Fill-16" fill="#EE4364"></path>
                    <path d="M35.3121486,99.4502684 C34.4866546,99.470869 33.7115635,99.8786967 33.1755931,100.614846 C33.0917836,100.673429 33.0311243,100.785123 32.9903917,100.897139 C32.8482673,101.178144 32.8163259,101.680284 32.9089266,102.066224 C33.0229192,102.451841 33.2163257,102.557419 33.3596223,102.332744 C33.7681202,101.600135 34.5423322,101.135656 35.3470204,101.115377 C36.1517086,101.095098 36.9443821,101.519986 37.3827701,102.23135 C37.5363231,102.448622 37.7458468,102.332744 37.8220373,101.94262 C37.8985207,101.549921 37.8446014,100.99628 37.6919274,100.778686 C37.1439424,99.902838 36.2434301,99.4267709 35.3121486,99.4502684" id="Fill-18" fill="#000000"></path>
                    <path d="M29.3829014,102.2313 C29.5364539,102.44889 29.7459767,102.332692 29.8221669,101.942897 C29.898357,101.550205 29.8447309,100.996251 29.6920576,100.778661 C29.1440746,99.9031513 28.2435658,99.4267707 27.3122878,99.4502679 C26.4867969,99.47119 25.7117087,99.8786885 25.1757404,100.614825 C25.1142022,100.672763 25.0312722,100.785421 24.9905397,100.897113 C24.8481228,101.178435 24.8164746,101.680244 24.9087819,102.066176 C25.0230671,102.451787 25.2164728,102.557685 25.3597689,102.33237 C25.7682653,101.600096 26.5421813,101.135947 27.3471594,101.115347 C28.1518445,101.09539 28.944222,101.519948 29.3829014,102.2313" id="Fill-20" fill="#000000"></path>
                    <path d="M64.8787458,79.2903815 L65.1133053,78.2146403 L65.7434254,75.3217969 L66.5442954,71.6448163 C68.7282984,61.6170158 58.8646876,59.0498169 55.2801223,58.4530531 L55.2033144,58.4494382 L55.2414229,58.4548606 C54.5392215,58.4078666 53.8890131,58.8868441 53.7318524,59.608624 L53.3315651,61.4468131 C53.1732226,62.1737141 53.5696695,62.8927829 54.2331716,63.1491413 C54.2763022,63.1632997 54.3194328,63.1774582 54.3616771,63.1919179 C60.1199059,65.1506044 58.3042854,69.7195677 58.3042854,69.7195677 L58.3048762,69.719869 L53.8015703,68.667926 C53.7569626,68.6540687 53.7120596,68.6402115 53.6656794,68.629668 C53.6299342,68.6215344 53.5944844,68.6170158 53.5590346,68.6112921 C52.5977543,68.4522355 51.6698558,69.0818348 51.4559754,70.0638893 L49.9009109,77.1964365 C49.6793497,78.2146403 50.308879,79.2235054 51.3073816,79.4494382" id="Fill-22" fill="#FFCF01"></path>
                    <path d="M61.1563263,75.6178834 C59.7116564,74.9847909 58.6083228,76.400137 56.2661426,75.5811291 C56.2661426,75.5811291 54.5886068,74.9679452 54.893586,76.6819199 C55.1988657,78.395282 57.9562983,80.4075789 59.7999952,78.9441459 C61.6436921,77.4807129 62.6009962,76.2509759 61.1563263,75.6178834" id="Fill-24" fill="#EE4364"></path>
                    <path d="M61.6961676,72.523599 C61.2164699,72.3790336 60.6983178,72.4453505 60.2621269,72.7267121 C60.2034629,72.7414183 60.1490092,72.7883119 60.1060638,72.8385352 C59.9752627,72.9578503 59.8700042,73.2122965 59.8565255,73.4303934 C59.8556891,73.6518199 59.9488779,73.7433872 60.0706969,73.6532073 C60.4330666,73.3499251 60.9602007,73.2541955 61.4281095,73.3951538 C61.8960182,73.5355571 62.2797202,73.9051562 62.4093986,74.3568886 C62.460484,74.4989567 62.60139,74.4781459 62.7128235,74.2897392 C62.8248185,74.1004999 62.8896577,73.8024898 62.8391336,73.6609766 C62.6746498,73.1032481 62.2376169,72.6864779 61.6961676,72.523599" id="Fill-26" fill="#000000"></path>
                    <path d="M57.4094296,73.3571085 C57.4605155,73.49891 57.6014229,73.4780976 57.7128576,73.2896765 C57.8245731,73.1001454 57.8896936,72.8023902 57.8391691,72.6608662 C57.6746835,72.1030954 57.237646,71.6862935 56.6961911,71.5236797 C56.2162077,71.3791033 55.6983309,71.4451478 55.2618548,71.7265307 C55.2163827,71.7451231 55.1487359,71.7881352 55.1060707,71.8383624 C54.9752682,71.9576865 54.8700087,72.2124296 54.8565255,72.4302654 C54.8554127,72.6519863 54.9488832,72.7432831 55.0707035,72.6533738 C55.4330769,72.3495135 55.9602166,72.2540543 56.4278495,72.3947457 C56.8957631,72.5357147 57.2794691,72.9053419 57.4094296,73.3571085" id="Fill-28" fill="#000000"></path>
                </g>
            </g>
            <g id="Group-5" transform="translate(91.466119, 349.393566)" stroke="#FFFFFF" stroke-linecap="round" stroke-width="8">
                <path d="M57.9986311,6.30800821 L58.349076,31.8070437" id="Path-3"></path>
                <path d="M0.17522245,6.30800821 L0.525667351,31.8070437" id="Path-3-Copy"></path>
                <path d="M29.2621492,0 L29.2621492,38.5489391" id="Path-3-Copy-2"></path>
            </g>
        </g>
    </g>
</svg>