<?xml version="1.0" encoding="UTF-8"?>
<svg width="512px" height="512px" viewBox="0 0 512 512" version="1.1" xmlns="http://www.w3.org/2000/svg" xmlns:xlink="http://www.w3.org/1999/xlink">
    <!-- Generator: Sketch 57.1 (83088) - https://sketch.com -->
    <title>Shake@3x</title>
    <desc>Created with Sketch.</desc>
    <g id="Shake" stroke="none" stroke-width="1" fill="none" fill-rule="evenodd">
        <g id="Group" transform="translate(-49.000000, 0.000000)">
            <path d="M264.074853,444.646049 C262.821734,432.471167 257.620286,382.818261 256.225973,324.372878 C256.126143,320.188327 250.717822,313.383897 240.533187,282.277126 C230.348552,251.170355 230.348552,224.345627 230.817909,219.231987 C231.070564,216.479312 232.282629,202.992024 240.533187,193.514105 C248.073039,184.852617 265.293001,176.974134 265.364784,176.361327 C270.915845,128.972362 275.582003,103.624418 280.520166,90.7615008 C287.054295,73.741414 331.280582,38.6755633 380.533213,38.6755633 C382.580091,38.6727222 426.428586,37.4060321 459.589809,66.2465595 C466.136662,71.9404002 471.838213,77.7540694 475.286225,85.0857196 C477.348976,89.4718338 480.840492,104.350482 484.184228,123.484591 C484.437793,124.935581 500.790304,127.668662 507.233707,131.914279 C535.767562,150.715494 531.687701,198.153323 531.687701,207.730251 C531.687701,225.40751 529.751937,247.343098 521.05836,275.53407 C512.364784,303.725042 507.876324,314.964023 503.136919,330.187282 C502.059054,333.64945 500.761501,335.49834 500.741954,336.75499 C500.176425,373.111545 498.068336,414.527961 492.376937,448.163411 C490.46027,459.490667 472.810915,465.290264 448.208534,468.985459 C422.306922,472.875794 390.699771,473.462022 382.759749,473.462022 C374.925893,473.462022 335.990652,472.462022 315.428152,468.985459 C306.959525,467.553643 289.54511,463.681965 280.520166,459.490667 C267.631828,453.505162 264.292704,446.762611 264.074853,444.646049 Z" id="Path-Copy" fill="#DCDCDC" transform="translate(381.278059, 256.064344) rotate(20.000000) translate(-381.278059, -256.064344) "></path>
            <path d="M98.74152,444.646049 C97.4884003,432.471167 92.2869528,382.818261 90.8926396,324.372878 C90.79281,320.188327 85.3844883,313.383897 75.1998533,282.277126 C65.0152183,251.170355 65.0152183,224.345627 65.4845755,219.231987 C65.7372308,216.479312 66.9492953,202.992024 75.1998533,193.514105 C82.7397053,184.852617 99.9596675,176.974134 100.031451,176.361327 C105.582511,128.972362 110.24867,103.624418 115.186832,90.7615008 C121.720962,73.741414 165.947249,38.6755633 215.19988,38.6755633 C217.246757,38.6727222 261.095253,37.4060321 294.256475,66.2465595 C300.803329,71.9404002 306.50488,77.7540694 309.952892,85.0857196 C312.015643,89.4718338 315.507159,104.350482 318.850895,123.484591 C319.104459,124.935581 335.456971,127.668662 341.900374,131.914279 C370.434228,150.715494 366.354367,198.153323 366.354367,207.730251 C366.354367,225.40751 364.418603,247.343098 355.725027,275.53407 C347.031451,303.725042 342.542991,314.964023 337.803586,330.187282 C336.725721,333.64945 335.428168,335.49834 335.408621,336.75499 C334.843092,373.111545 332.735003,414.527961 327.043603,448.163411 C325.126937,459.490667 307.477582,465.290264 282.875201,468.985459 C256.973588,472.875794 225.366438,473.462022 217.426416,473.462022 C209.59256,473.462022 170.657319,472.462022 150.094819,468.985459 C141.626192,467.553643 124.211777,463.681965 115.186832,459.490667 C102.298495,453.505162 98.9593706,446.762611 98.74152,444.646049 Z" id="Path-Copy-2" fill="#DCDCDC" transform="translate(215.944726, 256.064344) rotate(-20.000000) translate(-215.944726, -256.064344) "></path>
            <path d="M184.074853,444.646049 C182.821734,432.471167 177.620286,382.818261 176.225973,324.372878 C176.126143,320.188327 170.717822,313.383897 160.533187,282.277126 C150.348552,251.170355 150.348552,224.345627 150.817909,219.231987 C151.070564,216.479312 152.282629,202.992024 160.533187,193.514105 C168.073039,184.852617 185.293001,176.974134 185.364784,176.361327 C190.915845,128.972362 195.582003,103.624418 200.520166,90.7615008 C207.054295,73.741414 251.280582,38.6755633 300.533213,38.6755633 C302.580091,38.6727222 346.428586,37.4060321 379.589809,66.2465595 C386.136662,71.9404002 391.838213,77.7540694 395.286225,85.0857196 C397.348976,89.4718338 400.840492,104.350482 404.184228,123.484591 C404.437793,124.935581 420.790304,127.668662 427.233707,131.914279 C455.767562,150.715494 451.687701,198.153323 451.687701,207.730251 C451.687701,225.40751 449.751937,247.343098 441.05836,275.53407 C432.364784,303.725042 427.876324,314.964023 423.136919,330.187282 C422.059054,333.64945 420.761501,335.49834 420.741954,336.75499 C420.176425,373.111545 418.068336,414.527961 412.376937,448.163411 C410.46027,459.490667 392.810915,465.290264 368.208534,468.985459 C342.306922,472.875794 310.699771,473.462022 302.759749,473.462022 C294.925893,473.462022 255.990652,472.462022 235.428152,468.985459 C226.959525,467.553643 209.54511,463.681965 200.520166,459.490667 C187.631828,453.505162 184.292704,446.762611 184.074853,444.646049 Z" id="Path" fill="#FFD001"></path>
            <path d="M255.868256,246.549695 C283.538395,237.34657 327.902978,240.766709 343.486312,249.038411 C359.069645,257.310112 381.37086,272.104383 377.01843,321.028862 C372.665999,369.953341 339.798105,394.732855 301.278059,396.261501 C262.758013,397.790147 222.425548,371.633897 216.598291,325.574001 C210.771034,279.514105 228.198117,255.75282 255.868256,246.549695 Z" id="Path-2" stroke="#979797" fill="#4ABFAD"></path>
            <path d="M331.214535,149.939179 C310.339496,149.697629 303.893915,172.352513 271.068489,174.4629 C271.068489,174.4629 247.43469,175.645226 259.75376,194.70228 C272.07283,213.759334 315.958721,223.94259 331.239961,196.876233 C346.521202,169.809877 352.102287,150.193443 331.214535,149.939179 Z" id="Path" fill="#EF4364" fill-rule="nonzero"></path>
            <path d="M321.835104,111.841401 C314.661161,112.53436 308.171422,116.394635 304.138359,122.367913 L304.138359,122.367913 C303.425163,122.981424 302.91529,123.797221 302.676344,124.707138 C301.634773,127.691212 301.634773,130.940117 302.676344,133.924192 C303.884096,136.873649 305.613088,137.572874 306.719135,135.71675 C310.056541,129.616952 316.190455,125.558369 323.109591,124.871796 C330.028727,124.185222 336.840626,126.959214 341.311693,132.284192 C342.760995,133.886053 344.489987,132.843572 344.909522,129.741556 C345.329057,126.639541 344.629832,122.291634 343.129677,120.689773 C337.988425,114.32383 329.973833,110.993588 321.835104,111.841401 Z" id="Path" stroke="#979797" fill="#000000" fill-rule="nonzero"></path>
            <path d="M281.298979,138.943136 C282.748282,140.544996 284.477274,139.502516 284.909522,136.4005 C285.34177,133.298485 284.528127,128.963291 283.091538,127.348717 C278.23863,121.387498 270.854328,118.069849 263.17464,118.400374 C255.494952,118.730898 248.423004,122.670726 244.10022,129.026857 L244.10022,129.026857 C243.461275,129.693886 242.975376,130.492149 242.676344,131.366082 C241.634773,134.350156 241.634773,137.599061 242.676344,140.583136 C243.947662,143.532593 245.625801,144.244531 246.719135,142.375694 C250.057663,136.281029 256.188652,132.226409 263.103819,131.539977 C270.018985,130.853545 276.827437,133.623735 281.298979,138.943136 L281.298979,138.943136 Z" id="Path" stroke="#979797" fill="#000000" fill-rule="nonzero"></path>
        </g>
    </g>
</svg>