<?xml version="1.0" encoding="UTF-8"?>
<svg viewBox="0 0 512 512" version="1.1" xmlns="http://www.w3.org/2000/svg" xmlns:xlink="http://www.w3.org/1999/xlink">
    <!-- Generator: Sketch 57.1 (83088) - https://sketch.com -->
    <title>Artboard</title>
    <desc>Created with Sketch.</desc>
    <g id="Artboard" stroke="none" stroke-width="1" fill="none" fill-rule="evenodd">
        <g id="Group-2" transform="translate(0.000000, 84.000000)">
            <g id="Group" transform="translate(161.000000, 0.000000)">
                <path d="M20.3996892,325.898915 C19.6345099,318.464695 16.4584048,288.145664 15.60701,252.457775 C15.5460521,249.902607 12.2436256,245.747689 6.02468919,226.753289 C-0.194247235,207.758889 -0.194247235,191.379188 0.0923514327,188.2567 C0.246627656,186.575863 0.986737812,178.340262 6.02468919,172.552861 C10.6286696,167.263988 21.1435138,162.453232 21.1873459,162.079041 C24.5769317,133.142416 27.4261788,117.664467 30.4415172,109.81012 C34.4313837,99.4173236 61.4368159,78.0054325 91.5114309,78.0054325 C92.7612944,78.0036977 119.536039,77.230232 139.784927,94.8408195 C143.782564,98.3175895 147.264042,101.867529 149.369465,106.344377 C150.629021,109.022624 152.761009,118.107817 154.802759,129.791476 C154.95759,130.677479 164.942752,132.346351 168.87722,134.938807 C186.300546,146.419195 183.809304,175.385658 183.809304,181.233516 C183.809304,192.027595 182.627289,205.421892 177.318822,222.635848 C172.010355,239.849805 169.269614,246.712545 166.375641,256.008163 C165.717476,258.12223 164.925165,259.251199 164.913229,260.018534 C164.567906,282.218554 163.280665,307.508224 159.805386,328.046684 C158.635032,334.963328 147.857993,338.504675 132.835299,340.761033 C117.019271,343.136547 97.7193293,343.494509 92.8709973,343.494509 C88.0874922,343.494509 64.312876,342.883889 51.7570131,340.761033 C46.5859046,339.886738 35.9523237,337.522616 30.4415172,334.963328 C22.5716472,331.308462 20.532713,327.191329 20.3996892,325.898915 Z" id="Path" fill="#FFD001"></path>
                <path d="M64.2381387,204.937425 C81.1340642,199.317817 108.223943,201.406221 117.739429,206.457083 C127.254916,211.507944 140.872472,220.541614 138.214793,250.415854 C135.557115,280.290093 115.487339,295.420947 91.9662485,296.354368 C68.4451584,297.287789 43.8173699,281.316273 40.2591333,253.191204 C36.7008968,225.066135 47.3422132,210.557032 64.2381387,204.937425 Z" id="Path-2" fill="#4ABFAD"></path>
                <path d="M110.246044,145.945163 C97.4993384,145.797667 93.5635409,159.63118 73.5196965,160.919824 C73.5196965,160.919824 59.0884391,161.641775 66.6107029,173.278383 C74.1329667,184.914992 100.930546,191.133086 110.261569,174.605842 C119.592592,158.078597 123.000512,146.100421 110.246044,145.945163 Z" id="Path" fill="#EF4364" fill-rule="nonzero"></path>
                <path d="M104.51878,122.681918 C100.138231,123.105051 96.1754702,125.462211 93.7128035,129.109611 L93.7128035,129.109611 C93.277312,129.484232 92.9659735,129.982374 92.8200683,130.537987 C92.184065,132.360121 92.184065,134.343966 92.8200683,136.1661 C93.5575452,137.967096 94.6133015,138.394056 95.2886751,137.26067 C97.3265606,133.536015 101.072048,131.057765 105.297007,130.63853 C109.521966,130.219295 113.681444,131.913149 116.411565,135.164684 C117.296537,136.142811 118.352293,135.506252 118.608469,133.612101 C118.864645,131.71795 118.437685,129.063033 117.521661,128.084906 C114.382313,124.197737 109.488447,122.164226 104.51878,122.681918 Z" id="Path" fill="#000000" fill-rule="nonzero"></path>
                <path d="M79.7666335,139.230764 C80.6516057,140.208892 81.707362,139.572333 81.9713011,137.678182 C82.2352402,135.78403 81.7384137,133.136877 80.8612044,132.150987 C77.8979242,128.51095 73.3889262,126.485129 68.699559,126.686954 C64.0101919,126.888779 59.6919227,129.294514 57.0523466,133.175691 L57.0523466,133.175691 C56.6621946,133.582992 56.3654948,134.070428 56.1829002,134.604068 C55.5468969,136.426202 55.5468969,138.410046 56.1829002,140.23218 C56.9591916,142.033176 57.9838963,142.4679 58.6515069,141.326751 C60.6900772,137.60523 64.4337788,135.1294 68.656314,134.710251 C72.8788492,134.291102 77.0362229,135.982635 79.7666335,139.230764 L79.7666335,139.230764 Z" id="Path" fill="#000000" fill-rule="nonzero"></path>
                <text id="TalkiPlayer" font-family="VarelaRound-Regular, Varela Round" font-size="24" font-weight="normal" line-spacing="18" fill="#525350">
                    <tspan x="21.8642044" y="14.4001465">TalkiPlayer</tspan>
                </text>
            </g>
            <g id="Group" transform="translate(0.000000, 104.000000)">
                <rect id="Rectangle" fill="#4ABEAC" x="0" y="78" width="130.491723" height="161.999975" rx="6"></rect>
                <g id="Group-30" transform="translate(23.779813, 102.374308)">
                    <path d="M56.4770555,14.0653134 L56.4770555,12.4242091 C56.4770555,10.7266277 57.8533122,9.35037104 59.5505964,9.35037104 L72.427365,9.35037104 C74.1246492,9.35037104 75.5009058,10.7266277 75.5009058,12.4242091 L75.5009058,36.6290861" id="Fill-2" fill="#D43026"></path>
                    <path d="M72.7954765,104.915553 L9.2448184,104.915553 C7.26633797,104.915553 5.64782445,103.310416 5.64782445,101.348581 L5.64782445,45.0201498 L40.870186,3.55410111 L76.3927677,45.0201498 L76.3927677,101.348581 C76.3927677,103.310416 74.7739569,104.915553 72.7954765,104.915553" id="Fill-4" fill="#0378D6"></path>
                    <path d="M0.0982700766,49.0032387 L40.23473,0.34558013 C40.5694308,-0.0601629265 41.1900839,-0.0634326508 41.5289463,0.338743434 L82.5366391,49.0032387" id="Stroke-6" stroke="#EF4364" stroke-width="6" stroke-linecap="round"></path>
                    <path d="M64.9895449,78.6091354 L47.9961934,78.6091354 C45.2995626,78.6091354 43.113306,76.4231761 43.113306,73.7265454 L43.113306,60.6036556 C43.113306,57.9070249 45.2995626,55.7210656 47.9961934,55.7210656 L64.9895449,55.7210656 C67.6858784,55.7210656 69.8721349,57.9070249 69.8721349,60.6036556 L69.8721349,73.7265454 C69.8721349,76.4231761 67.6858784,78.6091354 64.9895449,78.6091354" id="Fill-8" fill="#03BED6"></path>
                    <path d="M34.3599569,101.199958 L17.6668255,101.199958 C14.9701948,101.199958 12.7842355,99.0139984 12.7842355,96.3173676 L12.7842355,60.6036556 C12.7842355,57.9070249 14.9701948,55.7210656 17.6668255,55.7210656 L34.3599569,55.7210656 C37.0565877,55.7210656 39.242547,57.9070249 39.242547,60.6036556 L39.242547,96.3173676 C39.242547,99.0139984 37.0565877,101.199958 34.3599569,101.199958" id="Fill-10" fill="#FE5723"></path>
                    <path d="M74.6625782,95.6596477 C73.9016242,91.5507933 69.9137496,88.4169112 65.106066,88.4169112 C60.2478502,88.4169112 56.2254948,91.6158905 55.5245849,95.7877614 C51.5590038,96.8739044 48.6748098,100.174245 48.6748098,104.078296 C48.6748098,108.866658 53.0134366,112.748118 58.3647863,112.748118 C61.285839,112.748118 63.9028074,111.590042 65.6791594,109.761077 C67.4567005,111.672974 70.1349019,112.8905 73.1317528,112.8905 C78.4831024,112.8905 82.8211348,109.008743 82.8211348,104.220678 C82.8211348,99.8986966 79.2865629,96.316565 74.6625782,95.6596477" id="Fill-12" fill="#8CC63F"></path>
                    <path d="M17.9591092,80.5531351 L17.8416963,80.5858324 L17.9014431,80.574537 C16.8206506,80.854247 16.0742617,81.8845074 16.1889993,83.0295054 L16.4808965,85.9440187 C16.5962286,87.0967451 17.5441514,87.9626276 18.6686393,88.0116734 C18.740276,88.0110789 18.81221,88.0104845 18.8829549,88.0107817 C28.5125901,88.0461542 28.0028104,95.698498 28.0028104,95.698498 L28.0034049,95.698498 L20.7059748,96.3803841 C20.6316629,96.3821676 20.557351,96.3839511 20.4824446,96.3913822 C20.4247785,96.3973272 20.368896,96.4083254 20.3124189,96.4172428 C18.7866467,96.6597969 17.6954505,98.0506187 17.8515055,99.6078992 L18.9819384,110.919064 C19.1436411,112.533714 20.5835088,113.711706 22.1981581,113.550003 L40.1349736,111.753736 C41.7496229,111.592033 42.9276154,110.151868 42.7659127,108.537219 L42.3985146,104.869183 L41.9392669,100.28176 L41.3551753,94.4509495 C39.7628196,78.5496859 23.6502129,79.6548527 17.9591092,80.5531351" id="Fill-14" fill="#FFCF01"></path>
                    <path d="M34.7731906,102.405773 C32.3298148,102.190565 31.3732719,104.786726 27.511133,104.739761 C27.511133,104.739761 24.7324619,104.667827 26.0052764,107.009247 C27.2780909,109.350964 32.3268424,110.928755 34.3573411,107.901585 C36.3875427,104.875009 37.2165664,102.620683 34.7731906,102.405773" id="Fill-16" fill="#EE4364"></path>
                    <path d="M34.2456057,98.243146 C33.4082591,98.2621699 32.622039,98.6387826 32.0783731,99.318588 C31.9933602,99.3726871 31.93183,99.4758321 31.8905125,99.5792742 C31.7463474,99.8387714 31.7139474,100.302478 31.8078777,100.658878 C31.923507,101.01498 32.1196905,101.112478 32.2650446,100.904999 C32.6794078,100.228463 33.4647361,99.7995348 34.2809782,99.7808082 C35.0972203,99.7620815 35.9012752,100.154448 36.3459577,100.811366 C36.5017155,101.012008 36.7142476,100.904999 36.791532,100.544735 C36.8691136,100.182092 36.81442,99.6708265 36.659554,99.4698871 C36.1037009,98.6610762 35.1902588,98.2214469 34.2456057,98.243146" id="Fill-18" fill="#000000"></path>
                    <path d="M28.6346103,100.98805 C28.7903681,101.188989 29.0029001,101.081683 29.0801845,100.721716 C29.1574689,100.359074 29.1030726,99.8475105 28.9482066,99.6465711 C28.3923534,98.8380575 27.4789114,98.3981309 26.5342583,98.41983 C25.6969116,98.4391511 24.9106916,98.8154666 24.3670256,99.495272 C24.3046036,99.5487766 24.2204825,99.6528133 24.1791651,99.7559582 C24.0347027,100.015753 24.0026,100.479162 24.096233,100.835562 C24.2121596,101.191664 24.408343,101.289459 24.5536971,101.081386 C24.9680604,100.405147 25.7530915,99.976516 26.5696308,99.9574922 C27.3858729,99.9390628 28.1896305,100.331132 28.6346103,100.98805" id="Fill-20" fill="#000000"></path>
                    <path d="M63.4304512,78.5330698 L63.6664658,77.4715984 L64.3004951,74.6171291 L65.1063335,70.9889241 C67.3038854,61.094144 57.3790833,58.5609994 53.7722802,57.9721518 L53.6949958,57.9685849 L53.7333407,57.9739353 C53.026783,57.9275647 52.3725409,58.4001885 52.2144052,59.1123939 L51.8116346,60.9261991 C51.6523099,61.6434577 52.0512162,62.3529878 52.7188345,62.6059456 C52.7622326,62.6199162 52.8056308,62.6338869 52.8481372,62.6481548 C58.6420886,64.5808591 56.8152045,69.0892143 56.8152045,69.0892143 L56.815799,69.0895116 L52.2845556,68.0515228 C52.2396712,68.0378494 52.1944896,68.024176 52.1478217,68.0137723 C52.1118547,68.0057466 52.076185,68.0012879 52.0405153,67.9956402 C51.0732714,67.8386934 50.1396165,68.459941 49.9244092,69.4289684 L48.3596975,76.4669013 C48.1367618,77.4715984 48.7701965,78.4670808 49.7748936,78.6900165" id="Fill-22" fill="#FFCF01"></path>
                    <path d="M59.5621593,74.4737963 C58.1329925,73.8593853 57.0414991,75.2329668 54.7244536,74.4381265 C54.7244536,74.4381265 53.0649199,73.8430367 53.3666263,75.5064346 C53.6686299,77.169238 56.3964717,79.1221552 58.2203833,77.7019059 C60.044295,76.2816565 60.991326,75.0882072 59.5621593,74.4737963" id="Fill-24" fill="#EE4364"></path>
                    <path d="M60.0707203,71.8615541 C59.5627241,71.7066881 59.0140049,71.7777303 58.552082,72.0791394 C58.4899572,72.0948935 58.4322912,72.1451284 58.3868123,72.1989302 C58.2482949,72.3267467 58.136827,72.5993228 58.1225531,72.8329594 C58.1216674,73.0701631 58.2203536,73.1682548 58.3493591,73.0716493 C58.7331058,72.7467576 59.2913369,72.6442072 59.7868488,72.795209 C60.2823606,72.9456163 60.6886982,73.3415502 60.8260266,73.8254694 C60.8801257,73.9776602 61.029344,73.9553666 61.1473513,73.7535355 C61.2659532,73.5508125 61.3346174,73.2315686 61.2811128,73.0799723 C61.1069257,72.4825045 60.644111,72.0360385 60.0707203,71.8615541" id="Fill-26" fill="#000000"></path>
                    <path d="M56.1458325,72.4011775 C56.1999315,72.5530711 56.3491499,72.5307775 56.4671572,72.3289463 C56.5854618,72.1259262 56.6544232,71.8069794 56.6009186,71.6553831 C56.4267315,71.0579153 55.9639169,70.6114493 55.3905262,70.4372622 C54.8822327,70.2823962 54.3338107,70.3531411 53.8715906,70.6545502 C53.8234365,70.6744658 53.7517998,70.7205392 53.7066182,70.774341 C53.5681008,70.9021575 53.4566329,71.1750309 53.4423544,71.4083703 C53.441176,71.6458712 53.5401595,71.7436657 53.669165,71.6473574 C54.0529117,71.3218712 54.6111428,71.219618 55.1063574,71.3703226 C55.6018693,71.5213244 56.0082068,71.9172583 56.1458325,72.4011775" id="Fill-28" fill="#000000"></path>
                </g>
                <text id="Home-Tag" font-family="VarelaRound-Regular, Varela Round" font-size="24" font-weight="normal" line-spacing="18" fill="#525350">
                    <tspan x="7" y="22">Home Tag</tspan>
                </text>
            </g>
            <g id="noun_usb-charger_316605" transform="translate(374.000000, 97.000000)" fill="#525350">
                <path d="M3.8591924,222.511973 L8.97054632,222.511973 L8.97054632,243.361353 C8.97054632,245.188602 10.6969121,246.669142 12.8297387,246.669142 C14.9581948,246.669142 16.6845606,245.188602 16.6845606,243.361353 L16.6845606,222.511973 L33.288266,222.511973 L33.288266,243.361353 C33.288266,245.188602 35.0124466,246.669142 37.1430879,246.669142 C39.2737292,246.669142 41.000095,245.188602 41.000095,243.361353 L41.000095,222.511973 L46.1158195,222.511973 C48.2464608,222.511973 49.9728266,221.031433 49.9728266,219.204183 L49.9728266,180.957518 C49.9728266,179.128395 48.2464608,177.647855 46.1158195,177.647855 L28.8456057,177.647855 L28.8456057,124.157248 C28.8456057,114.882319 37.6435154,107.333438 48.4649881,107.333438 C59.279905,107.333438 68.08,114.880445 68.08,124.157248 L68.08,197.492717 C68.08,210.416521 80.3415677,220.930231 95.4112114,220.930231 C110.480855,220.930231 122.742423,210.416521 122.742423,197.492717 L122.742423,144.000235 L134.142993,144.000235 C136.273634,144.000235 138,142.519695 138,140.692446 L138,103.452174 C138,101.624925 136.273634,100.144384 134.142993,100.144384 L132.130356,100.144384 L132.130356,81.3077893 C132.1238,79.4805402 130.39962,78 128.268979,78 L109.488741,78 C107.3581,78 105.631734,79.4805402 105.631734,81.3077893 L105.631734,100.144384 L103.619097,100.144384 C101.488456,100.144384 99.759905,101.624925 99.759905,103.452174 L99.759905,140.69432 C99.759905,142.521569 101.488456,144.002109 103.619097,144.002109 L115.019667,144.002109 L115.019667,197.492717 C115.019667,206.769519 106.221758,214.316527 95.4024703,214.316527 C84.5831829,214.316527 75.7852732,206.771394 75.7852732,197.492717 L75.7852732,124.157248 C75.7852732,111.233443 63.5258907,100.719733 48.456247,100.719733 C33.3866033,100.719733 21.1250356,111.233443 21.1250356,124.157248 L21.1250356,177.647855 L3.85700713,177.647855 C1.7263658,177.647855 0,179.128395 0,180.957518 L0,219.206058 C0.00437054632,221.031433 1.73073634,222.511973 3.8591924,222.511973 Z M124.411971,84.6137045 L124.411971,100.144384 L113.345748,100.144384 L113.345748,84.6137045 L124.411971,84.6137045 Z M107.476105,137.386531 L107.476105,106.758089 L130.27943,106.758089 L130.27943,137.386531 L107.476105,137.386531 Z M7.71619952,184.26156 L42.2566271,184.26156 L42.2566271,215.896394 L7.71619952,215.896394 L7.71619952,184.26156 Z" id="Shape" fill-rule="nonzero"></path>
                <text id="Charger" font-family="VarelaRound-Regular, Varela Round" font-size="24" font-weight="normal" line-spacing="18">
                    <tspan x="14.4591533" y="14.4001465">Charger</tspan>
                </text>
            </g>
        </g>
    </g>
</svg>